<svg xmlns="http://www.w3.org/2000/svg" xmlns:xlink="http://www.w3.org/1999/xlink" width="380" height="80" viewBox="0 0 380 80">
  <defs>
    <linearGradient id="linear-gradient" x1="0.5" y1="-1.21" x2="1" y2="2.458" gradientUnits="objectBoundingBox">
      <stop offset="0" stop-color="#37b4fa"/>
      <stop offset="1" stop-color="blue"/>
    </linearGradient>
  </defs>
  <g id="contact_btn_inquiry" transform="translate(-494 -3619.125)">
    <rect id="長方形_2923" data-name="長方形 2923" width="380" height="80" transform="translate(494 3619.125)" fill="url(#linear-gradient)"/>
    <g id="グループ_12739" data-name="グループ 12739" transform="translate(-15 350.125)">
      <path id="パス_36198" data-name="パス 36198" d="M30.756,14.754c-.364,0-1.008-.392-1.008-.812,0-.49.56-1.064,1.414-1.5.028.728.042,1.358.042,1.708C31.2,14.628,31.008,14.754,30.756,14.754ZM32.73,9.77c0-.406,0-.826.014-1.246A26.776,26.776,0,0,0,35.39,8.09l-.042-1.736a18.986,18.986,0,0,1-2.548.518c.014-.35.028-.686.042-.994.028-.35.084-.952.112-1.2h-1.9a11.006,11.006,0,0,1,.1,1.218c0,.238,0,.644-.014,1.134-.28.014-.546.028-.8.028a15.189,15.189,0,0,1-1.918-.112l.028,1.68c.6.056,1.3.07,1.932.07.224,0,.476-.014.742-.028V9.826c0,.322,0,.644.014.966-1.694.742-3.108,1.988-3.108,3.206,0,1.47,1.918,2.632,3.276,2.632.9,0,1.526-.448,1.526-2.17,0-.476-.042-1.54-.07-2.646a9.842,9.842,0,0,1,2.6-.378c1.2,0,2.044.546,2.044,1.484,0,1.008-.9,1.582-2.016,1.778a10.6,10.6,0,0,1-1.708.1l.644,1.778a11.3,11.3,0,0,0,1.82-.224c2.2-.546,3.052-1.778,3.052-3.416,0-1.9-1.68-3.038-3.808-3.038a11.284,11.284,0,0,0-2.66.364Zm3.416-2.24a21.061,21.061,0,0,1,3.332,2.016l.84-1.428a30.626,30.626,0,0,0-3.4-1.946ZM46.492,5.948V6.7H44.35V5.948ZM44.35,8.622v-.8h2.142v.8Zm3.7,1.26V4.674H42.7V17.218H44.35V9.882Zm1.61,2.338v1.652h-2.31V12.22Zm1.554,3.024v-4.4H45.792v5.18h1.554v-.784Zm-.616-6.608V7.824h2.212v.812Zm2.212-2.7V6.7H50.594v-.77ZM54.5,4.674H49.012V9.9h3.794V15.2c0,.252-.1.336-.364.336s-1.218.028-2.03-.028a5.961,5.961,0,0,1,.56,1.708,6.877,6.877,0,0,0,2.744-.322c.588-.266.784-.742.784-1.666Zm5.418,1.358L57.79,6a8.035,8.035,0,0,1,.1,1.4c0,.854.028,2.464.154,3.738.392,3.724,1.722,5.1,3.234,5.1,1.12,0,1.988-.854,2.912-3.262l-1.4-1.68c-.266,1.092-.812,2.716-1.47,2.716-.868,0-1.288-1.358-1.484-3.36-.084-.994-.1-2.044-.084-2.94A10.986,10.986,0,0,1,59.918,6.032Zm6.93.294-1.764.588c1.512,1.708,2.254,4.97,2.464,7.2l1.834-.7A15.11,15.11,0,0,0,66.848,6.326Zm13.888,6.636v2.282h-5.53V12.962Zm-7.168,4.27h1.638v-.518h5.53v.518h1.708v-5.74H73.568Zm1.554-8.6a14.3,14.3,0,0,0,2.786-2.842,15.336,15.336,0,0,0,2.87,2.842Zm1.848-4.48a14.821,14.821,0,0,1-5.7,4.984,6.8,6.8,0,0,1,1.05,1.358,19.506,19.506,0,0,0,2.17-1.372v.98h6.972V9.14a16.793,16.793,0,0,0,2.142,1.33,8.138,8.138,0,0,1,1.078-1.5,14.064,14.064,0,0,1-5.992-4.816ZM91.152,6.732c.112-.868.224-1.582.308-1.974L89.43,4.7a7.4,7.4,0,0,1,.056,1.232c0,.154-.028.546-.056,1.064-.588.084-1.19.154-1.6.182a11.791,11.791,0,0,1-1.2.014L86.8,8.972c.784-.1,1.848-.238,2.52-.322l-.056.966c-.784,1.162-2.184,3.01-2.968,3.962l1.092,1.54c.476-.672,1.162-1.68,1.75-2.562-.028,1.176-.028,1.974-.056,3.052,0,.224-.014.728-.042,1.022h1.9c-.028-.308-.084-.812-.1-1.064-.084-1.3-.084-2.464-.084-3.6,0-.364.014-.756.028-1.148a5.8,5.8,0,0,1,3.934-1.778A2.112,2.112,0,0,1,96.976,11.1c0,2.17-1.736,3.15-4.172,3.528l.826,1.68c3.444-.686,5.194-2.366,5.194-5.166A3.663,3.663,0,0,0,95,7.4a6.763,6.763,0,0,0-4.074,1.442c.014-.14.014-.266.028-.406.238-.364.532-.812.714-1.05Zm18-1.666a10.737,10.737,0,0,1,.1,1.26V7.894c-1.26.112-2.6.238-3.78.35.014-.546.014-1.008.014-1.33a10.966,10.966,0,0,1,.084-1.442h-1.96a10.468,10.468,0,0,1,.112,1.54v1.4l-1.05.1c-.7.056-1.344.084-1.736.084l.182,1.778c.364-.056,1.232-.2,1.666-.252l.938-.1c0,1.3,0,2.646.014,3.234.056,2.394.49,3.15,4.088,3.15a38.953,38.953,0,0,0,3.948-.224l.07-1.9a25.783,25.783,0,0,1-4.144.364c-2.086,0-2.2-.308-2.24-1.666-.028-.588-.014-1.862,0-3.136,1.19-.126,2.548-.252,3.766-.35a15.67,15.67,0,0,1-.1,1.666c-.042.266-.154.322-.434.322a8.649,8.649,0,0,1-1.274-.168l-.042,1.526a17.546,17.546,0,0,0,2.086.21c.714,0,1.064-.182,1.2-.91a24.253,24.253,0,0,0,.21-2.772c.406-.028.77-.042,1.064-.056.378-.014,1.106-.028,1.344-.014V7.586c-.406.028-.952.07-1.33.1-.322.014-.672.042-1.05.07.014-.462.028-.952.042-1.5a11.81,11.81,0,0,1,.084-1.19Zm7.966,0A10.4,10.4,0,0,1,117,6.424a41.091,41.091,0,0,0-.574,5.782,16.724,16.724,0,0,0,.546,4.424l1.568-.112c-.014-.2-.014-.434-.014-.574a2.737,2.737,0,0,1,.07-.644,33.072,33.072,0,0,1,.994-3.3l-.854-.686c-.21.462-.434.924-.616,1.414a6.417,6.417,0,0,1-.056-.9,36.667,36.667,0,0,1,.658-5.362,11.652,11.652,0,0,1,.336-1.232Zm7,8.61c0,.812-.294,1.26-1.148,1.26-.728,0-1.288-.252-1.288-.812,0-.518.532-.84,1.316-.84a4.322,4.322,0,0,1,1.12.154Zm4.382.56a8.8,8.8,0,0,0-2.674-1.792c-.056-.938-.126-2.044-.154-3.388.756-.056,1.484-.14,2.156-.238V7.1c-.658.14-1.386.238-2.142.322,0-.616.028-1.134.042-1.442a8.855,8.855,0,0,1,.084-.9h-1.988a7.845,7.845,0,0,1,.084.91c.014.294.014.854.028,1.54-.322.014-.658.014-.98.014a22.989,22.989,0,0,1-2.422-.126V9.07c.826.056,1.61.084,2.422.084.322,0,.658,0,.994-.014.014.98.056,1.988.1,2.842a6.228,6.228,0,0,0-.91-.056c-1.89,0-3.08.966-3.08,2.38,0,1.456,1.2,2.268,3.108,2.268,1.876,0,2.632-.952,2.716-2.268a14.139,14.139,0,0,1,1.68,1.386ZM132.83,7.7c1.134.084,2.338.154,3.794.154,1.316,0,3.038-.1,4-.168V5.822c-1.064.112-2.646.2-4.018.2a36.336,36.336,0,0,1-3.78-.168Zm-.644,3.864a8.918,8.918,0,0,0-.28,2c0,1.9,1.6,2.968,4.774,2.968a21.168,21.168,0,0,0,4.816-.476l-.014-1.946a19.66,19.66,0,0,1-4.872.546c-2,0-2.842-.644-2.842-1.526a5.753,5.753,0,0,1,.238-1.4Zm23.324-5.5a33.356,33.356,0,0,1-5.124.658l.084-.42a14.491,14.491,0,0,1,.322-1.414l-1.96-.084a8.481,8.481,0,0,1-.07,1.4c-.014.168-.056.35-.084.56a19.607,19.607,0,0,1-2.716-.266V8.216c.7.07,1.512.126,2.394.14A22.408,22.408,0,0,1,146.774,13l1.638.588a4.068,4.068,0,0,1,.392-.6,4.757,4.757,0,0,1,3.836-1.638c1.344,0,2.072.7,2.072,1.526,0,2.044-3.066,2.408-6.1,1.918l.49,1.792c4.48.476,7.476-.644,7.476-3.766,0-1.764-1.484-2.968-3.724-2.968a6.741,6.741,0,0,0-3.444.868,24.459,24.459,0,0,0,.63-2.394c1.862-.1,4.06-.364,5.5-.588Zm7.9.392c1.078.28,4.172.924,5.572,1.106l.42-1.708a43.892,43.892,0,0,1-5.544-1.078Zm.532,1.106-1.876-.252a50.479,50.479,0,0,1-.686,5.782l1.61.406a3,3,0,0,1,.518-.812,4.86,4.86,0,0,1,3.822-1.624c1.218,0,2.072.658,2.072,1.554,0,1.764-2.2,2.786-6.356,2.2l.532,1.82c5.768.5,7.77-1.442,7.77-3.976,0-1.68-1.414-3.178-3.85-3.178a6.8,6.8,0,0,0-4.074,1.316C163.518,9.994,163.756,8.328,163.938,7.558Z" transform="translate(604.563 3298.854)" fill="#fff"/>
      <g id="グループ_12179" data-name="グループ 12179" transform="translate(-170.178 -3668.183)">
        <path id="パス_25110" data-name="パス 25110" d="M772.394,6970.2H750.178l11.108,9.327Z" fill="#fff"/>
        <path id="パス_25111" data-name="パス 25111" d="M761.286,6981.337l-11.108-9.327v12.6h22.215v-12.6Z" transform="translate(0 -0.203)" fill="#fff"/>
      </g>
      <g id="グループ_12323" data-name="グループ 12323" transform="translate(-115.682 2449.946)">
        <g id="グループ_12322" data-name="グループ 12322" transform="translate(925.502 855.054)">
          <path id="パス_35629" data-name="パス 35629" d="M925.5,855.054l6.876,4.057-6.876,4.074Z" transform="translate(-925.502 -855.054)" fill="#fff"/>
        </g>
      </g>
    </g>
  </g>
</svg>
