<svg id="レイヤー_1" data-name="レイヤー 1" xmlns="http://www.w3.org/2000/svg" viewBox="0 0 380 80"><defs><style>.cls-1{fill:none;}.cls-2{fill:#fff;}</style></defs><g id="contact_btn_inquiry" data-name="contact btn inquiry"><rect id="長方形_2923" data-name="長方形 2923" class="cls-1" width="380" height="80"/><g id="グループ_12739" data-name="グループ 12739"><path id="パス_36198" data-name="パス 36198" class="cls-2" d="M126.319,44.608c-.364,0-1.008-.392-1.008-.812,0-.49.56-1.064,1.414-1.5.028.728.042,1.358.042,1.708C126.763,44.482,126.571,44.608,126.319,44.608Zm1.974-4.984c0-.406,0-.826.014-1.246a26.77,26.77,0,0,0,2.646-.434l-.042-1.736a18.9777,18.9777,0,0,1-2.548.518c.014-.35.028-.686.042-.994.028-.35.084-.952.112-1.2h-1.9a11.01,11.01,0,0,1,.1,1.218c0,.238,0,.644-.014,1.134-.28.014-.546.028-.8.028a15.179,15.179,0,0,1-1.918-.112l.028,1.68c.6.056,1.3.07,1.932.07.224,0,.476-.014.742-.028V39.68c0,.322,0,.644.014.966-1.694.742-3.108,1.988-3.108,3.206,0,1.47,1.918,2.632,3.276,2.632.9,0,1.526-.448,1.526-2.17,0-.476-.042-1.54-.07-2.646a9.8418,9.8418,0,0,1,2.6-.378c1.2,0,2.044.546,2.044,1.484,0,1.008-.9,1.582-2.016,1.778a10.6051,10.6051,0,0,1-1.708.1l.644,1.778a11.29,11.29,0,0,0,1.82-.224c2.2-.546,3.052-1.778,3.052-3.416,0-1.9-1.68-3.038-3.808-3.038a11.2794,11.2794,0,0,0-2.66.364Zm3.416-2.24a21.0634,21.0634,0,0,1,3.332,2.016l.84-1.428a30.6184,30.6184,0,0,0-3.4-1.946Zm10.346-1.582v.752h-2.142v-.752Zm-2.142,2.674v-.8h2.142v.8Zm3.7,1.26V34.528h-5.35V47.072h1.65V39.736Zm1.61,2.338v1.652h-2.31V42.074Zm1.554,3.024v-4.4h-5.422v5.18h1.554v-.784Zm-.616-6.608v-.812h2.212v.812Zm2.212-2.7v.764h-2.216v-.77Zm1.69-1.262h-5.488v5.226h3.794v5.3c0,.252-.1.336-.364.336s-1.218.028-2.03-.028a5.963,5.963,0,0,1,.56,1.708,6.8762,6.8762,0,0,0,2.744-.322c.588-.266.784-.742.784-1.666Zm5.418,1.358-2.128-.032a8.0327,8.0327,0,0,1,.1,1.4c0,.854.028,2.464.154,3.738.392,3.724,1.722,5.1,3.234,5.1,1.12,0,1.988-.854,2.912-3.262l-1.4-1.68c-.266,1.092-.812,2.716-1.47,2.716-.868,0-1.288-1.358-1.484-3.36-.084-.994-.1-2.044-.084-2.94A10.9712,10.9712,0,0,1,155.481,35.886Zm6.93.294-1.764.588c1.512,1.708,2.254,4.97,2.464,7.2l1.834-.7A15.11,15.11,0,0,0,162.411,36.18Zm13.888,6.636v2.282h-5.53V42.816Zm-7.168,4.27h1.638v-.518h5.53v.518h1.708v-5.74h-8.876Zm1.554-8.6a14.2989,14.2989,0,0,0,2.786-2.842,15.3375,15.3375,0,0,0,2.87,2.842Zm1.848-4.48a14.8209,14.8209,0,0,1-5.7,4.984,6.7976,6.7976,0,0,1,1.05,1.358,19.5033,19.5033,0,0,0,2.17-1.372v.98h6.972v-.962a16.7916,16.7916,0,0,0,2.142,1.33,8.137,8.137,0,0,1,1.078-1.5,14.0637,14.0637,0,0,1-5.992-4.816Zm14.182,2.58c.112-.868.224-1.582.308-1.974l-2.03-.058a7.4066,7.4066,0,0,1,.056,1.232c0,.154-.028.546-.056,1.064-.588.084-1.19.154-1.6.182a11.802,11.802,0,0,1-1.2.014l.17,1.78c.784-.1,1.848-.238,2.52-.322l-.056.966c-.784,1.162-2.184,3.01-2.968,3.962l1.092,1.54c.476-.672,1.162-1.68,1.75-2.562-.028,1.176-.028,1.974-.056,3.052,0,.224-.014.728-.042,1.022h1.9c-.028-.308-.084-.812-.1-1.064-.084-1.3-.084-2.464-.084-3.6,0-.364.014-.756.028-1.148a5.8,5.8,0,0,1,3.934-1.778,2.112,2.112,0,0,1,2.2534,1.96q.0034.05.0046.1c0,2.17-1.736,3.15-4.172,3.528l.826,1.68c3.444-.686,5.194-2.366,5.194-5.166a3.663,3.663,0,0,0-3.5795-3.7446q-.1223-.0029-.2445.0026a6.7631,6.7631,0,0,0-4.074,1.442c.014-.14.014-.266.028-.406.238-.364.532-.812.714-1.05Zm18-1.666a10.7559,10.7559,0,0,1,.1,1.26v1.568c-1.26.112-2.6.238-3.78.35.014-.546.014-1.008.014-1.33a10.9629,10.9629,0,0,1,.084-1.442h-1.96a10.4711,10.4711,0,0,1,.112,1.54v1.4l-1.05.1c-.7.056-1.344.084-1.736.084l.182,1.778c.364-.056,1.232-.2,1.666-.252l.938-.1c0,1.3,0,2.646.014,3.234.056,2.394.49,3.15,4.088,3.15a38.9489,38.9489,0,0,0,3.948-.224l.07-1.9a25.7756,25.7756,0,0,1-4.144.364c-2.086,0-2.2-.308-2.24-1.666-.028-.588-.014-1.862,0-3.136,1.19-.126,2.548-.252,3.766-.35a15.6682,15.6682,0,0,1-.1,1.666c-.042.266-.154.322-.434.322a8.6454,8.6454,0,0,1-1.274-.168l-.042,1.526a17.5576,17.5576,0,0,0,2.086.21c.714,0,1.064-.182,1.2-.91a24.2742,24.2742,0,0,0,.21-2.772c.406-.028.77-.042,1.064-.056.378-.014,1.106-.028,1.344-.014V37.44c-.406.028-.952.07-1.33.1-.322.014-.672.042-1.05.07.014-.462.028-.952.042-1.5a11.8089,11.8089,0,0,1,.084-1.19Zm7.966,0a10.3984,10.3984,0,0,1-.118,1.358,41.0869,41.0869,0,0,0-.574,5.782,16.7247,16.7247,0,0,0,.546,4.424l1.568-.112c-.014-.2-.014-.434-.014-.574a2.7307,2.7307,0,0,1,.07-.644,33.0523,33.0523,0,0,1,.994-3.3l-.854-.686c-.21.462-.434.924-.616,1.414a6.4036,6.4036,0,0,1-.056-.9,36.6649,36.6649,0,0,1,.658-5.362,11.6607,11.6607,0,0,1,.336-1.232Zm7,8.61c0,.812-.294,1.26-1.148,1.26-.728,0-1.288-.252-1.288-.812,0-.518.532-.84,1.316-.84a4.3252,4.3252,0,0,1,1.12.154Zm4.382.56a8.8009,8.8009,0,0,0-2.674-1.792c-.056-.938-.126-2.044-.154-3.388.756-.056,1.484-.14,2.156-.238V36.954c-.658.14-1.386.238-2.142.322,0-.616.028-1.134.042-1.442a8.8405,8.8405,0,0,1,.084-.9h-1.988a7.8587,7.8587,0,0,1,.084.91c.014.294.014.854.028,1.54-.322.014-.658.014-.98.014a22.9963,22.9963,0,0,1-2.422-.126v1.652c.826.056,1.61.084,2.422.084.322,0,.658,0,.994-.014.014.98.056,1.988.1,2.842a6.2234,6.2234,0,0,0-.91-.056c-1.89,0-3.08.966-3.08,2.38,0,1.456,1.2,2.268,3.108,2.268,1.876,0,2.632-.952,2.716-2.268a14.1356,14.1356,0,0,1,1.68,1.386Zm4.33-6.536c1.134.084,2.338.154,3.794.154,1.316,0,3.038-.1,4-.168V35.676c-1.064.112-2.646.2-4.018.2a36.3338,36.3338,0,0,1-3.78-.168Zm-.644,3.864a8.9155,8.9155,0,0,0-.28,2c0,1.9,1.6,2.968,4.774,2.968a21.1635,21.1635,0,0,0,4.816-.476l-.014-1.946a19.6581,19.6581,0,0,1-4.872.546c-2,0-2.842-.644-2.842-1.526a5.75,5.75,0,0,1,.238-1.4Zm23.324-5.5a33.3474,33.3474,0,0,1-5.124.658l.084-.42a14.4938,14.4938,0,0,1,.322-1.414l-1.96-.084a8.4877,8.4877,0,0,1-.07,1.4c-.014.168-.056.35-.084.56a19.6158,19.6158,0,0,1-2.716-.266V38.07c.7.07,1.512.126,2.394.14a22.4107,22.4107,0,0,1-1.582,4.644l1.638.588a4.0718,4.0718,0,0,1,.392-.6,4.7568,4.7568,0,0,1,3.836-1.638c1.344,0,2.072.7,2.072,1.526,0,2.044-3.066,2.408-6.1,1.918l.49,1.792c4.48.476,7.476-.644,7.476-3.766,0-1.764-1.484-2.968-3.724-2.968a6.7413,6.7413,0,0,0-3.444.868,24.4616,24.4616,0,0,0,.63-2.394c1.862-.1,4.06-.364,5.5-.588Zm7.9.392c1.078.28,4.172.924,5.572,1.106l.42-1.708a43.8807,43.8807,0,0,1-5.544-1.078Zm.532,1.106-1.876-.252a50.5,50.5,0,0,1-.686,5.782l1.61.406a2.9991,2.9991,0,0,1,.518-.812,4.86,4.86,0,0,1,3.822-1.624c1.218,0,2.072.658,2.072,1.554,0,1.764-2.2,2.786-6.356,2.2l.532,1.82c5.768.5,7.77-1.442,7.77-3.976,0-1.68-1.414-3.178-3.85-3.178a6.8,6.8,0,0,0-4.074,1.316c.094-.804.332-2.47.514-3.24Z"/><g id="グループ_12179" data-name="グループ 12179"><path id="パス_25110" data-name="パス 25110" class="cls-2" d="M93.216,33.0171H71l11.108,9.3271Z"/><path id="パス_25111" data-name="パス 25111" class="cls-2" d="M82.108,43.9508,71,34.6237v12.6H93.2151v-12.6Z"/></g><g id="グループ_12323" data-name="グループ 12323"><g id="グループ_12322" data-name="グループ 12322"><path id="パス_35629" data-name="パス 35629" class="cls-2" d="M300.818,36l6.876,4.057-6.876,4.0739Z"/></g></g></g></g></svg>