<svg xmlns="http://www.w3.org/2000/svg" xmlns:xlink="http://www.w3.org/1999/xlink" width="459.251" height="278.172" viewBox="0 0 459.251 278.172">
  <defs>
    <linearGradient id="linear-gradient" x1="6.628" y1="-1.186" x2="-2.543" y2="1.302" gradientUnits="objectBoundingBox">
      <stop offset="0" stop-color="#f2a1f8"/>
      <stop offset="1" stop-color="#006cff"/>
    </linearGradient>
    <linearGradient id="linear-gradient-2" x1="8.98" y1="-1.009" x2="-5.307" y2="1.531" xlink:href="#linear-gradient"/>
    <linearGradient id="linear-gradient-3" x1="7.756" y1="-0.875" x2="-5.956" y2="1.721" xlink:href="#linear-gradient"/>
    <linearGradient id="linear-gradient-4" x1="5.94" y1="-0.741" x2="-5.913" y2="1.874" xlink:href="#linear-gradient"/>
    <linearGradient id="linear-gradient-5" x1="5.364" y1="-0.417" x2="-7.171" y2="1.973" xlink:href="#linear-gradient"/>
    <linearGradient id="linear-gradient-6" x1="3.999" y1="-0.281" x2="-6.806" y2="2" xlink:href="#linear-gradient"/>
    <linearGradient id="linear-gradient-7" x1="4.337" y1="-0.197" x2="-10.797" y2="2.577" xlink:href="#linear-gradient"/>
    <linearGradient id="linear-gradient-8" x1="2.93" y1="0.018" x2="-9.847" y2="2.468" xlink:href="#linear-gradient"/>
    <linearGradient id="linear-gradient-9" y1="0.5" x2="1" y2="0.5" gradientUnits="objectBoundingBox">
      <stop offset="0" stop-color="#fff500"/>
      <stop offset="0.301" stop-color="#ffff64"/>
      <stop offset="0.727" stop-color="#cff"/>
      <stop offset="1" stop-color="#b4ffff"/>
    </linearGradient>
  </defs>
  <g id="keyvisual_logo" transform="translate(-762.629 -872.457)">
    <g id="グループ_14234" data-name="グループ 14234" transform="translate(989.772 1093.003)">
      <path id="パス_39108" data-name="パス 39108" d="M1034.7,1176.347a1.881,1.881,0,0,1-1.258-.195,1.487,1.487,0,0,1-.719-.841q-.2-.256-.578-.879a2.859,2.859,0,0,1-.44-1.273q-.022-1.743.084-3.39t.508-4.627a38.546,38.546,0,0,1,1.006-4.75q.65-2.318,1.259-4.171t.969-2.946q.36-1.094.195-1.081c-.145.013-.385.3-.718.852s-.714,1.233-1.141,2.033-.851,1.591-1.275,2.371-.784,1.421-1.076,1.918q-.9,1.768-2.063,3.748t-2.342,3.825q-1.178,1.846-2.049,3.228a16.493,16.493,0,0,0-1.272,1.663q-.737,1.071-1.589,2.234a12.613,12.613,0,0,1-1.728,1.946,4.95,4.95,0,0,1-2.476,1.462,2.257,2.257,0,0,1-1.944-.437q-.146-.207-.313-.493a2.113,2.113,0,0,1-.235-.772,2.592,2.592,0,0,1,.147-1.158,21.879,21.879,0,0,1,.22-2.392q.213-1.626.588-3.6t.768-3.8q.392-1.835.707-3.062.776-3.556,1.918-7.309t2.153-7.547a23.486,23.486,0,0,0,.993-2.566q.467-1.431.948-2.672a2.58,2.58,0,0,1,.676-1.666,1.4,1.4,0,0,1,1.141-.368,1.3,1.3,0,0,1,.954.6,3.07,3.07,0,0,1,.709,1.632,4.982,4.982,0,0,1-.7,2.951,62.759,62.759,0,0,0-2.63,6.742q-1.323,3.957-2.583,9.521-.326,1.336-.744,3.174t-.775,3.556q-.356,1.722-.53,2.883c-.117.773-.141,1.176-.07,1.206q.426.074,1.255-.788a9.378,9.378,0,0,0,1.534-2.23q2.54-3.924,5.08-8.2t4.883-8.458q1.055-1.671,2.165-3.647t2.108-3.642q1.06-1.727,1.933-3.137t1.489-2.335a3.012,3.012,0,0,1,.953-1.062,3.083,3.083,0,0,1,1.467.286,2.212,2.212,0,0,1,.948,1.367,1.751,1.751,0,0,1-.13.938,8.324,8.324,0,0,1-.475,1.186,13.1,13.1,0,0,1-.592,1.632,29.142,29.142,0,0,0-.954,2.755q-.666,1.528-1.192,3.019t-.766,2.438q-.627,2.4-1.51,5.283t-1.57,5.7a38.2,38.2,0,0,0-.921,5.016,20.216,20.216,0,0,0-.166,2.415,4.15,4.15,0,0,0,.189,1.348q.074.431.639.492a1.072,1.072,0,0,0,.985-.464q1.2-1.465,2.085-2.658t1.685-2.434q.806-1.239,1.69-2.788,1.567-2.641,3.264-5.868t3.282-6.414q1.583-3.189,2.752-5.578,1.274-3.053,2.045-4.865a22.085,22.085,0,0,1,1.332-2.731,4.023,4.023,0,0,1,1.134-1.3,1.375,1.375,0,0,1,.782-.284,1.263,1.263,0,0,1,.946.357,1.738,1.738,0,0,1,.355.652,2.326,2.326,0,0,1,.044,1.116q-.342.9-1.18,2.882t-1.9,4.361q-1.059,2.381-2.046,4.536t-1.69,3.471q-.692,1.2-1.3,2.074a3.146,3.146,0,0,0-.648,1.31,6.594,6.594,0,0,1-.655,1.391q-.637,1.172-1.611,2.837t-2.093,3.449q-1.12,1.787-2.107,3.287t-1.651,2.322a26.723,26.723,0,0,1-2.873,3.024,16.475,16.475,0,0,1-2.338,1.779A4.08,4.08,0,0,1,1034.7,1176.347Z" transform="translate(-1015.49 -1119.899)" fill="url(#linear-gradient)"/>
      <path id="パス_39109" data-name="パス 39109" d="M1060.833,1172.371a9.116,9.116,0,0,1-2.372-2.174,3.959,3.959,0,0,1-.489-2.006,15.348,15.348,0,0,1,.245-2.694q.272-1.714.625-3.382t.58-2.5a1.866,1.866,0,0,0,.316-1.226,4.7,4.7,0,0,1,.5-1.488,24.461,24.461,0,0,0,1.065-3.118q1.356-3.387,2.546-5.7a42.236,42.236,0,0,1,2.3-3.985q1.11-1.676,2.2-3.078,2.423-2.494,3.882-3.791a15.805,15.805,0,0,1,3.213-2.206,18.726,18.726,0,0,1,2.1-1.214,1.988,1.988,0,0,1,1.536-.238,6.472,6.472,0,0,1,4.383,2.115,10.62,10.62,0,0,1,1.779,5.5,37.415,37.415,0,0,1,.112,4.329,16.929,16.929,0,0,1-.611,3.871,23.212,23.212,0,0,1-1.727,4.264q-1.191,2.339-3.236,5.511a41.816,41.816,0,0,1-4.816,6.952,29.016,29.016,0,0,1-5.213,4.83,12.667,12.667,0,0,1-4.951,2.244A4.912,4.912,0,0,1,1060.833,1172.371Zm3.621-1.885a8.252,8.252,0,0,0,2.464-.971,14.167,14.167,0,0,0,2.544-1.986q1.352-1.285,3.08-3.233,1.551-1.766,2.542-2.969a19.34,19.34,0,0,0,1.711-2.408,22.573,22.573,0,0,0,1.427-2.9q.708-1.7,1.684-4.4.569-1.684.876-2.8a16.3,16.3,0,0,0,.438-2.083q.132-.966.207-2.228t.234-3.239a7.226,7.226,0,0,0-.225-1.919,3.514,3.514,0,0,0-.643-1.446,2.421,2.421,0,0,0-1.458-.723,3.529,3.529,0,0,0-2.207.485,8.244,8.244,0,0,0-1.791,1.377q-1.116,1.05-2.363,2.409t-2.363,2.763q-1.117,1.4-1.826,2.472a4.242,4.242,0,0,0-.741,1.453,1.831,1.831,0,0,1-.338.847,12.6,12.6,0,0,0-1.778,2.877q-1.005,2.049-1.971,4.613t-1.682,5.053a31.973,31.973,0,0,0-.97,4.311c-.154,1-.243,1.675-.274,2.041a1.3,1.3,0,0,0,.149.834q.2.285.62,1.067a1.591,1.591,0,0,0,1.052.73A2.95,2.95,0,0,0,1064.454,1170.486Z" transform="translate(-1019.811 -1119.554)" fill="url(#linear-gradient-2)"/>
      <path id="パス_39110" data-name="パス 39110" d="M1088.185,1170.293c-.022.256-.1.3-.228.128a4.661,4.661,0,0,0-.755-.7,1.683,1.683,0,0,1-.521-.939,6.189,6.189,0,0,1,.07-1.533q.373-1.287,1.281-3.792t2.106-5.278a17.466,17.466,0,0,1,.88-2.857c.006-.074.1-.172.295-.3a1.428,1.428,0,0,0,.481-.587c.152-.084.221-.281.211-.59a3.649,3.649,0,0,0-.058-.623,9.66,9.66,0,0,1,.551-1.792q.52-1.407,1.561-3.9t2.579-6.11a13.615,13.615,0,0,0,1.515-2.637c.32-.39.465-.639.439-.746s-.282-.3-.765-.591a5.731,5.731,0,0,1-.53-1.483,1.656,1.656,0,0,1,.441-1.456,4.892,4.892,0,0,1,.686-.767,11.335,11.335,0,0,1,1.075-.909q1.31-.764,1.956-1.064a2.577,2.577,0,0,1,1.608-.108c1.162-.061,2.047-.081,2.662-.059s1,.171,1.155.448a1.192,1.192,0,0,0,.539.365,1.688,1.688,0,0,0,.777.125,6.734,6.734,0,0,1,2.079.427,20.106,20.106,0,0,1,1.967.817,3.3,3.3,0,0,1,1.006.625,4.914,4.914,0,0,1,1.419,2.228,10.542,10.542,0,0,1,.549,3.61q-.1,1.264-.251,2.122a5.9,5.9,0,0,1-.6,1.715,16.354,16.354,0,0,1-1.419,2.138,30.657,30.657,0,0,1-4.821,5.671,44.75,44.75,0,0,1-6.731,5.176q-.128.229-.44.746a2.024,2.024,0,0,0,.558,1.153,15.381,15.381,0,0,0,1.517,1.673q.93.9,1.917,1.777a22.559,22.559,0,0,0,1.807,1.458,7.929,7.929,0,0,0,1.135.723,1.434,1.434,0,0,0,.85-.126,2.058,2.058,0,0,1,.962-.162q.428.046.355.98a1.744,1.744,0,0,1-.6,1.388,10.988,10.988,0,0,1-.82.75,7.631,7.631,0,0,1-.579.813.423.423,0,0,1-.549.073q-.339-.163-1.113-.643a8.557,8.557,0,0,1-3.58-1.992,27.823,27.823,0,0,1-3.337-3.649,17.9,17.9,0,0,0-1.634-1.582,2.4,2.4,0,0,0-1.013-.543,2.77,2.77,0,0,0-1.09.092,5.658,5.658,0,0,1-.895-.006,1.411,1.411,0,0,1-.913-.442c-.016-.253-.19-.429-.525-.529s-.514-.02-.535.236q-.063.115-.474,1.186t-.885,2.229a10.217,10.217,0,0,1-.781,1.62,4.455,4.455,0,0,1-.3,1.662q-.367,1.178-1.135,3.315a2.906,2.906,0,0,1-.323.982q-.22.373-.189-.011a1.006,1.006,0,0,0-.392-.185C1088.339,1170.062,1088.269,1170.14,1088.185,1170.293Zm11.424-15.311a36.9,36.9,0,0,0,3.692-2.765q1.861-1.575,3.395-3.122a20.789,20.789,0,0,0,2.332-2.706,4.188,4.188,0,0,0,.935-1.17,3.261,3.261,0,0,1,.756-.992q.485-.64.7-.959a.752.752,0,0,0-.017-.79,7.345,7.345,0,0,1,.125-.883,2.138,2.138,0,0,1,.393-.852q.68-1.694.269-2.314a3.5,3.5,0,0,0-1.726-1.11,2.4,2.4,0,0,0-.912-.47q-.659-.217-1.4-.4c-.495-.122-.885-.225-1.166-.311-.612-.057-1.221-.107-1.832-.146a5.911,5.911,0,0,0-1.412.036,2.079,2.079,0,0,0-.852.481,14.189,14.189,0,0,0-1.062,1.753,6.275,6.275,0,0,1-.552,1.466,2.386,2.386,0,0,1-.611.87c-.049.149-.275.7-.676,1.639s-.881,2.075-1.439,3.4-1.116,2.631-1.673,3.933-1.016,2.4-1.378,3.308a10.493,10.493,0,0,0-.56,1.576c-.005.074.162.232.5.476s.56.235.654-.028q.846.257,1.056.348l.779.427Z" transform="translate(-1022.729 -1119.36)" fill="url(#linear-gradient-3)"/>
      <path id="パス_39111" data-name="パス 39111" d="M1117.287,1167.673a1.436,1.436,0,0,1-1.134-.723,2.942,2.942,0,0,1-.482-1.433,3.18,3.18,0,0,0,.446-1.157,1.542,1.542,0,0,1,.368-.877,12.989,12.989,0,0,1,.443-1.456,13.853,13.853,0,0,0,.55-2.119,9.528,9.528,0,0,0,.827-1.843,11.682,11.682,0,0,1,.708-1.723,9.083,9.083,0,0,0,.471-1.132,3.919,3.919,0,0,1,.456-.966q.675-1.64,1.12-2.795a12.2,12.2,0,0,0,.648-2.319q.249-.4.476-.858a7.552,7.552,0,0,0,.456-1.293c.085-.153.328-.6.732-1.345a11.867,11.867,0,0,0,.989-2.511q.858-1.927,1.439-3.068t1.032-2.052q.453-.909.984-2.1.329-.737.881-2.2a3.635,3.635,0,0,1,.4-.962q.385-.741.948-1.662.5-.806.954-1.417t.619-.625a1.883,1.883,0,0,1,1.309.245,1.864,1.864,0,0,1,.817.968,1.273,1.273,0,0,1-.264,1.25q-.19.344-.772,1.511t-1.3,2.619q-.714,1.452-1.33,2.732t-.94,1.906q-.276.734-.952,2.072a18.443,18.443,0,0,0-1.11,2.685,7.807,7.807,0,0,0-1.164,2.335,8.332,8.332,0,0,1-.684,1.749c-.129.267-.259.532-.389.8a3.618,3.618,0,0,1-.376.632q-.326.682-.643,1.254a7.722,7.722,0,0,1-.163,1.024,2.539,2.539,0,0,1-.433.991,12.587,12.587,0,0,1-.656,1.419,2.987,2.987,0,0,1-.156.587c-.1.28-.189.553-.282.815q-.263.567-.821,2.115t-1.124,3.178q-.853,2.526-1.331,3.74a6.32,6.32,0,0,1-.807,1.6A1.114,1.114,0,0,1,1117.287,1167.673Zm21.695-4.875q-.073.225-.873.074a6.872,6.872,0,0,1-1.713-.594,5.431,5.431,0,0,1-1.514-1.047,12.849,12.849,0,0,1-2.133-1.785,22.833,22.833,0,0,1-2.181-2.547,18.289,18.289,0,0,1-1.679-2.7,8.071,8.071,0,0,1-.678-1.662c-.14-.515-.355-.762-.646-.738a.894.894,0,0,1-.791-.26,2.645,2.645,0,0,1-.68-.98,5.58,5.58,0,0,1-.385-1.277,1.813,1.813,0,0,1,.419-.827.929.929,0,0,1,.762-.364,5.077,5.077,0,0,1,.962-1.171q.947-1.006,2.394-2.466t3.061-3.013q1.616-1.553,3.019-2.818t2.211-1.876q.362-.468.571-.7c.138-.156.268-.3.386-.414a5.342,5.342,0,0,0,1.262-.87,3.952,3.952,0,0,0,.9-.759,3.35,3.35,0,0,0,.518-.725,6.359,6.359,0,0,0,.976-.682,13.573,13.573,0,0,1,1.435-.993,19.271,19.271,0,0,0,1.953-1.365,1.565,1.565,0,0,1,1.076.428,2.487,2.487,0,0,1,.723.786,2.086,2.086,0,0,1,.37.788c-.008.109-.166.269-.471.475a3.87,3.87,0,0,1-1.261,1.524,14.791,14.791,0,0,1-1.509.891,5.393,5.393,0,0,0-1.476,1.161,8.441,8.441,0,0,1-2.352,1.943,9.182,9.182,0,0,0-2.406,1.948q-1.29,1.2-2.583,2.454t-2.687,2.408q-.7.659-1.559,1.522t-2.335,2.406l.9,2.271q1.36,1.961,2.841,3.745a21.954,21.954,0,0,0,2.932,2.974,5.834,5.834,0,0,0,2.518,1.372,1.984,1.984,0,0,1,1.262,1.149.545.545,0,0,1,.381.649,1.64,1.64,0,0,1-.487,1A2.585,2.585,0,0,1,1138.982,1162.8Z" transform="translate(-1025.68 -1119.098)" fill="url(#linear-gradient-4)"/>
      <path id="パス_39112" data-name="パス 39112" d="M1155.5,1165.837q-.961-.194-2.13-.477a.425.425,0,0,0-.041-.488,1.039,1.039,0,0,0-.769-.208,5.328,5.328,0,0,1-1.4-1.11,7.39,7.39,0,0,1-1-1.362,8.5,8.5,0,0,1-.558-1.153,2.548,2.548,0,0,1-.273-.987c.029-.129.25-.3.666-.519q.636-.489.922-.35c.19.093.408.439.649,1.037a3.545,3.545,0,0,0,2.273,1.72,9.161,9.161,0,0,0,3.828.252,12.423,12.423,0,0,0,4.2-1.307,6.408,6.408,0,0,0,2.678-1.943,4.438,4.438,0,0,0-.547-2.983,5.853,5.853,0,0,0-.623-.657q-.429-.4-1.384-1.3-.79-.315-1.444-.588c-.439-.182-.9-.379-1.389-.593a14.5,14.5,0,0,1-2-1.116,14.721,14.721,0,0,1-2.166-1.7,6.723,6.723,0,0,1-1.428-1.789,4.1,4.1,0,0,1-1.125-2.171,8.382,8.382,0,0,1-.077-3.077,8.225,8.225,0,0,1,1.057-3.035,13.664,13.664,0,0,1,1.272-1.99q.88-1.191,1.958-2.428t2.077-2.249a12.665,12.665,0,0,1,1.635-1.447q.473-.476,1.53-1.492a.371.371,0,0,1,.349-.3c.19-.125.606-.34,1.246-.65a8.615,8.615,0,0,0,2.134-1.6q3.8-2.064,6.157-3.081a13.079,13.079,0,0,1,3.831-1.14,5.291,5.291,0,0,1,2.432.424,4.392,4.392,0,0,1,1.734,1.355,3.8,3.8,0,0,1,.72,2.177,5.258,5.258,0,0,1-.464,3.068,13.937,13.937,0,0,1-2.036,3.39,10.934,10.934,0,0,1-2.722,2.493,5.447,5.447,0,0,1-2.092.748q-.512-.038-.374-1.087a2.787,2.787,0,0,1,.385-1.069,16.132,16.132,0,0,1,1.838-2.283,17.594,17.594,0,0,0,2.46-4.3q.5-1.57-.573-1.645a3.069,3.069,0,0,0-1.173.1q-.854.182-1.879.458t-1.75.528c-.484.169-.728.289-.734.361-.017.22-.1.319-.24.294a5.708,5.708,0,0,0-.963.518q-.856.508-2.058,1.318l-2.407,1.62q-1.2.811-2.036,1.4a5.382,5.382,0,0,0-.9.7q-.157.615-1.344,1.2a8.663,8.663,0,0,0-2.147,2.089q-1,1.341-2.244,3.3a9.707,9.707,0,0,0-1.529,2.83,3.626,3.626,0,0,0-.188,2.335,4.933,4.933,0,0,0,1.509,2.111,15.063,15.063,0,0,0,3.334,2.339,34.776,34.776,0,0,1,3.163,1.782,14.589,14.589,0,0,1,2.271,1.746,4.765,4.765,0,0,1,1.15,1.541,5.7,5.7,0,0,1,.8,1.815,6.419,6.419,0,0,1,.178,1.813,5.318,5.318,0,0,1-.319,1.61,7.464,7.464,0,0,1-1.484,1.925,2.827,2.827,0,0,1-1.68,1.014,3.355,3.355,0,0,0-.931.46,4.577,4.577,0,0,1-.714.442,6.872,6.872,0,0,1-1.645.575,24.115,24.115,0,0,1-2.726.528Q1156.751,1165.787,1155.5,1165.837Z" transform="translate(-1029.103 -1118.542)" fill="url(#linear-gradient-5)"/>
      <path id="パス_39113" data-name="パス 39113" d="M1178.184,1166.291a2.3,2.3,0,0,0-1.128-.123,1.421,1.421,0,0,1-1.21-.8,2.232,2.232,0,0,1-.115-1.6,1.966,1.966,0,0,0,.376-.959,11.176,11.176,0,0,0,.174-1.161c.132-.3.223-.528.271-.677s.169-.524.361-1.122q.185-.943.675-2.649t1.084-3.693q.593-1.985,1.2-3.811t1.058-3.062a6,6,0,0,1,.63-1.417,2.524,2.524,0,0,0-.005-.6,6.452,6.452,0,0,1,.687-1.8,9.941,9.941,0,0,0,.462-1.348,7.108,7.108,0,0,0,.211-.946,6.467,6.467,0,0,0,.683-1.394q.438-1.1.911-2.232.345-.9.779-1.921t1.153-2.552q.019-.22.021-.275a23,23,0,0,0,1.138-2.333q.954-2.1,2.58-5.455.255-.457.6-1.032a2.379,2.379,0,0,0,.361-.794,1.045,1.045,0,0,1,.8-.5,1.793,1.793,0,0,1,.985.218,1.524,1.524,0,0,1,.718.841l.53.828-2.18,4.167q-.888,1.6-1.537,2.938a8.868,8.868,0,0,0-.668,1.558q-.741,1.808-1.251,3.078t-.861,2.283q-.688,1.8-1.24,2.942a6.913,6.913,0,0,0-.57,1.356q.008-.109,1.215-.293t3.069-.42q1.861-.238,3.805-.483t3.454-.481q1.508-.236,2.064-.392l2.809-.562,2.153-5.857q.508-1.625,1.315-3.875t1.424-3.884a13.752,13.752,0,0,1,1.513-3.292,1.752,1.752,0,0,1,1.195-.7,1.261,1.261,0,0,1,.724.1,1.1,1.1,0,0,1,.683.6,1.3,1.3,0,0,1,.576,1.261,5.6,5.6,0,0,1-1.015,2.159,21.946,21.946,0,0,0-1.543,3.349q-.662,1.8-1.185,2.937a2.584,2.584,0,0,1-.2,1.081,3.376,3.376,0,0,1-.437.719,4.614,4.614,0,0,0-.475.859q-.359.74-.662,1.474a4.882,4.882,0,0,0-.316.9,2.559,2.559,0,0,1-.186.97,2.287,2.287,0,0,1-.447.828q-.081.335-.517,1.708t-1.043,3.2q-.608,1.824-1.209,3.566t-1.126,2.878a1.956,1.956,0,0,1-.3.98,2.076,2.076,0,0,0-.3,1.034q-.272.678-.653,1.719a4.141,4.141,0,0,0-.349,1.312q-.322,1.282-.7,2.623t-.621,2.317q-.242.976-.255,1.14c-.12.155-.332.2-.633.135s-.648-.155-1.037-.268a2.03,2.03,0,0,1-1.152-1.159,3.154,3.154,0,0,1,.482-1.949,9.91,9.91,0,0,0,.8-2.251q.5-1.787,1.017-3.523.338-.848.781-2.3t.885-2.911q.442-1.455.772-2.521a4.986,4.986,0,0,1,.447-1.184c.011-.146.027-.329.044-.549a3.854,3.854,0,0,0-1.353-.023q-1.254.08-3.113.288t-3.865.543q-2.006.333-3.61.739c-.4.071-.86.127-1.369.17a10.442,10.442,0,0,0-1.2.155c-.4.033-.874.092-1.424.174q-.069.168-.447,1.183t-.875,2.447q-.494,1.434-1.023,2.951t-.9,2.723a16.73,16.73,0,0,0-.468,1.758q-.241,1-.692,2.54t-.93,3.107q-.478,1.567-.818,2.77T1178.184,1166.291Z" transform="translate(-1031.779 -1118.382)" fill="url(#linear-gradient-6)"/>
      <path id="パス_39114" data-name="パス 39114" d="M1217.666,1157.931a5.312,5.312,0,0,1-3.709-3.4q-.959-2.594.09-6.829a13.1,13.1,0,0,1,.747-2.9,20.71,20.71,0,0,0,.833-2.58,1.169,1.169,0,0,1,.137-.366.763.763,0,0,0,.093-.472q.136-.338.591-1.277t.906-1.823a6.571,6.571,0,0,1,.568-1,.572.572,0,0,0,.314-.517,5.181,5.181,0,0,1,.728-1.643,31.978,31.978,0,0,1,1.761-2.686q1.067-1.481,2.157-2.882t1.924-2.344q.834-.943,1.053-.962c.109-.009.2-.09.29-.243a.751.751,0,0,1,.24-.293,3.865,3.865,0,0,1,.9-.675c.475-.294,1.032-.614,1.677-.959s1.29-.671,1.949-.982a11.734,11.734,0,0,1,1.816-.7,5.042,5.042,0,0,1,3.991-.417,4.2,4.2,0,0,1,2.177,2.9,17.658,17.658,0,0,1,.412,5.968,16.093,16.093,0,0,0-.429,2.3,6.356,6.356,0,0,1-.317,1.582,18.511,18.511,0,0,1-.6,2.779q-.453,1.566-.87,2.719t-.587,1.223a.942.942,0,0,1-.143.422.85.85,0,0,0-.138.366,3.448,3.448,0,0,1-.484,1.3q-.516,1.025-1.214,2.285t-1.26,2.179q-.563.92-.672.929a.237.237,0,0,0-.185.288c.031.071-.112.265-.426.582s-.657.628-1.024.932a1.872,1.872,0,0,1-.825.479.157.157,0,0,0-.022.274q.045.106-.8.859t-2.115,1.706q-1.271.953-2.557,1.8a8.207,8.207,0,0,1-2.12,1.078.687.687,0,0,1-.346.275c-.11.028-.26.067-.444.119a2.7,2.7,0,0,1-1.163.644,4.928,4.928,0,0,1-1.535.21A4,4,0,0,1,1217.666,1157.931Zm4.967-4.456a12.8,12.8,0,0,0,2.5-1.492,24.492,24.492,0,0,0,2.529-2.123,5.734,5.734,0,0,0,1.423-1.838,4.08,4.08,0,0,1,.427-.936,2.178,2.178,0,0,1,.447-.5,10.64,10.64,0,0,0,1.251-1.743q.779-1.264,1.554-2.8t1.342-2.868a9.975,9.975,0,0,0,.672-1.939c.005-.073.085-.39.239-.948a4.937,4.937,0,0,1,.479-1.241,2.239,2.239,0,0,0,.211-.59q.082-.361.226-1.465t.393-3.526a29.317,29.317,0,0,0,.048-2.95q-.057-.978-.474-1.161c-.068-.067-.319-.083-.755-.046a12.3,12.3,0,0,0-1.372.2,4.529,4.529,0,0,0-1.11.34,1.726,1.726,0,0,0-.567.293,1.178,1.178,0,0,1-.615.243,2.066,2.066,0,0,0-.7.6,1.259,1.259,0,0,0-.258.512,1.289,1.289,0,0,1-.447.829.716.716,0,0,1-.879.155,3.56,3.56,0,0,0-1.335.412,2.852,2.852,0,0,0-.86.918l-1.21,1.9a10.879,10.879,0,0,0-2.374,2.547,7.573,7.573,0,0,0-.906,1.822q-1.314,2.184-2.005,3.361a12.19,12.19,0,0,0-1.008,2.076,17.224,17.224,0,0,0-.581,2.177,8.857,8.857,0,0,0-.87,2.037,7.929,7.929,0,0,1-.492,1.406,4.951,4.951,0,0,0-.256,1.168c-.085.589-.155,1.25-.215,1.982s-.086,1.4-.081,2a3.655,3.655,0,0,0,.146,1.215,1.45,1.45,0,0,0,1.663,1.225A9.1,9.1,0,0,0,1222.633,1153.475Z" transform="translate(-1035.63 -1118.357)" fill="url(#linear-gradient-7)"/>
      <path id="パス_39115" data-name="パス 39115" d="M1241.836,1159.129a2.243,2.243,0,0,0-.771-.208,2.289,2.289,0,0,1-.871-.281.786.786,0,0,1-.375-.706,1.9,1.9,0,0,1-.057-.322,2.566,2.566,0,0,1,.2-.754q.211-.59.644-1.936.418-1.126.728-1.972a8.04,8.04,0,0,0,.322-.955c.139.063.288.012.445-.146a2.085,2.085,0,0,0,.312-1.172,1.478,1.478,0,0,1,.195-.726,9.446,9.446,0,0,1,.543-1.028c.008-.11.083-.462.22-1.055s.286-1.188.442-1.783a49.178,49.178,0,0,1,1.978-4.7q1-2.049,1.512-2.964a3.613,3.613,0,0,1,.213-.618c.136-.34.29-.688.464-1.048a5.867,5.867,0,0,1,.383-.715,8.3,8.3,0,0,1,.4-1.316,13.451,13.451,0,0,1,.724-1.588,3.905,3.905,0,0,1,.765-1.074,4.327,4.327,0,0,1,.36-1.122q.335-.791.786-1.675t.827-1.515a2.753,2.753,0,0,1,.43-.636,4.657,4.657,0,0,1,.82-1.434,2.6,2.6,0,0,1,.715-1.479c.191-.562.311-.944.364-1.149s.009-.337-.13-.4q-.376-1.387.993-1.557c.218-.018.5-.349.84-1a1.624,1.624,0,0,1,1.113-.693q.8-.177,2.408-.639,1.05-.251,2.933-.737.764-.065,1.983-.057a14.2,14.2,0,0,1,1.913.112,6.056,6.056,0,0,1,2.811,2.111,5.054,5.054,0,0,1,.985,2.592,5.8,5.8,0,0,1-.349,1.966q-.4,1.316-.984,2.784a21.16,21.16,0,0,1-1.242,2.642,5.842,5.842,0,0,1-1.187,1.6q.277-.077-.267.623a12.909,12.909,0,0,1-1.336,1.449,4.314,4.314,0,0,1-1.184.891,5.553,5.553,0,0,1-1.614,1.881q-.686.439-1.465,1.023a5.775,5.775,0,0,0-1.268,1.279c.023-.292-.06-.384-.249-.279a3.433,3.433,0,0,0-.634.49,3.37,3.37,0,0,1-.58.458,19.665,19.665,0,0,1-2.528,1.44,14.718,14.718,0,0,1-2.374.881,1.858,1.858,0,0,1-.869.346c-.385.068-.76.118-1.123.148l-1.833-.119-1.4,3.228q-.833,2.253-1.542,4t-1.391,3.473q-.68,1.722-1.514,3.974a4.331,4.331,0,0,1-.809,1.978C1242.348,1159.268,1242.071,1159.328,1241.836,1159.129Zm8.972-19.852a13.57,13.57,0,0,0,3.554-.735,11.377,11.377,0,0,0,2.835-1.52,24.461,24.461,0,0,0,2.471-2.09q.47-.476,1.305-1.419t1.764-2.03q.926-1.087,1.594-1.962a9.585,9.585,0,0,0,1.475-2.825,15.314,15.314,0,0,0,.663-2.839,3.313,3.313,0,0,0-.125-1.817,2.293,2.293,0,0,0-1.892-1.07,7.174,7.174,0,0,0-2.659.359,11.634,11.634,0,0,0-2.53,1.14,4.7,4.7,0,0,0-1.057,1.344q-.776,1.211-1.762,3.013t-1.987,3.823q-1,2.021-1.857,3.866t-1.365,3.143A3.9,3.9,0,0,0,1250.808,1139.277Z" transform="translate(-1038.301 -1117.975)" fill="url(#linear-gradient-8)"/>
    </g>
    <g id="グループ_14243" data-name="グループ 14243" transform="translate(762.629 872.457)">
      <g id="グループ_14242" data-name="グループ 14242">
        <g id="グループ_14241" data-name="グループ 14241">
          <g id="グループ_14237" data-name="グループ 14237">
            <g id="グループ_14236" data-name="グループ 14236" transform="translate(51.221 0.016)">
              <g id="グループ_14235" data-name="グループ 14235">
                <rect id="長方形_3354" data-name="長方形 3354" width="3.762" height="55.82" transform="translate(0 0)"/>
                <rect id="長方形_3355" data-name="長方形 3355" width="3.762" height="55.82" transform="translate(287.343 158.515)"/>
                <rect id="長方形_3356" data-name="長方形 3356" width="3.776" height="55.82" transform="translate(70.393)"/>
                <path id="パス_39116" data-name="パス 39116" d="M952.893,872.48l-35.873,0v3.759l16.066,0-.021,52.04h3.776l.021-52.04,16.031,0Z" transform="translate(-829.553 -872.475)"/>
              </g>
            </g>
            <path id="パス_39117" data-name="パス 39117" d="M794.743,914.437v4.244a5.842,5.842,0,0,1-5.836,5.836H776.825l-.005,3.766h8.564v0h3.523a9.61,9.61,0,0,0,9.6-9.6V882.074a9.61,9.61,0,0,0-9.6-9.6h-3.523v0l-22.755,0,0,55.821h3.775l.006-52.043,18.972-.026v.01h3.523a5.843,5.843,0,0,1,5.836,5.836v32.363Z" transform="translate(-762.629 -872.459)"/>
            <path id="パス_39118" data-name="パス 39118" d="M984.564,970.341a9.61,9.61,0,0,0-9.6-9.6h-3.524v0l-22.754,0v55.82h3.775l.006-52.044,18.972-.026v.011h3.524a5.843,5.843,0,0,1,5.836,5.836v11.152a5.843,5.843,0,0,1-5.836,5.836H962.883l0,3.764h12.087a9.611,9.611,0,0,0,9.6-9.6Z" transform="translate(-781.553 -881.437)"/>
            <path id="パス_39119" data-name="パス 39119" d="M1073.9,1058.525a9.61,9.61,0,0,0-9.6-9.6h-3.524v0l-22.754,0v55.821h3.775l.006-52.043,18.972-.027v.011h3.524a5.843,5.843,0,0,1,5.836,5.836v11.152a5.843,5.843,0,0,1-5.836,5.836h-12.083l0,3.764H1064.3a9.61,9.61,0,0,0,9.6-9.6Z" transform="translate(-790.64 -890.406)"/>
            <path id="パス_39120" data-name="パス 39120" d="M855.976,898.771l-.005,3.777,17.116,0v11.887h-.015v4.244a5.843,5.843,0,0,1-5.836,5.836H850.563a5.843,5.843,0,0,1-5.836-5.836v-4.244h-.015l0-28.2h.013v-4.161a5.843,5.843,0,0,1,5.836-5.836h3.919v.015h8.743v-.016h4.009a5.843,5.843,0,0,1,5.836,5.836v7.295h3.763v-7.295a9.61,9.61,0,0,0-9.6-9.6h-4.009v0h-8.743v0h-3.919a9.61,9.61,0,0,0-9.6,9.6v4.161h-.027l0,28.2h.03v4.244a9.61,9.61,0,0,0,9.6,9.6h3.919v.013h8.743v-.014h4.009a9.61,9.61,0,0,0,9.6-9.6v-4.244h.03V898.773Z" transform="translate(-770.594 -872.459)"/>
            <path id="パス_39121" data-name="パス 39121" d="M989.462,877.867l-.013.006a7.586,7.586,0,0,0-14.527,0l-.006,0-16.5,50.408h3.958S978.561,878.8,978.6,878.7a3.836,3.836,0,0,1,7.17,0c.04.1.108.318.108.318l10.2,31.194-15.33.045-1.211,3.766,17.771-.051,4.68,14.311h3.959Z" transform="translate(-782.543 -872.459)"/>
            <path id="パス_39122" data-name="パス 39122" d="M1115.305,872.48l-35.873,0v3.759l16.066,0-.021,52.04h3.776l.021-52.04,16.031,0Z" transform="translate(-794.852 -872.459)"/>
            <path id="パス_39123" data-name="パス 39123" d="M1121.107,1048.942l-35.873,0v3.759l16.066,0-.021,52.04h3.776l.021-52.04,16.031,0Z" transform="translate(-795.442 -890.407)"/>
            <rect id="長方形_3357" data-name="長方形 3357" width="3.776" height="55.82" transform="translate(400.746 0.016)"/>
            <path id="パス_39124" data-name="パス 39124" d="M798.529,1000.388v-.719h-3.763v7.28a5.842,5.842,0,0,1-5.836,5.836H772.259a5.843,5.843,0,0,1-5.836-5.836V1002.7h-.013V974.6h.013v-4.244a5.843,5.843,0,0,1,5.836-5.836h12.663v0h4.008a5.843,5.843,0,0,1,5.836,5.836v7.28h3.763v-.719h.03V974.6h-.03v-4.259a9.61,9.61,0,0,0-9.6-9.6H772.259a9.61,9.61,0,0,0-9.6,9.6V974.5h-.027v.1h0l0,14.052,0,14.051h0v.1h.027v4.16a9.61,9.61,0,0,0,9.6,9.6H788.93a9.61,9.61,0,0,0,9.6-9.6v-6.576Z" transform="translate(-762.629 -881.437)"/>
            <path id="パス_39125" data-name="パス 39125" d="M798.529,1088.583v-.719h-3.763v7.28a5.842,5.842,0,0,1-5.836,5.836H772.259a5.843,5.843,0,0,1-5.836-5.836V1090.9h-.013v-28.1h.013v-4.244a5.843,5.843,0,0,1,5.836-5.836h12.663v0h4.008a5.843,5.843,0,0,1,5.836,5.836v7.281h3.763v-.72h.03V1062.8h-.03v-4.259a9.61,9.61,0,0,0-9.6-9.6H772.259a9.61,9.61,0,0,0-9.6,9.6v4.161h-.027v.1h0l0,14.052,0,14.052h0v.1h.027v4.161a9.61,9.61,0,0,0,9.6,9.6H788.93a9.61,9.61,0,0,0,9.6-9.6v-6.576Z" transform="translate(-762.629 -890.407)"/>
            <path id="パス_39126" data-name="パス 39126" d="M852.274,1062.8h-.03v-4.259a9.61,9.61,0,0,0-9.6-9.6H825.974a9.61,9.61,0,0,0-9.6,9.6v4.161h-.026v.1h0l0,14.052,0,14.052h0v.1h.026v4.161a9.61,9.61,0,0,0,9.6,9.6h16.671a9.61,9.61,0,0,0,9.6-9.6v-30.046h.03Zm-3.793,0v32.347a5.843,5.843,0,0,1-5.836,5.836H825.974a5.842,5.842,0,0,1-5.836-5.836V1090.9h-.013l0-14.052,0-14.052h.013v-4.244a5.843,5.843,0,0,1,5.836-5.836h12.662v0h4.009a5.843,5.843,0,0,1,5.836,5.836Z" transform="translate(-768.093 -890.407)"/>
            <path id="パス_39127" data-name="パス 39127" d="M1019.784,1062.8h-.03v-4.259a9.61,9.61,0,0,0-9.6-9.6H993.484a9.61,9.61,0,0,0-9.6,9.6v4.161h-.027v.1h0l0,14.052,0,14.052h0v.1h.027v4.161a9.61,9.61,0,0,0,9.6,9.6h16.671a9.61,9.61,0,0,0,9.6-9.6v-30.046h.03Zm-3.793,0v32.347a5.843,5.843,0,0,1-5.836,5.836H993.484a5.843,5.843,0,0,1-5.836-5.836V1090.9h-.013l0-14.052,0-14.052h.013v-4.244a5.843,5.843,0,0,1,5.836-5.836h12.663v0h4.008a5.843,5.843,0,0,1,5.836,5.836Z" transform="translate(-785.13 -890.407)"/>
            <path id="パス_39128" data-name="パス 39128" d="M1034.67,960.742V1002.7h-.015v4.244a5.843,5.843,0,0,1-5.836,5.836h-16.671a5.843,5.843,0,0,1-5.836-5.836V1002.7h-.015V960.742h-3.776V1002.7h.03v4.244a9.61,9.61,0,0,0,9.6,9.6h3.919v.014h8.743v-.015h4.009a9.61,9.61,0,0,0,9.6-9.6V1002.7h.03V960.742Z" transform="translate(-787.029 -881.437)"/>
            <path id="パス_39129" data-name="パス 39129" d="M1192.949,1048.939V1090.9h-.015v4.244a5.842,5.842,0,0,1-5.836,5.836h-16.671a5.843,5.843,0,0,1-5.836-5.836V1090.9h-.015v-41.962H1160.8V1090.9h.03v4.244a9.61,9.61,0,0,0,9.6,9.6h3.919v.013h8.744v-.014h4.008a9.61,9.61,0,0,0,9.6-9.6V1090.9h.03v-41.962Z" transform="translate(-803.127 -890.407)"/>
            <path id="パス_39130" data-name="パス 39130" d="M844.06,966.144l-.012.006a7.586,7.586,0,0,0-14.528,0l-.006,0-16.5,50.409h3.958s16.184-49.478,16.223-49.582a3.836,3.836,0,0,1,7.17,0c.04.1.109.318.109.318l10.2,31.194-15.33.044-1.211,3.767,17.771-.051,4.68,14.311h3.96Z" transform="translate(-767.754 -881.438)"/>
            <path id="パス_39131" data-name="パス 39131" d="M1031.828,924.522v-.005h-5.868a.484.484,0,0,1-.482-.482v-7.076h.015l.008-44.481h-3.78l-.005,44.481h0v8.909a2.419,2.419,0,0,0,2.412,2.412h7.7v.019l25.986,0v-3.776Z" transform="translate(-788.981 -872.459)"/>
            <path id="パス_39132" data-name="パス 39132" d="M1174.025,928.276l14.03-55.8h-3.879l-.946,3.763-11.145,44.323-12.09-48.086h-3.879l-12.09,48.087h0l-5.917-23.534-5.227-20.79-.946-3.763h-3.879l14.029,55.8h3.88l12.089-48.083,12.09,48.085h3.88Z" transform="translate(-799.797 -872.459)"/>
            <path id="パス_39133" data-name="パス 39133" d="M1262.142,872.457V924.5h-.678a3.584,3.584,0,0,1-2.655-1.795L1240.577,876.5a6.9,6.9,0,0,0-5.934-4.039h-4.608v55.8h3.763V876.22h.678a3.584,3.584,0,0,1,2.655,1.795l18.232,46.208a6.9,6.9,0,0,0,5.934,4.039h4.608v-55.8Z" transform="translate(-810.17 -872.457)"/>
            <path id="パス_39134" data-name="パス 39134" d="M904.768,1048.947v52.041h-.678a3.584,3.584,0,0,1-2.655-1.795L883.2,1052.986a6.9,6.9,0,0,0-5.934-4.039H872.66v55.8h3.763V1052.71h.678a3.584,3.584,0,0,1,2.655,1.795l18.232,46.208a6.9,6.9,0,0,0,5.934,4.039h4.608v-55.8Z" transform="translate(-773.82 -890.408)"/>
            <path id="パス_39135" data-name="パス 39135" d="M926.361,967.733c0-3.714-2.459-6.752-5.464-6.752h-5.465l-1.056,3.762-13.039,46.482-12.27-43.742c-1-3.576-4.283-6.5-7.289-6.5h-5.464v55.6h3.762V964.743h.753c2.282,0,4.193,1.881,4.838,4.18l13.368,47.657h4.6l14.541-51.837h1.043a3.1,3.1,0,0,1,3.377,3.377v48.46h3.762Z" transform="translate(-774.192 -881.461)"/>
          </g>
          <g id="グループ_14238" data-name="グループ 14238" transform="translate(263.87 79.305)">
            <path id="パス_39136" data-name="パス 39136" d="M1082.676,960.742h-4.008v0h-8.744v0h-3.919a9.61,9.61,0,0,0-9.6,9.6V981.5h3.749l0-11.161a5.842,5.842,0,0,1,5.836-5.836h3.931v.014h8.744v-.015h4.008a5.842,5.842,0,0,1,5.836,5.836v7.294h3.763v-7.294A9.61,9.61,0,0,0,1082.676,960.742Z" transform="translate(-1056.379 -960.742)"/>
            <path id="パス_39137" data-name="パス 39137" d="M1065.975,1020.53h4.008v0h8.744v0h3.918a9.61,9.61,0,0,0,9.6-9.6v-4.161h.027v-7H1088.5v7h-.013v4.161a5.842,5.842,0,0,1-5.836,5.836h-3.918v-.015h-8.744v.016h-4.008a5.842,5.842,0,0,1-5.836-5.836v-7.294h-3.763v7.294A9.61,9.61,0,0,0,1065.975,1020.53Z" transform="translate(-1056.376 -964.712)"/>
            <path id="パス_39138" data-name="パス 39138" d="M1084.706,990.31H1080.7v0h-4.34v3.776h4.34v-.016h4.008a5.842,5.842,0,0,1,5.836,5.836v5.79h3.763v-5.79A9.61,9.61,0,0,0,1084.706,990.31Z" transform="translate(-1058.408 -963.749)"/>
            <path id="パス_39139" data-name="パス 39139" d="M1066.005,992.778H1070v0h4.341V989H1070v.015h-4.008a5.842,5.842,0,0,1-5.836-5.836v-5.789h-3.749v5.789A9.61,9.61,0,0,0,1066.005,992.778Z" transform="translate(-1056.379 -962.435)"/>
          </g>
          <g id="グループ_14239" data-name="グループ 14239" transform="translate(149.186 158.539)">
            <path id="パス_39140" data-name="パス 39140" d="M955.007,1048.947H951v0h-8.744v0h-3.918a9.61,9.61,0,0,0-9.6,9.6v11.161h3.749l0-11.161a5.843,5.843,0,0,1,5.836-5.836h3.931v.015H951v-.016h4.008a5.843,5.843,0,0,1,5.836,5.836v7.3h3.763v-7.3A9.61,9.61,0,0,0,955.007,1048.947Z" transform="translate(-928.71 -1048.947)"/>
            <path id="パス_39141" data-name="パス 39141" d="M938.306,1108.735h4.008v0h12.663a9.609,9.609,0,0,0,9.6-9.6v-4.161h.027v-7h-3.776v7h-.013v4.161a5.843,5.843,0,0,1-5.836,5.836h-3.919v-.015h-8.744v.016h-4.008a5.843,5.843,0,0,1-5.836-5.836v-7.295h-3.763v7.295A9.61,9.61,0,0,0,938.306,1108.735Z" transform="translate(-928.707 -1052.917)"/>
            <path id="パス_39142" data-name="パス 39142" d="M957.037,1078.516h-4.008v0h-4.341v3.776h4.341v-.016h4.008a5.843,5.843,0,0,1,5.836,5.836v5.79h3.763v-5.79A9.61,9.61,0,0,0,957.037,1078.516Z" transform="translate(-930.739 -1051.954)"/>
            <path id="パス_39143" data-name="パス 39143" d="M938.336,1080.984h3.995v0h4.341v-3.776h-4.341v.016h-4.008a5.843,5.843,0,0,1-5.836-5.836v-5.79h-3.749v5.79A9.61,9.61,0,0,0,938.336,1080.984Z" transform="translate(-928.71 -1050.64)"/>
          </g>
          <path id="パス_39144" data-name="パス 39144" d="M1266.345,1055.692c0-3.714-2.459-6.753-5.465-6.753h-5.465l-1.056,3.763-13.039,46.482-12.271-43.743c-1-3.576-4.282-6.5-7.289-6.5H1216.3v55.6h3.763V1052.7h.752c2.282,0,4.194,1.881,4.839,4.18l13.368,47.656h4.6l14.542-51.836h1.043a3.1,3.1,0,0,1,3.376,3.377v48.459h3.763Z" transform="translate(-808.772 -890.407)"/>
          <g id="グループ_14240" data-name="グループ 14240" transform="translate(268.304 186.977)">
            <path id="パス_39145" data-name="パス 39145" d="M1061.313,1080.6l16.456,27.369h4.39l-16.456-27.369Z" transform="translate(-1061.313 -1080.605)"/>
          </g>
        </g>
      </g>
    </g>
    <g id="グループ_14246" data-name="グループ 14246" transform="translate(1074.297 951.762)">
      <g id="グループ_14245" data-name="グループ 14245" transform="translate(0.045 15.015)">
        <g id="グループ_14244" data-name="グループ 14244">
          <path id="パス_39146" data-name="パス 39146" d="M1110.09,986.744c2.978-.487,3.623-1.574,3.7-3.771h-4.156v-1.4h9.272v1.4h-3.565c-.171,2.9-1.145,4.438-4.642,5.129Zm6.736-7.994v1.393h-6.294V978.75Zm.951-.883a9.585,9.585,0,0,1,.7,2.321l-.895.294a9.2,9.2,0,0,0-.634-2.354Zm1.573-.271a9.59,9.59,0,0,1,.7,2.321l-.895.294a9.566,9.566,0,0,0-.634-2.344Z" transform="translate(-1109.637 -977.471)"/>
          <path id="パス_39147" data-name="パス 39147" d="M1125.023,983.849a13.531,13.531,0,0,0-3.283-1.359l.543-1.267a12.483,12.483,0,0,1,3.328,1.279Zm-2.638,2.412c4.258-.385,6.092-1.823,7.37-5.832l1.3.941c-1.585,4.359-3.861,5.932-8.333,6.522Zm3.612-5.118a15.893,15.893,0,0,0-3.362-1.29l.554-1.234a14.953,14.953,0,0,1,3.419,1.189Zm3.091-3.464a9.844,9.844,0,0,1,1.053,2.185l-.883.429a9.146,9.146,0,0,0-1-2.219Zm1.833-.045a9.492,9.492,0,0,1,1.008,2.207l-.883.408a9.769,9.769,0,0,0-.951-2.23Z" transform="translate(-1110.868 -977.475)"/>
          <path id="パス_39148" data-name="パス 39148" d="M1133.665,982.345a7.015,7.015,0,0,0,2.945-3.351h6.227c-.17,1.755-.714,7.5-7.677,9.262l-.77-1.37a9.194,9.194,0,0,0,4.654-2.446,16.469,16.469,0,0,0-3.068-1.982,7.347,7.347,0,0,1-1.325,1.03Zm3.952-1.97a11.442,11.442,0,0,1-.771,1.109,13.969,13.969,0,0,1,3.092,1.846,7.718,7.718,0,0,0,1.087-2.955Z" transform="translate(-1112.081 -977.613)"/>
          <path id="パス_39149" data-name="パス 39149" d="M1147.571,981.537c0,4.212-1.154,5.74-2.072,6.635l-1.143-1.144c1.053-1.132,1.72-2.275,1.72-5.366v-2.752h1.495Zm3.023,4.54c1.133-.5,2.275-1,2.786-3.951l1.427.611c-.464,2.038-1.484,4.994-5.719,5.22v-9.34h1.506Z" transform="translate(-1113.168 -977.575)"/>
          <path id="パス_39150" data-name="パス 39150" d="M1158.286,983.277a15.7,15.7,0,0,0-1.109-3.351l1.325-.374a16.1,16.1,0,0,1,1.188,3.329Zm-.191,3.589c4.811-.985,6.272-3.419,6.86-7.688l1.6.329a12.8,12.8,0,0,1-2.253,5.706,9.118,9.118,0,0,1-5.22,2.9Zm3.147-4.132a15.051,15.051,0,0,0-.95-3.4l1.336-.317a12.9,12.9,0,0,1,1.041,3.374Z" transform="translate(-1114.472 -977.616)"/>
          <path id="パス_39151" data-name="パス 39151" d="M1174.628,988.074h-1.608v-4.79a17.594,17.594,0,0,1-3.951,1.845l-.747-1.336a16.854,16.854,0,0,0,8.084-5.48l1.358.94a21.949,21.949,0,0,1-3.136,2.921Z" transform="translate(-1115.606 -977.544)"/>
          <path id="パス_39152" data-name="パス 39152" d="M1184.1,982.1a13.583,13.583,0,0,0-3.509-1.687l.691-1.3a15.244,15.244,0,0,1,3.635,1.6Zm-3.294,4.246c3.363-.272,6.511-1.392,7.96-6.7l1.324.928c-1.348,4.178-3.68,6.839-8.944,7.416Z" transform="translate(-1116.853 -977.625)"/>
          <path id="パス_39153" data-name="パス 39153" d="M1205.22,979.8l.113,1.415-3.544.34.192,1.879,4.041-.385.092,1.427-3.986.374.317,3.216-1.562.1-.317-3.17-4.1.4-.136-1.426,4.087-.385-.181-1.88-3.543.351-.113-1.426,3.51-.34-.182-1.811,1.562-.125.182,1.788Z" transform="translate(-1118.455 -977.548)"/>
          <path id="パス_39154" data-name="パス 39154" d="M1213.111,988.345l-1.415.158-.7-4.8-2.151.317-.182-1.325,2.14-.295-.271-1.845,1.382-.136.271,1.788,4.415-.6a5.389,5.389,0,0,1-2.252,4.574l-1.03-.94A3.684,3.684,0,0,0,1215,983.1l-2.627.384Z" transform="translate(-1119.709 -977.758)"/>
          <path id="パス_39155" data-name="パス 39155" d="M1222.56,982.1a13.581,13.581,0,0,0-3.509-1.687l.691-1.3a15.227,15.227,0,0,1,3.634,1.6Zm-3.294,4.246c3.362-.272,6.51-1.392,7.96-6.7l1.324.928c-1.348,4.178-3.679,6.839-8.944,7.416Z" transform="translate(-1120.766 -977.625)"/>
          <path id="パス_39156" data-name="パス 39156" d="M1233.656,979.042a20.662,20.662,0,0,1-2.762,8.74l-1.506-.77a17.9,17.9,0,0,0,2.706-8.186Zm4.031,8.525a29.541,29.541,0,0,0-2.627-8.2l1.4-.623a28.577,28.577,0,0,1,2.864,8.4Zm2.672-8.56a1.551,1.551,0,1,1-1.551-1.55A1.555,1.555,0,0,1,1240.359,979.007Zm-2.355,0a.8.8,0,1,0,.8-.8A.8.8,0,0,0,1238,979.007Z" transform="translate(-1121.817 -977.457)"/>
          <path id="パス_39157" data-name="パス 39157" d="M1251.007,979.033a11.552,11.552,0,0,1-2.026,4.71,34.578,34.578,0,0,1,3.679,3.193l-1.268,1.223a35.193,35.193,0,0,0-3.34-3.295,13.737,13.737,0,0,1-4.4,3.272l-.861-1.257a10.818,10.818,0,0,0,4.008-2.808,10.4,10.4,0,0,0,2.22-3.612h-5.6v-1.426Z" transform="translate(-1123.18 -977.617)"/>
          <path id="パス_39158" data-name="パス 39158" d="M1118.118,998.525v7.994h-8.254v-1.484h6.668v-5.049h-6.544v-1.461Z" transform="translate(-1109.66 -979.6)"/>
          <path id="パス_39159" data-name="パス 39159" d="M1124.671,1001.149a13.611,13.611,0,0,0-3.51-1.687l.691-1.3a15.246,15.246,0,0,1,3.634,1.6Zm-3.294,4.246c3.362-.272,6.51-1.393,7.959-6.7l1.325.929c-1.347,4.177-3.68,6.838-8.944,7.415Z" transform="translate(-1110.809 -979.563)"/>
          <path id="パス_39160" data-name="パス 39160" d="M1135.3,1002.121a13.8,13.8,0,0,0-2.05-3.125l1.3-.736a14.087,14.087,0,0,1,2.163,3Zm-1.257,3.724c3.656-.94,5.853-2.592,6.7-7.811l1.687.328c-.905,4.416-2.536,7.518-7.415,8.8Z" transform="translate(-1112.039 -979.55)"/>
          <path id="パス_39161" data-name="パス 39161" d="M1153.519,1002v1.574h-9.233V1002Z" transform="translate(-1113.161 -979.954)"/>
          <path id="パス_39162" data-name="パス 39162" d="M1159.8,1003a12.731,12.731,0,0,0-3.261-1.381l.544-1.258a11.673,11.673,0,0,1,3.317,1.291Zm-2.615,2.4c4.177-.4,6.148-1.721,7.518-6.249l1.291.951c-1.551,4.573-3.759,6.317-8.492,6.928Zm3.6-5.1a15.239,15.239,0,0,0-3.362-1.324l.565-1.223a13.142,13.142,0,0,1,3.408,1.2Z" transform="translate(-1114.408 -979.522)"/>
          <path id="パス_39163" data-name="パス 39163" d="M1177.99,997.908a5.984,5.984,0,0,1-3.42,5.049l-1.041-1.109c1.8-.826,2.264-1.63,2.557-2.491h-7.63v-1.449Zm-9.454,8.094c3.147-1.245,3.475-3.407,3.465-5.683l1.562.012c-.057,2.627-.475,5.219-4.03,6.9Z" transform="translate(-1115.62 -979.537)"/>
          <path id="パス_39164" data-name="パス 39164" d="M1178.794,1005.185h1.087a71.593,71.593,0,0,0,2.287-7.643l1.62.295a51.539,51.539,0,0,1-2.413,7.314c2.288-.068,2.526-.091,4.666-.26a22.28,22.28,0,0,0-1.653-2.774l1.3-.623a19.062,19.062,0,0,1,2.808,5.027l-1.495.668c-.192-.521-.26-.713-.385-1.02-2.57.283-3.69.408-7.643.578Z" transform="translate(-1116.671 -979.5)"/>
          <path id="パス_39165" data-name="パス 39165" d="M1203.175,998.1v1.415c0,3.533-1.165,6.873-6.86,7.677l-.6-1.4a7.149,7.149,0,0,0,4.619-1.891,6.665,6.665,0,0,0,1.223-4.382h-5.5v2.978H1194.5V998.1Z" transform="translate(-1118.269 -979.556)"/>
          <path id="パス_39166" data-name="パス 39166" d="M1214.835,1002v1.574H1205.6V1002Z" transform="translate(-1119.398 -979.954)"/>
          <path id="パス_39167" data-name="パス 39167" d="M1217.843,1005.893c3.08-.566,6.057-2.22,6.726-6.453h-3.545a9.2,9.2,0,0,1-2.875,2.932l-.962-1.121a7.266,7.266,0,0,0,2.841-3.2h6.283c-.18,2.276-.872,7.846-7.857,9.251Z" transform="translate(-1120.576 -979.551)"/>
          <path id="パス_39168" data-name="パス 39168" d="M1231.995,1003a12.747,12.747,0,0,0-3.261-1.381l.543-1.258a11.683,11.683,0,0,1,3.317,1.291Zm-2.616,2.4c4.178-.4,6.148-1.721,7.519-6.249l1.29.951c-1.551,4.573-3.759,6.317-8.491,6.928Zm3.6-5.1a15.237,15.237,0,0,0-3.362-1.324l.566-1.223a13.157,13.157,0,0,1,3.408,1.2Z" transform="translate(-1121.75 -979.522)"/>
          <path id="パス_39169" data-name="パス 39169" d="M1240.845,1004.119v-1.245h4.915v-1.517H1240.7v-1.268h6.488v6.986h-6.59v-1.313h5.163v-1.642Z" transform="translate(-1122.957 -979.759)"/>
          <path id="パス_39170" data-name="パス 39170" d="M1250.579,1003.615a11.069,11.069,0,0,0-.894-2.819l1.211-.329a11.623,11.623,0,0,1,.974,2.831Zm-.1,2.763c3.782-.826,5.027-2.333,5.718-6.261l1.472.329c-.612,2.819-1.563,5.955-6.24,7.076Zm2.616-3.307a13.373,13.373,0,0,0-.781-2.785l1.2-.249a11.261,11.261,0,0,1,.837,2.751Z" transform="translate(-1123.881 -979.754)"/>
          <path id="パス_39171" data-name="パス 39171" d="M1266.571,998.2l1.641,1.912a8.39,8.39,0,0,1-1.845,4.269,8.527,8.527,0,0,1-4.937,2.627l-.691-1.415c4.711-.826,5.559-3.476,5.922-5.91h-6.713V998.2Zm3.77-.137a1.551,1.551,0,1,1-1.551-1.55A1.547,1.547,0,0,1,1270.341,998.059Zm-2.355,0a.8.8,0,1,0,.8-.8A.8.8,0,0,0,1267.986,998.059Z" transform="translate(-1124.925 -979.395)"/>
        </g>
      </g>
      <rect id="長方形_3358" data-name="長方形 3358" width="145.905" height="7.009" transform="translate(0)" fill="url(#linear-gradient-9)"/>
      <rect id="長方形_3359" data-name="長方形 3359" width="145.905" height="7.009" transform="translate(0 48.722)" fill="url(#linear-gradient-9)"/>
    </g>
  </g>
</svg>
