<svg xmlns="http://www.w3.org/2000/svg" width="320.118" height="99.026" viewBox="0 0 320.118 99.026">
  <g id="keyvisual_date_pc" transform="translate(-932.713 -521.153)">
    <g id="グループ_14138" data-name="グループ 14138">
      <g id="グループ_14137" data-name="グループ 14137">
        <g id="グループ_14129" data-name="グループ 14129">
          <g id="グループ_14128" data-name="グループ 14128">
            <g id="グループ_14127" data-name="グループ 14127">
              <g id="グループ_14126" data-name="グループ 14126">
                <path id="パス_38692" data-name="パス 38692" d="M984.4,547.27v-3.063h3.063v3.063Z"/>
              </g>
              <path id="パス_38693" data-name="パス 38693" d="M954.577,530.8V544.58q0,2.7-2.848,2.7H948.39q-2.879,0-2.879-2.7V530.8q0-2.7,2.879-2.7h3.339Q954.577,528.1,954.577,530.8Zm-2.262,13.594V530.975a1,1,0,0,0-.183-.72,1.142,1.142,0,0,0-.736-.168h-2.7a.7.7,0,0,0-.888.888v13.416a.7.7,0,0,0,.888.888h2.7a1.134,1.134,0,0,0,.736-.169A1,1,0,0,0,952.315,544.391Z"/>
              <path id="パス_38694" data-name="パス 38694" d="M932.876,533.238h2.3v-2.112a1.115,1.115,0,0,1,.232-.832,1.248,1.248,0,0,1,.839-.207h1.438a1.227,1.227,0,0,1,.86.211,1.186,1.186,0,0,1,.211.828v1.43a6.313,6.313,0,0,1-.875,3.343l-4.971,9.369v2h8.3v-1.991h-5.717l4.52-8.436a9,9,0,0,0,1.073-4.194v-1.958c0-1.746-.911-2.595-2.783-2.595h-2.672c-1.851,0-2.751.849-2.751,2.595Z"/>
              <path id="パス_38695" data-name="パス 38695" d="M959.088,533.238h2.3v-2.112a1.119,1.119,0,0,1,.231-.832,1.25,1.25,0,0,1,.839-.207h1.439a1.225,1.225,0,0,1,.859.211,1.181,1.181,0,0,1,.211.828v1.43a6.313,6.313,0,0,1-.875,3.343l-4.971,9.369v2h8.3v-1.991H961.7l4.519-8.436a9,9,0,0,0,1.073-4.194v-1.958c0-1.746-.91-2.595-2.782-2.595h-2.672c-1.851,0-2.751.849-2.751,2.595Z"/>
            </g>
            <path id="パス_38696" data-name="パス 38696" d="M1026.529,547.27v-3.063h3.063v3.063Z"/>
          </g>
          <path id="パス_38697" data-name="パス 38697" d="M1000.747,546.926V521.153h-6.485v2.375h3.663v23.4Z"/>
          <path id="パス_38698" data-name="パス 38698" d="M1040.607,546.926V521.153h-6.485v2.375h3.664v23.4Z"/>
          <path id="パス_38699" data-name="パス 38699" d="M1054.781,546.926V521.153H1048.3v2.375h3.664v23.4Z"/>
          <path id="パス_38700" data-name="パス 38700" d="M1015.237,521.153h-4.54c-2.533,0-3.763,1.149-3.763,3.513v18.746c0,2.364,1.23,3.514,3.763,3.514h4.54c2.505,0,3.722-1.15,3.722-3.514V524.666C1018.959,522.3,1017.742,521.153,1015.237,521.153Zm.951,22a1.461,1.461,0,0,1-.3,1.091,1.656,1.656,0,0,1-1.1.269h-3.677a1.092,1.092,0,0,1-1.361-1.36V524.908a1.092,1.092,0,0,1,1.361-1.36h3.677a1.66,1.66,0,0,1,1.1.268,1.471,1.471,0,0,1,.3,1.092Z"/>
          <path id="パス_38701" data-name="パス 38701" d="M973.561,530.975v2.211h-2.293V530.8q0-2.7,2.848-2.7h2.818q2.879,0,2.879,2.7v4.839q0,1.625-1.225,1.9a1.573,1.573,0,0,1,1.225,1.776v5.268q0,2.7-2.879,2.7h-2.818q-2.849,0-2.848-2.7v-2.358h2.293v2.169a.994.994,0,0,0,.184.719,1.129,1.129,0,0,0,.735.169h2.152a1.129,1.129,0,0,0,.735-.169.994.994,0,0,0,.184-.719v-4.834a1,1,0,0,0-.184-.72,1.136,1.136,0,0,0-.735-.168h-2.24v-2.205h2.24a1.129,1.129,0,0,0,.735-.169,1,1,0,0,0,.184-.72v-4.6a1,1,0,0,0-.184-.72,1.136,1.136,0,0,0-.735-.168H974.48a1.136,1.136,0,0,0-.735.168A1,1,0,0,0,973.561,530.975Z"/>
        </g>
        <g id="グループ_14130" data-name="グループ 14130">
          <path id="パス_38702" data-name="パス 38702" d="M1083.308,528.132h2.386l-3.147,19.124h-3.6l-2.422-15.157-2.387,15.157h-3.6l-3.147-19.124h2.387l2.594,17.649,2.732-17.649h2.836l2.733,17.649Z"/>
          <path id="パス_38703" data-name="パス 38703" d="M1090.848,545.442h5.915v1.814h-8.3V528.132h8.059v1.814h-5.672V536.4h4.635v1.814h-4.635Z"/>
          <path id="パス_38704" data-name="パス 38704" d="M1099.357,528.132h6.814q2.731,0,2.733,2.429v14.266q0,2.43-2.733,2.429h-6.814Zm7.161,16.357V530.9c0-.409-.07-.671-.209-.784a1.494,1.494,0,0,0-.864-.169h-3.7v15.5h3.7a1.486,1.486,0,0,0,.864-.169Q1106.518,545.105,1106.518,544.489Z"/>
        </g>
        <g id="グループ_14136" data-name="グループ 14136">
          <path id="パス_38705" data-name="パス 38705" d="M1185.589,539.337v-2.144h5.669v2.144Z"/>
          <path id="パス_38706" data-name="パス 38706" d="M1221.21,535.385v-3.063h3.063v3.063Zm0,8.822v-3.063h3.063v3.063Z"/>
          <g id="グループ_14131" data-name="グループ 14131">
            <path id="パス_38707" data-name="パス 38707" d="M1201.186,528.1v19.174h-2.3v-17.2h-2.694V528.1Z"/>
          </g>
          <g id="グループ_14132" data-name="グループ 14132">
            <path id="パス_38708" data-name="パス 38708" d="M1141.148,541.407v2.07h-1.918v3.8h-2.262v-3.8h-6.755v-2.3l5.513-13.079h2.6l-5.72,13.3h4.358v-3.871h2.262v3.871Z"/>
          </g>
          <path id="パス_38709" data-name="パス 38709" d="M1146.329,535.385v-3.063h3.063v3.063Zm0,8.822v-3.063h3.063v3.063Z"/>
          <g id="グループ_14133" data-name="グループ 14133">
            <path id="パス_38710" data-name="パス 38710" d="M1125.929,528.1v19.174h-2.3v-17.2h-2.694V528.1Z"/>
          </g>
          <path id="パス_38711" data-name="パス 38711" d="M1177.95,530.8V544.58q0,2.7-2.848,2.7h-3.338q-2.88,0-2.88-2.7V530.8q0-2.7,2.88-2.7h3.338Q1177.95,528.1,1177.95,530.8Zm-2.262,13.594V530.975a1,1,0,0,0-.183-.72,1.142,1.142,0,0,0-.736-.168h-2.7a.7.7,0,0,0-.888.888v13.416a.7.7,0,0,0,.888.888h2.7a1.134,1.134,0,0,0,.736-.169A1,1,0,0,0,1175.688,544.391Z"/>
          <path id="パス_38712" data-name="パス 38712" d="M1164.775,530.8V544.58q0,2.7-2.848,2.7h-3.339q-2.879,0-2.879-2.7V530.8q0-2.7,2.879-2.7h3.339Q1164.774,528.1,1164.775,530.8Zm-2.262,13.594V530.975a1,1,0,0,0-.184-.72,1.138,1.138,0,0,0-.735-.168h-2.7a.7.7,0,0,0-.888.888v13.416a.7.7,0,0,0,.888.888h2.7a1.13,1.13,0,0,0,.735-.169A.994.994,0,0,0,1162.513,544.391Z"/>
          <path id="パス_38713" data-name="パス 38713" d="M1252.831,530.8V544.58q0,2.7-2.849,2.7h-3.338q-2.88,0-2.88-2.7V530.8q0-2.7,2.88-2.7h3.338Q1252.83,528.1,1252.831,530.8Zm-2.262,13.594V530.975a1,1,0,0,0-.184-.72,1.14,1.14,0,0,0-.735-.168h-2.7a.7.7,0,0,0-.889.888v13.416a.7.7,0,0,0,.889.888h2.7a1.133,1.133,0,0,0,.735-.169A1,1,0,0,0,1250.569,544.391Z"/>
          <path id="パス_38714" data-name="パス 38714" d="M1239.656,530.8V544.58q0,2.7-2.849,2.7h-3.338q-2.88,0-2.88-2.7V530.8q0-2.7,2.88-2.7h3.338Q1239.656,528.1,1239.656,530.8Zm-2.262,13.594V530.975a1,1,0,0,0-.184-.72,1.141,1.141,0,0,0-.736-.168h-2.7a.7.7,0,0,0-.888.888v13.416a.7.7,0,0,0,.888.888h2.7a1.134,1.134,0,0,0,.736-.169A1,1,0,0,0,1237.394,544.391Z"/>
          <g id="グループ_14135" data-name="グループ 14135">
            <g id="グループ_14134" data-name="グループ 14134">
              <path id="パス_38715" data-name="パス 38715" d="M1214.942,528.1v19.174h-2.3v-17.2h-2.694V528.1Z"/>
            </g>
            <path id="パス_38716" data-name="パス 38716" d="M1206.4,528.1v1.97h8.178V528.1Z"/>
          </g>
        </g>
      </g>
    </g>
    <rect id="長方形_3319" data-name="長方形 3319" width="88.056" height="27.601" transform="translate(1164.775 592.577)" fill="#fff"/>
    <g id="グループ_14139" data-name="グループ 14139">
      <path id="パス_38717" data-name="パス 38717" d="M941.991,573.762a9.248,9.248,0,0,0-1.922-1.091l.45-.589h-5.056c0,1.334,0,1.663-.069,2.546a5.647,5.647,0,0,0,1.784-2.2l.987.467a7.39,7.39,0,0,1-1.819,2.529l-.952-.78a14.634,14.634,0,0,1-1.351,5.715l-1.212-1.126a12.789,12.789,0,0,0,1.264-6.13v-7.757h6.424v-1.091h1.438v1.091h7.083v1.125h-5.248v1.039h4.277v2.857H935.463v.78H949.04a12.4,12.4,0,0,1-.451,2.943l-1.23-.242a10,10,0,0,0,.329-1.767h-6.441a9.152,9.152,0,0,1,1.4.814Zm6.528,6.667a24.35,24.35,0,0,1-6.666-1.125,21.953,21.953,0,0,1-6.147,1.09l-.365-1.125a24.3,24.3,0,0,0,4.988-.658,9,9,0,0,1-2.043-1.489,8.718,8.718,0,0,1-1.923,1l-.657-1a10.169,10.169,0,0,0,3.567-2.234.8.8,0,0,1-.693-.8v-1.368h1.161v.883c0,.191,0,.4.294.4h2.926c.364,0,.5-.243.71-1.2l1.108.312c-.207,1.142-.467,1.835-1.247,1.835h-2.7c-.242.26-.45.468-.779.779h6.164v.883a8.964,8.964,0,0,1-2.7,1.974,23.9,23.9,0,0,0,5.525.572Zm-10.112-13.957h-2.944v1.039h2.944Zm0,1.922h-2.944v1.091h2.944Zm.9,8.225a11.059,11.059,0,0,0,2.614,1.507,7.315,7.315,0,0,0,2.39-1.507Zm3.255-10.147h-2.91v1.039h2.91Zm0,1.922h-2.91v1.091h2.91Zm4.173,0h-2.944v1.091h2.944Zm.364,7.187a13.043,13.043,0,0,0-2.2-2.373l.831-.745a10,10,0,0,1,2.3,2.286Z" stroke="#000" stroke-miterlimit="10" stroke-width="0.192"/>
      <path id="パス_38718" data-name="パス 38718" d="M953.882,566.628v4.311a11.393,11.393,0,0,0,3.1-4.19l1.143.5a11.5,11.5,0,0,1-1.074,1.974v6.269H955.77v-4.589a7.086,7.086,0,0,1-1.057,1.039l-.831-.987v2.009c0,4.693-1,6.424-1.454,7.2l-1.161-1.212c1.195-1.645,1.248-5.558,1.248-6.026v-7.515h6.407v-1.091h1.437v1.091h7.082v1.212Zm.866,13.489-1.178-.744a7.691,7.691,0,0,0,1.75-2.944l1.16.381A9.625,9.625,0,0,1,954.748,580.117Zm4.468-4.779v-4.589a6.9,6.9,0,0,1-1.091.97l-.849-.883a9.291,9.291,0,0,0,3.135-4.07l1.177.4a6.6,6.6,0,0,1-.589,1.2h2.009a9.383,9.383,0,0,0,.624-1.593l1.281.295a12.926,12.926,0,0,1-.589,1.3h2.789V569.4h-2.945v1.057h2.754v.865h-2.754v1.04h2.7v.865h-2.7V574.3h3.273v1.039Zm3.394,4.831h-4.156a.99.99,0,0,1-1.126-1.091V576.9h1.351v1.767c0,.26.173.294.329.294h3.273c.381,0,.416-.381.555-1.42l1.3.4C963.926,579.84,963.649,580.169,962.61,580.169Zm-1.091-2.182a12.37,12.37,0,0,0-2.476-1.419l.762-.9a11.621,11.621,0,0,1,2.459,1.316Zm1.42-8.589h-2.476v1.057h2.476Zm0,1.922h-2.476v1.04h2.476Zm0,1.9h-2.476V574.3h2.476Zm3.481,6.823a14.387,14.387,0,0,0-2.511-3.134l1.074-.728a15.742,15.742,0,0,1,2.545,3Z" stroke="#000" stroke-miterlimit="10" stroke-width="0.192"/>
      <path id="パス_38719" data-name="パス 38719" d="M980.111,571.407a11.677,11.677,0,0,0,.243,2.286h5.438V574.8h-5.16a11.038,11.038,0,0,0,.743,1.818,10.442,10.442,0,0,0,1.576-1.385l1.143.589a12.313,12.313,0,0,1-2.043,1.87c.519.71,1.126,1.3,1.524,1.3.692,0,.936-.883,1.281-2.113l1.126.8c-.242,1.056-.9,2.787-2.216,2.787-.763,0-1.784-.588-2.824-2.043a15.719,15.719,0,0,1-4.172,1.68l-.641-1.195a12.1,12.1,0,0,0,4.156-1.576,12.176,12.176,0,0,1-.97-2.528h-4.329v1.351a23.918,23.918,0,0,0,2.8-.433l.052,1.091a25.429,25.429,0,0,1-2.857.5v1.974c0,.8-.624,1.056-1.229,1.056h-2.165l-.347-1.368,1.958.018c.259,0,.415-.035.415-.416v-1.108c-2.2.26-3.065.312-3.758.346l-.138-1.2c1.211-.034,2.615-.173,3.9-.312V574.8h-3.81v-1.108h3.81v-.97c-1.316.087-2.182.087-3.013.1L970.4,571.8a37.728,37.728,0,0,0,6.6-.5l.588.97a14.653,14.653,0,0,1-2.6.364v1.056h4.07a16.837,16.837,0,0,1-.312-2.286Zm-.38-5.783a9.181,9.181,0,0,0,.71-1.524l1.575.225a11.877,11.877,0,0,1-.675,1.3h3.845V566.7H978.5v1.056h6.164v.987H978.5v1.04h7.291v1.073H969.808V569.78h7.29v-1.04h-6.112v-.987H977.1V566.7h-6.614v-1.073h4.034a6.8,6.8,0,0,0-.814-1.265l1.507-.259c.311.5.744,1.142.935,1.524Zm3.723,8a12.173,12.173,0,0,0-2.113-1.7l.9-.866a11.707,11.707,0,0,1,2.182,1.593Z" stroke="#000" stroke-miterlimit="10" stroke-width="0.192"/>
      <path id="パス_38720" data-name="パス 38720" d="M1000.314,573.122A15.527,15.527,0,0,0,999.085,572a8.627,8.627,0,0,1-2.407,3.429h.26v.831h5.956V577.4h-5.956v1.3h7.273v1.178h-16.07V578.7h7.394v-1.3h-6.043v-1.143h6.043v-.831h1.108l-1.16-.884a6.617,6.617,0,0,0,2.563-3.324c-.727-.537-1.281-.866-1.732-1.143l.641-1.091c.779.433,1.073.623,1.473.883.068-.416.189-1.126.328-2.355h-2.009v-1.247h2.1c.034-.623.034-1.091.034-1.991h1.3c0,1.229-.034,1.679-.052,1.991h2.77a44.221,44.221,0,0,0-.328,4.814c0,.45.034,2.632.45,2.632.295,0,.433-1.2.52-2.043l.918.554c-.156,1.056-.433,3.273-1.525,3.273-1.3,0-1.627-1.611-1.627-4.641,0-1.506.086-2.718.139-3.342h-1.4a17.026,17.026,0,0,1-.5,3.151,16.731,16.731,0,0,1,1.593,1.4Zm-4,.051c-.311.035-2.857.312-3.134.347v1.229c0,.416,0,.987-1.091.987h-1.507l-.328-1.143,1.35.018c.329,0,.347-.1.347-.468v-.5c-.364.017-3.5.277-3.62.277l-.086-1.108c1.42-.035,2.6-.087,3.706-.191v-.883h.519a8.751,8.751,0,0,0,1.369-.606h-5.075v-.918h7.048v.831a16.113,16.113,0,0,1-2.632,1.3v.173c.294-.034,2.806-.259,3.134-.294Zm-4.415-8.1v-.8h1.351v.8h3.463v1h-8.382v-1Zm3.913,1.714v2.7H989.25v-2.7Zm-1.263.832H990.5v1.022h4.053Z" stroke="#000" stroke-miterlimit="10" stroke-width="0.192"/>
      <path id="パス_38721" data-name="パス 38721" d="M1013.608,564.273h1.541v4.242h7.378v1.437h-7.136c1.075,4.538,3.066,7.066,7.378,8.849l-.97,1.455a12.2,12.2,0,0,1-7.238-8.312,12.824,12.824,0,0,1-7.394,8.277l-.831-1.489a10.7,10.7,0,0,0,7.186-8.78h-7.03v-1.437h7.116Z" stroke="#000" stroke-miterlimit="10" stroke-width="0.192"/>
      <path id="パス_38722" data-name="パス 38722" d="M1038.037,571.061a19.635,19.635,0,0,1-4.4,2.822v.364h7.2v1.334h-7.2v3.411a1.27,1.27,0,0,1-1.42,1.333h-3.152l-.277-1.489,2.823.017c.537,0,.571-.138.571-.537v-2.735h-7.376v-1.334h7.376V572.81h.745a9.931,9.931,0,0,0,2.806-1.645h-8.139v-1.282h10.442Zm-1.68-4.018a25.178,25.178,0,0,0,1.3-2.857l1.507.5a17.659,17.659,0,0,1-1.23,2.355h2.512v3.827h-1.42v-2.545h-12.382v2.545h-1.42v-3.827h2.512a10.227,10.227,0,0,0-1.2-2.285l1.282-.5a9.567,9.567,0,0,1,1.334,2.458l-.866.329Zm-3.792-.017a14.914,14.914,0,0,0-1.316-2.459l1.333-.537a13.752,13.752,0,0,1,1.316,2.529Z" stroke="#000" stroke-miterlimit="10" stroke-width="0.192"/>
      <path id="パス_38723" data-name="パス 38723" d="M1059.209,577.745v1.472h-16.035v-1.472Zm-.813-12.277v1.454h-14.408v-1.454Zm-.884,5.87v1.437h-12.641v-1.437Z" stroke="#000" stroke-miterlimit="10" stroke-width="0.192"/>
      <path id="パス_38724" data-name="パス 38724" d="M1076.813,565.069v14.892h-14.58V565.069Zm-8.033,1.351h-5.127v5.264h5.127Zm0,6.58h-5.127v5.576h5.127Zm6.6-6.58h-5.212v5.264h5.212Zm0,6.58h-5.212v5.576h5.212Z" stroke="#000" stroke-miterlimit="10" stroke-width="0.192"/>
      <path id="パス_38725" data-name="パス 38725" d="M1093.831,567.355l.121,1.489-5.7.537.363,3.533,6.633-.641.1,1.489-6.58.623.554,5.23-1.61.087-.555-5.161-6.666.624-.121-1.472,6.632-.641-.364-3.515-5.679.537-.121-1.49,5.644-.536-.329-3.048,1.611-.139.329,3.031Z" stroke="#000" stroke-miterlimit="10" stroke-width="0.192"/>
      <path id="パス_38726" data-name="パス 38726" d="M1105.116,579.684l-1.471.156-1.178-7.6-3.464.52-.191-1.351,3.446-.5-.466-2.926,1.437-.156.449,2.874,7.014-1.022a8.221,8.221,0,0,1-3.585,6.581l-1.073-1.022a6.266,6.266,0,0,0,3-4l-5.143.779Z" stroke="#000" stroke-miterlimit="10" stroke-width="0.192"/>
      <path id="パス_38727" data-name="パス 38727" d="M1119.71,569.9a20.646,20.646,0,0,0-5.334-2.494l.779-1.385a21.743,21.743,0,0,1,5.421,2.424Zm-4.971,7.515c8.763-.468,11.343-6.6,12.538-10.477l1.35,1c-.831,2.459-3.6,10.546-13.576,11.2Z" stroke="#000" stroke-miterlimit="10" stroke-width="0.192"/>
      <path id="パス_38728" data-name="パス 38728" d="M1135.29,565.918c-.849,7.481-3.255,11.325-4.4,13.143l-1.525-.814c1.437-2.233,3.446-5.61,4.278-12.572Zm7.065,12.831a39.743,39.743,0,0,0-4.156-12.468l1.455-.692a40.724,40.724,0,0,1,4.416,12.745Zm3.671-12.848a2.407,2.407,0,1,1-2.407-2.408A2.4,2.4,0,0,1,1146.026,565.9Zm-3.741,0a1.334,1.334,0,1,0,1.334-1.334A1.346,1.346,0,0,0,1142.285,565.9Z" stroke="#000" stroke-miterlimit="10" stroke-width="0.192"/>
      <path id="パス_38729" data-name="パス 38729" d="M1160.357,565.831a18.659,18.659,0,0,1-3.307,7.117,67.9,67.9,0,0,1,5.888,5.2l-1.316,1.247a61.583,61.583,0,0,0-5.524-5.264,21.443,21.443,0,0,1-7.013,5.333l-.935-1.281a18.2,18.2,0,0,0,6.476-4.675,17.84,17.84,0,0,0,3.689-6.2h-9.3v-1.472Z" stroke="#000" stroke-miterlimit="10" stroke-width="0.192"/>
      <path id="パス_38730" data-name="パス 38730" d="M1165.841,577.832c1.819-.416,4.261-1.195,5.092-1.49V569.97h-5v-1.4h5v-4.311h1.472v16.069h-1.472v-2.511c-.364.139-2.788.987-4.659,1.49Zm10.46-13.576v5.575a24.381,24.381,0,0,0,4.554-3.186l.988,1.247a32.522,32.522,0,0,1-5.542,3.55v6.649c0,.4.121.52.623.52h2.667c.641,0,.987,0,.987-3.273l1.454.52c-.155,2.96-.224,4.19-1.9,4.19H1176.3c-.381,0-1.472,0-1.472-1.247V564.256Z" stroke="#000" stroke-miterlimit="10" stroke-width="0.192"/>
      <path id="パス_38731" data-name="パス 38731" d="M1191.1,565.762h3.672v-1.506h1.385v1.506h3.9v3.55h-1.334v-2.3h-6.3v1.3h5.992v4.849h-4.745v1.784h5.992v5.074h-7.325v-10.7h-1.23v-2.476l-.727,1.16a10.93,10.93,0,0,1-2.3-2.563,15.3,15.3,0,0,1-3.67,3.879l-.433-1.42a11.354,11.354,0,0,0,3.307-3.671h1.455a9.814,9.814,0,0,0,2.372,2.528Zm-1.818,9.888a25.232,25.232,0,0,1,2.044,3.636l-1.248.572a14.735,14.735,0,0,0-.64-1.386c-1.022.346-3.29,1.022-5.074,1.4l-.242-1.351c.121-.034.744-.155.934-.19v-9.455h2.182v-1.524h1.317v1.524h2.043v6.009h-4.243v3.134c.364-.086,1.23-.312,2.494-.675a10.414,10.414,0,0,0-.692-1.161Zm0-5.663h-2.927v1.385h2.927Zm0,2.373h-2.927v1.4h2.927Zm7.827-2.84h-3.446v2.459h3.446Zm1.2,6.615h-4.641v2.683h4.641Z" stroke="#000" stroke-miterlimit="10" stroke-width="0.192"/>
      <path id="パス_38732" data-name="パス 38732" d="M1203.408,577.433a10.19,10.19,0,0,0,2.649-6.441l1.472.156a12.64,12.64,0,0,1-2.857,7.428Zm7.983,2.182H1209.8V569.26h-5.992v-1.472h5.992v-2.823h1.593v2.823h6.026v1.472h-6.026Zm3.792-8.641a12.8,12.8,0,0,0,2.667,6.546l-1.3,1c-1.558-1.922-2.234-3.827-2.822-7.376Z" stroke="#000" stroke-miterlimit="10" stroke-width="0.192"/>
      <path id="パス_38733" data-name="パス 38733" d="M1234.122,571.459V573.1h-13.4v-1.645Z" stroke="#000" stroke-miterlimit="10" stroke-width="0.192"/>
      <path id="パス_38734" data-name="パス 38734" d="M1240.7,569.814c0,5.593-1.559,8.052-3.343,9.784l-1.143-1.16c1.923-1.922,2.944-3.9,2.944-8.5v-4.346h1.542Zm4.519,7.55c2.13-.658,4.347-1.334,5.281-6.667l1.473.623c-.763,3.464-2.182,7.429-8.312,7.966V565.1h1.558Z" stroke="#000" stroke-miterlimit="10" stroke-width="0.192"/>
      <path id="パス_38735" data-name="パス 38735" d="M1188.2,603.094v1.247h-4.64a11.64,11.64,0,0,0,4.761,2.823l-.675,1.35a13.636,13.636,0,0,1-5.767-4.173h-3.411a14.6,14.6,0,0,1-5.9,3.81l-.607-1.3a11.8,11.8,0,0,0,4.675-2.511h-4.5v-1.247h5.679a7.2,7.2,0,0,0,.763-1.212c-.866.017-4.624.069-5.387.069l-.121-1.247c.312,0,2.581.018,2.754.018a18.545,18.545,0,0,0,1.627-2.823l1.49.26a18.246,18.246,0,0,1-1.594,2.563c3.222,0,4.537,0,6.65-.156a13.038,13.038,0,0,0-1.766-1.351l.9-.918a22.046,22.046,0,0,1,3.982,3.238l-1.057.987a10.566,10.566,0,0,0-.952-.987c-1.818.191-4.208.3-5.021.312a7.092,7.092,0,0,1-.676,1.247Zm-14.46,9.541c6.547-.311,9.473-2.112,11.62-3.861l1.057.935c-1.473,1.264-4.589,3.706-12.191,4.277Zm.382-2.406a17.629,17.629,0,0,0,8.693-3.2l1,.9a20.246,20.246,0,0,1-9.108,3.55Zm.294-2.286a16.008,16.008,0,0,0,6.113-2.7l.917.866c-1.177.987-2.718,2.009-6.441,2.961Z" stroke="#000" stroke-miterlimit="10" stroke-width="0.192"/>
      <path id="パス_38736" data-name="パス 38736" d="M1194.251,597.917h1.4v3.064h3.618c-.1,8.1-.121,10.339-.554,11.654a1.74,1.74,0,0,1-1.991,1.317h-1.767l-.242-1.455,1.905.017c.4,0,.658-.052.831-.917.33-1.611.33-2.979.4-9.213h-2.2c0,6.528-1.455,9.715-3.534,11.6l-1.039-1.177c1.7-1.715,3.169-3.983,3.169-10.425h-2.857v-1.4h2.857Zm12.5,1.073v14.667h-6.112V598.99Zm-1.42,1.351h-3.307v11.966h3.307Z" stroke="#000" stroke-miterlimit="10" stroke-width="0.192"/>
      <path id="パス_38737" data-name="パス 38737" d="M1226.039,599.406v1.247h-1.681v2.788h2.217v1.246h-2.217v2.961h1.785v1.23h-15.17v-1.23h1.957v-2.961h-2.372v-1.246h2.372v-2.062a7.324,7.324,0,0,1-1.627,1.161l-.954-1.126a8.852,8.852,0,0,0,3.845-3.688l1.333.381a7.394,7.394,0,0,1-.779,1.3Zm-15.481,13.68a9.559,9.559,0,0,0,2.147-3.516l1.333.364A11,11,0,0,1,1211.8,614Zm5.749-12.433h-2.079v2.788h2.079Zm0,4.034h-2.079v2.961h2.079Zm-.433,9.039a14.192,14.192,0,0,0,.086-1.766,13.663,13.663,0,0,0-.121-2.147l1.3-.017a21.555,21.555,0,0,1,.207,3.93Zm3.757-13.073h-2.06v2.788h2.06Zm0,4.034h-2.06v2.961h2.06Zm.5,9.039a16.954,16.954,0,0,0-.936-3.965l1.3-.121a15.927,15.927,0,0,1,1.109,3.965Zm2.926-13.073h-2.182v2.788h2.182Zm0,4.034h-2.182v2.961h2.182Zm2.182,9.3a19.089,19.089,0,0,0-2.424-4.018l1.246-.571a20.526,20.526,0,0,1,2.511,3.775Z" stroke="#000" stroke-miterlimit="10" stroke-width="0.192"/>
      <path id="パス_38738" data-name="パス 38738" d="M1229.809,604.791v-1.264h3.134v-5.593h1.385v5.593h2.84v1.264h-2.84a11.531,11.531,0,0,0,2.338,3.29l-.831,1.23a13.24,13.24,0,0,1-1.507-2.459v7.134h-1.385v-7.065a15.446,15.446,0,0,1-2.719,4.156l-.589-1.489a15.463,15.463,0,0,0,3.221-4.8Zm.917-2.078a15.8,15.8,0,0,0-.849-3.533l1.143-.311a18.033,18.033,0,0,1,.953,3.5Zm4.329-.363a14.312,14.312,0,0,0,1.039-3.5l1.264.259a14.059,14.059,0,0,1-1.16,3.637Zm10.667,4.692.191,1.351-1.7.363v5.23h-1.473v-4.935l-6.043,1.264-.225-1.3,6.268-1.333v-9.749h1.473v9.437Zm-5.143-.381a11.791,11.791,0,0,0-3.013-2.511l.832-1.039a13.475,13.475,0,0,1,3.116,2.459Zm.5-4.467a14.874,14.874,0,0,0-2.978-2.563l.831-.987A13.974,13.974,0,0,1,1242,601.1Z" stroke="#000" stroke-miterlimit="10" stroke-width="0.192"/>
    </g>
  </g>
</svg>
