<svg xmlns="http://www.w3.org/2000/svg" width="1718.664" height="687.341" viewBox="0 0 1718.664 687.341">
  <g id="keyvisual_logo" transform="translate(-425.906 -2109.794)">
    <g id="グループ_13208" data-name="グループ 13208" transform="translate(425.906 2109.794)">
      <g id="グループ_13206" data-name="グループ 13206" transform="translate(194.012 0.058)">
        <g id="グループ_13205" data-name="グループ 13205">
          <rect id="長方形_3076" data-name="長方形 3076" width="13.465" height="199.812" transform="translate(0 0.003)"/>
          <rect id="長方形_3077" data-name="長方形 3077" width="13.517" height="199.812" transform="translate(273.119)"/>
          <path id="パス_36358" data-name="パス 36358" d="M709.2,2109.825l-128.411-.014v13.456l57.509.006-.074,186.279,13.515,0,.076-186.28,57.385.006Z" transform="translate(-239.974 -2109.809)"/>
          <g id="グループ_13204" data-name="グループ 13204" transform="translate(805.391 182.095)">
            <path id="パス_36359" data-name="パス 36359" d="M715.323,2162.544h0Z" transform="translate(-715.323 -2162.543)"/>
          </g>
        </g>
      </g>
      <g id="グループ_13207" data-name="グループ 13207" transform="translate(1380.067 283.912)">
        <path id="パス_36360" data-name="パス 36360" d="M936.675,2211.315l-.042.02a27.156,27.156,0,0,0-52,0l-.024-.01-59.046,180.442h14.168s57.927-177.113,58.069-177.482a13.73,13.73,0,0,1,25.667,0c.142.37.387,1.136.387,1.136l36.528,111.661-54.878.16-4.334,13.48,63.611-.182,16.755,51.228H995.7Z" transform="translate(-825.559 -2192.012)"/>
      </g>
      <path id="パス_36361" data-name="パス 36361" d="M540.858,2260.014v15.194a20.912,20.912,0,0,1-20.892,20.888H476.716l-.017,13.481h30.654v-.01h12.614a34.4,34.4,0,0,0,34.359-34.358V2144.17a34.4,34.4,0,0,0-34.359-34.359H507.352v.017l-81.446-.01,0,199.811,13.512,0,.021-186.294,67.91-.094v.038h12.614a20.913,20.913,0,0,1,20.892,20.889v115.843Z" transform="translate(-425.906 -2109.752)"/>
      <path id="パス_36362" data-name="パス 36362" d="M733.291,2226.36A34.4,34.4,0,0,0,698.932,2192H686.317v.014l-81.446-.008,0,199.811,13.512,0,.021-186.294,67.91-.093v.038h12.615a20.912,20.912,0,0,1,20.892,20.888v39.922a20.914,20.914,0,0,1-20.892,20.892H655.684l-.017,13.475h43.265a34.4,34.4,0,0,0,34.359-34.367Z" transform="translate(13.124 -1908.124)"/>
      <path id="パス_36363" data-name="パス 36363" d="M558.794,2203.938l-.021,13.519,61.269.007,0,42.55h-.056v15.194a20.912,20.912,0,0,1-20.891,20.888H584.744v0l-31.3,0H539.418a20.912,20.912,0,0,1-20.892-20.888v-15.194h-.055l.01-100.951h.045V2144.17a20.913,20.913,0,0,1,20.892-20.889h14.027v.052l31.3,0v-.056h14.348a20.912,20.912,0,0,1,20.891,20.889v26.112h13.471V2144.17a34.4,34.4,0,0,0-34.362-34.359H584.744v.01l-31.3,0v-.007H539.418a34.4,34.4,0,0,0-34.359,34.359v14.893h-.1l-.01,100.951h.107v15.194a34.4,34.4,0,0,0,34.359,34.358h14.027v.049l31.3,0v-.053h14.348a34.4,34.4,0,0,0,34.362-34.358v-15.194h.1l.007-56.066Z" transform="translate(-231.993 -2109.752)"/>
      <path id="パス_36364" data-name="パス 36364" d="M732.356,2129.114l-.042.021a27.156,27.156,0,0,0-52,0l-.024-.01L621.24,2309.566h14.168s57.93-177.109,58.072-177.482a13.729,13.729,0,0,1,25.664,0c.142.373.387,1.141.387,1.141l36.528,111.661-54.877.158-4.334,13.482,63.615-.187,16.751,51.228h14.172Z" transform="translate(53.28 -2109.752)"/>
      <path id="パス_36365" data-name="パス 36365" d="M866.142,2109.825l-128.411-.014v13.456l57.509.006-.074,186.279,13.515,0,.076-186.28,57.385.006Z" transform="translate(339.053 -2109.751)"/>
      <rect id="長方形_3078" data-name="長方形 3078" width="13.517" height="199.812" transform="translate(1511.189 0.058)"/>
      <path id="パス_36366" data-name="パス 36366" d="M554.406,2333.913v-2.574H540.939V2357.4a20.915,20.915,0,0,1-20.892,20.892H505.7v-.006l-31.3,0v0H460.373a20.915,20.915,0,0,1-20.892-20.892v-15.193h-.045l-.007-50.3.007-50.3h.045v-15.19a20.916,20.916,0,0,1,20.892-20.892H474.4l31.3,0v0h14.348a20.916,20.916,0,0,1,20.892,20.892v26.058h13.467V2249.9h.107v-8.295h-.107v-15.245A34.4,34.4,0,0,0,520.047,2192H505.7l-31.3,0v0H460.373a34.4,34.4,0,0,0-34.359,34.359v14.894h-.1v.352h-.01l0,50.3,0,50.3h.01v.353h.1v14.893a34.4,34.4,0,0,0,34.359,34.359H474.4v0l31.3,0h14.348a34.4,34.4,0,0,0,34.359-34.359v-23.539Z" transform="translate(-425.903 -1908.12)"/>
      <path id="パス_36367" data-name="パス 36367" d="M771.988,2192v150.2h-.055V2357.4a20.912,20.912,0,0,1-20.892,20.889H736.693v0l-31.3,0H691.367a20.913,20.913,0,0,1-20.892-20.889V2342.2h-.055V2192H656.9l0,150.2h.107V2357.4a34.4,34.4,0,0,0,34.359,34.359h14.027v.048l31.3,0v-.052h14.348A34.4,34.4,0,0,0,785.4,2357.4V2342.2h.107l0-150.2Z" transform="translate(140.763 -1908.124)"/>
      <path id="パス_36368" data-name="パス 36368" d="M585.847,2211.315l-.042.02a27.156,27.156,0,0,0-52,0l-.024-.01-59.046,180.442H488.9s57.927-177.113,58.068-177.482a13.73,13.73,0,0,1,25.667,0c.142.37.387,1.136.387,1.136l36.528,111.661-54.878.16-4.334,13.48,63.61-.182,16.755,51.228h14.172Z" transform="translate(-306.13 -1908.1)"/>
      <path id="パス_36369" data-name="パス 36369" d="M718.282,2296.108v-.018H697.277a1.73,1.73,0,0,1-1.727-1.726v-25.329h.055l.028-159.223H682.1l-.017,159.223h0v31.893a8.658,8.658,0,0,0,8.633,8.633h27.566v.066l93.018.006v-13.516Z" transform="translate(202.538 -2109.747)"/>
      <path id="パス_36370" data-name="パス 36370" d="M814.881,2378.3v-.018h-21a1.731,1.731,0,0,1-1.726-1.726v-25.329h.055L792.235,2192l-13.529,0-.017,159.225h0v31.89a8.658,8.658,0,0,0,8.633,8.633h27.563v.065l93.018.01v-13.519Z" transform="translate(439.519 -1908.124)"/>
      <path id="パス_36371" data-name="パス 36371" d="M978.814,2329.42h-.01v-8.751a34.345,34.345,0,0,0-16.986-29.593,34.258,34.258,0,0,0,11.585-25.657v-39.055A34.4,34.4,0,0,0,939.044,2192H901.156v13.467h37.888a20.916,20.916,0,0,1,20.892,20.892v39.055a20.915,20.915,0,0,1-20.892,20.892H904.036v13.468h40.409a20.915,20.915,0,0,1,20.892,20.891v10.273h.01v15.48h-.107V2357.4a20.914,20.914,0,0,1-20.891,20.892H901.111v13.468h43.81v-.028a34.386,34.386,0,0,0,33.786-34.332v-10.111h.107Z" transform="translate(739.85 -1908.12)"/>
      <path id="パス_36372" data-name="パス 36372" d="M937.209,2192.008l-50.813,0,0,199.812h13.512l.022-186.294,37.275-.052Z" transform="translate(703.751 -1908.12)"/>
      <path id="パス_36373" data-name="パス 36373" d="M951.032,2309.553l50.222-199.742H987.368l-3.387,13.469-39.893,158.658L900.81,2109.811H886.927L843.65,2281.939h0L822.47,2197.7l-18.711-74.419-3.386-13.469H786.486L836.7,2309.547h13.89l43.273-172.117,43.278,172.121,0,0h13.889Z" transform="translate(458.657 -2109.751)"/>
      <path id="パス_36374" data-name="パス 36374" d="M1001.361,2109.794v186.288h-2.427c-2.587,0-8.115-2.894-9.507-6.427l-65.261-165.406c-3.135-7.949-12.694-14.455-21.24-14.455h-16.5V2309.55H899.9V2123.265h2.427c2.583,0,8.111,2.89,9.5,6.422l65.261,165.407c3.136,7.949,12.694,14.456,21.24,14.456h16.5V2109.794Z" transform="translate(703.835 -2109.794)"/>
      <path id="パス_36375" data-name="パス 36375" d="M714.724,2216.4c0-13.3-8.806-24.173-19.562-24.173H675.6l-3.778,13.468-46.673,166.384L581.225,2215.5c-3.591-12.8-15.332-23.271-26.092-23.271H535.574V2391.24h13.468V2205.692h2.694c8.167,0,15.011,6.733,17.321,14.963L616.91,2391.24h16.475l52.049-185.548h3.733c7.6,0,12.086,4.489,12.086,12.086V2391.24h13.471Z" transform="translate(-156.872 -1907.576)"/>
      <path id="パス_36376" data-name="パス 36376" d="M803.02,2192H788.672v.009l-31.3,0V2192H743.346a34.4,34.4,0,0,0-34.359,34.358l0,39.953h13.422l0-39.953a20.912,20.912,0,0,1,20.892-20.888h14.072v.051l31.3,0v-.055H803.02a20.912,20.912,0,0,1,20.892,20.888v26.113H837.38V2226.36A34.4,34.4,0,0,0,803.02,2192Z" transform="translate(268.531 -1908.124)"/>
      <path id="パス_36377" data-name="パス 36377" d="M743.315,2302.656h14.348v-.006h31.3v.006h14.027a34.4,34.4,0,0,0,34.362-34.359V2253.4h.093l0-25.06H823.929v25.06h-.049V2268.3a20.915,20.915,0,0,1-20.891,20.892H788.962v-.056l-31.3,0v.06H743.315a20.916,20.916,0,0,1-20.892-20.892v-26.113H708.956V2268.3A34.4,34.4,0,0,0,743.315,2302.656Z" transform="translate(268.462 -1818.971)"/>
      <path id="パス_36378" data-name="パス 36378" d="M757.448,2219.535H743.1v.008H727.561v13.518H743.1V2233h14.348a20.915,20.915,0,0,1,20.891,20.892v20.726h13.468v-20.726A34.4,34.4,0,0,0,757.448,2219.535Z" transform="translate(314.103 -1840.582)"/>
      <path id="パス_36379" data-name="パス 36379" d="M743.343,2262.588h14.3v-.007h15.536v-13.515l-15.536,0v.058H743.294a20.915,20.915,0,0,1-20.892-20.892V2207.5H708.984v20.726A34.4,34.4,0,0,0,743.343,2262.588Z" transform="translate(268.531 -1870.097)"/>
    </g>
    <g id="グループ_13212" data-name="グループ 13212" transform="translate(425.906 2673.637)">
      <g id="グループ_13211" data-name="グループ 13211">
        <g id="グループ_13210" data-name="グループ 13210" transform="translate(421.883)">
          <g id="グループ_13209" data-name="グループ 13209">
            <rect id="長方形_3079" data-name="長方形 3079" width="11.179" height="110.956" transform="translate(210.846 0.002)"/>
            <path id="パス_36380" data-name="パス 36380" d="M600.412,2273.077H568.453a20.414,20.414,0,0,0-20.374,20.4v70.182a20.4,20.4,0,0,0,20.374,20.37h31.959a20.411,20.411,0,0,0,20.377-20.4v-70.178A20.4,20.4,0,0,0,600.412,2273.077Zm9.22,90.553a9.23,9.23,0,0,1-9.22,9.22l-7.683,0-24.276,0a9.232,9.232,0,0,1-9.22-9.22v-70.15a9.23,9.23,0,0,1,9.22-9.217h31.959a9.228,9.228,0,0,1,9.22,9.217Z" transform="translate(-548.079 -2273.077)"/>
            <path id="パス_36381" data-name="パス 36381" d="M642.911,2384l24.282.028,7.673-.028a20.4,20.4,0,0,0,20.377-20.374l.059-90.553H684.121l-.031,90.553a9.229,9.229,0,0,1-9.217,9.22H642.911a9.231,9.231,0,0,1-9.217-9.22l-.031-90.553H622.486l.052,90.553A20.4,20.4,0,0,0,642.911,2384Z" transform="translate(-365.546 -2273.077)"/>
          </g>
        </g>
        <path id="パス_36382" data-name="パス 36382" d="M590.92,2313.759v-20.308a20.4,20.4,0,0,0-20.377-20.375l-52.346,0,0,110.957h11.178l.014-99.779,41.155-.023a9.225,9.225,0,0,1,9.217,9.216v20.308a9.228,9.228,0,0,1-9.217,9.22H556.364v11.158h14.182A20.4,20.4,0,0,0,590.92,2313.759Z" transform="translate(-199.504 -2273.077)"/>
        <path id="パス_36383" data-name="パス 36383" d="M446.28,2384.031h31.959a20.4,20.4,0,0,0,20.374-20.37V2343.3a20.4,20.4,0,0,0-20.37-20.333l-31.959.035a9.11,9.11,0,0,1-9.189-8.6l.021-20.947a9.228,9.228,0,0,1,9.217-9.216H478.3a9.228,9.228,0,0,1,9.213,9.22v3.491h11.154v-3.491a20.4,20.4,0,0,0-20.37-20.378H446.332a20.4,20.4,0,0,0-20.37,20.378l-.055,22.435a18.842,18.842,0,0,0,4.42,11.931,21.471,21.471,0,0,0,15.318,6.34l32.619-.039a9.229,9.229,0,0,1,9.223,9.2l0,20.335a9.23,9.23,0,0,1-9.22,9.22H446.28a9.231,9.231,0,0,1-9.217-9.22v-3.5H425.906v3.5A20.392,20.392,0,0,0,446.28,2384.031Z" transform="translate(-425.906 -2273.077)"/>
        <path id="パス_36384" data-name="パス 36384" d="M598.335,2384.031h31.959a20.392,20.392,0,0,0,20.37-20.37V2343.3a20.4,20.4,0,0,0-20.367-20.333l-31.959.035a9.109,9.109,0,0,1-9.192-8.6l.021-20.947a9.228,9.228,0,0,1,9.22-9.216h31.959a9.231,9.231,0,0,1,9.22,9.22v3.491h11.15v-3.491a20.4,20.4,0,0,0-20.374-20.378H598.387a20.4,20.4,0,0,0-20.374,20.378l-.055,22.435a18.836,18.836,0,0,0,4.42,11.931,21.477,21.477,0,0,0,15.318,6.34l32.622-.039a9.229,9.229,0,0,1,9.22,9.2l0,20.335a9.231,9.231,0,0,1-9.216,9.22H598.335a9.229,9.229,0,0,1-9.22-9.22v-3.5H577.958v3.5A20.4,20.4,0,0,0,598.335,2384.031Z" transform="translate(-52.897 -2273.077)"/>
        <path id="パス_36385" data-name="パス 36385" d="M568.027,2285.657c1.63,1.219,1.34,2.928,1.34,4.862l.028,93.518,11.181-.006-.028-95.283c0-9.188-6.872-15.671-13.291-15.671H556.428l-25.9,92.314L507.31,2282.6c-1.45-5.162-7.2-9.527-12.566-9.527H480.493l0,11.269,0,1.681.031,98.011,11.178-.006-.028-99.085a6.354,6.354,0,0,1,3.633.9c1.606,1.105,2.435,3.143,2.987,5.1l26.134,92.662h12.214l27.826-98.664A4.493,4.493,0,0,1,568.027,2285.657Z" transform="translate(-291.995 -2273.077)"/>
        <path id="パス_36386" data-name="パス 36386" d="M513.275,2273.078,488.75,2323.4l-24.525-50.319H451.817l31.353,64.331-.028,46.626,11.181,0,.024-46.676.18-.367,31.155-63.917Z" transform="translate(-362.342 -2273.076)"/>
      </g>
      <path id="パス_36387" data-name="パス 36387" d="M739.886,2285.657c1.633,1.219,1.34,2.928,1.34,4.862l.028,93.518,11.181-.006-.028-95.283c0-9.188-6.868-15.671-13.288-15.671H728.287L702.4,2365.391,679.169,2282.6c-1.45-5.162-7.2-9.527-12.563-9.527H652.352l0,11.269,0,1.681.031,98.011,11.178-.006-.028-99.085a6.35,6.35,0,0,1,3.633.9c1.609,1.105,2.438,3.143,2.987,5.1l26.134,92.662H708.5l27.825-98.664A4.493,4.493,0,0,1,739.886,2285.657Z" transform="translate(129.603 -2273.077)"/>
    </g>
    <g id="グループ_13214" data-name="グループ 13214" transform="translate(1398.245 2658.188)">
      <path id="パス_36388" data-name="パス 36388" d="M1429.9,2407.55H707.485L731.4,2268.6H1453.81Z" transform="translate(-707.485 -2268.603)" fill="#fee102"/>
      <g id="グループ_13213" data-name="グループ 13213" transform="translate(53.298 26.654)">
        <path id="パス_36389" data-name="パス 36389" d="M746.781,2295.519c-1.512,11.707-9.624,17.211-20.025,18.6v-5.383c8.156-1.347,12.884-6.16,13.785-13.215H722.92v-5.138h36.341v5.138Zm9.99-13.008v2.2H725.613v-5.221h25.367v-3.1h3.467v3.1H756.2v-3.1h3.508v6.119Z" transform="translate(-722.92 -2276.15)"/>
        <path id="パス_36390" data-name="パス 36390" d="M736.641,2295.584v-5.263a164.239,164.239,0,0,1,17.984,1.551v5.341A178.366,178.366,0,0,0,736.641,2295.584Zm.407-11.91v-5.221c5.425.165,12.4.776,17.946,1.55v5.341C749.611,2284.651,742.27,2283.837,737.048,2283.675Zm.611,29.282v-5.466c17.494-.611,25.9-6.606,27.612-22.96h5.912C769.511,2305.167,757.073,2312.671,737.66,2312.957Zm24.062-30.1V2276.7h3.509v6.161Zm5.221,0V2276.7h3.508v6.161Z" transform="translate(-689.26 -2275.397)"/>
        <path id="パス_36391" data-name="パス 36391" d="M754.365,2312.043v-5.264c9.3-1.425,15.5-4.771,19.414-9.868a119.045,119.045,0,0,0-16.72-3.018v-4.569a23.81,23.81,0,0,1-7.832,5.628v-5.832c3.754-2.282,7.138-6.851,8.854-11.865h27.2v.528C784.587,2295.526,777.45,2309.636,754.365,2312.043Zm7.5-29.611a30.726,30.726,0,0,1-4.279,6.323,142.314,142.314,0,0,1,19,3.384,34.527,34.527,0,0,0,2.528-9.707Z" transform="translate(-658.385 -2274.034)"/>
        <path id="パス_36392" data-name="パス 36392" d="M761.7,2312.969v-6.447c2.814-2.853,5.587-6.727,5.587-18.229V2277.2h5.508v10.685C772.792,2303.3,767.978,2309.133,761.7,2312.969Zm15.988-.818V2277.16h5.5v27.9c6.361-2.038,9.3-8.809,9.914-17.045h5.542C797.831,2302.485,791.225,2310.929,777.685,2312.151Z" transform="translate(-627.793 -2274.266)"/>
        <path id="パス_36393" data-name="パス 36393" d="M778.908,2294.471a128.489,128.489,0,0,0-3.667-16.762h5.87a144.716,144.716,0,0,1,3.633,16.762Zm4.2,17.456v-5.508c16.192-3.3,21.209-12.355,21.371-28.468v-.486h6.074v.448C810.27,2298.753,801.623,2308.7,783.111,2311.927Zm8.2-17.946a140.37,140.37,0,0,0-3.55-16.679h5.791a142.181,142.181,0,0,1,3.508,16.679Z" transform="translate(-594.568 -2273.918)"/>
        <path id="パス_36394" data-name="パス 36394" d="M811.6,2290.827v22.755H805.69v-19.33a64.612,64.612,0,0,1-17.5,4.972v-5.379c16.4-3.1,24.348-9.383,28.1-16.886h6.444A30.267,30.267,0,0,1,811.6,2290.827Z" transform="translate(-562.795 -2274.759)"/>
        <path id="パス_36395" data-name="パス 36395" d="M801.158,2283.051v-5.667a152.712,152.712,0,0,1,17.618,2.366v5.871A124.982,124.982,0,0,0,801.158,2283.051Zm.487,28.061v-5.549c14.724-1.181,24.676-5.628,26.634-22.428h5.995C832.4,2302.831,820.651,2310.377,801.645,2311.112Z" transform="translate(-530.989 -2273.714)"/>
        <path id="パス_36396" data-name="パス 36396" d="M824.524,2285.644a4.976,4.976,0,1,1-4.976-4.976A4.973,4.973,0,0,1,824.524,2285.644Z" transform="translate(-498.083 -2265.661)"/>
        <path id="パス_36397" data-name="パス 36397" d="M844,2302.288l1.064,11.5h-5.794l-1.019-11.5H821.574v-5.179H837.8l-.777-8.443H823.08v-5.218h13.54l-.611-6.689h5.712l.57,6.689h15.252v5.218H842.776l.736,8.443H859.3v5.179Z" transform="translate(-480.905 -2275.249)"/>
        <path id="パス_36398" data-name="パス 36398" d="M853.346,2301.65v-5.181a13.329,13.329,0,0,0,8.688-8.643l-14.52.529,3.75,21.94H845.8l-3.626-21.737-7.055.246v-4.976l6.237-.2-.894-5.425h5.3l.9,5.263,21.78-.652C867.5,2293.619,861.257,2299.491,853.346,2301.65Z" transform="translate(-447.682 -2271.717)"/>
        <path id="パス_36399" data-name="パス 36399" d="M847.326,2283.051v-5.667a152.7,152.7,0,0,1,17.618,2.366v5.871A124.993,124.993,0,0,0,847.326,2283.051Zm.487,28.061v-5.549c14.725-1.181,24.677-5.628,26.635-22.428h5.995C878.567,2302.831,866.819,2310.377,847.813,2311.112Z" transform="translate(-417.732 -2273.714)"/>
        <path id="パス_36400" data-name="パス 36400" d="M858.237,2313.949v-6.485c6.237-6.195,8.277-15.618,8.277-26.468v-2.4h5.874v2.2C872.388,2298.006,867.412,2308.648,858.237,2313.949Zm22.187-33.112v-2.245H886.3v2.4c0,10.85,2.075,20.229,8.319,26.468v6.485C885.4,2308.648,880.424,2297.964,880.424,2280.837Zm11.582,4.278a4.261,4.261,0,1,1,4.282-4.24A4.259,4.259,0,0,1,892.005,2285.115Zm0-6.281a2.014,2.014,0,0,0-2,2.041,2.039,2.039,0,0,0,2,2.041,2.082,2.082,0,0,0,2.079-2.041A2.058,2.058,0,0,0,892.005,2278.834Z" transform="translate(-390.965 -2275.657)"/>
        <path id="パス_36401" data-name="パス 36401" d="M892.15,2298.9a41.943,41.943,0,0,1-20.76,12.562v-5.549c9.627-2.815,19.783-10.968,23.167-23.2H873.389v-5.3h28.143a39.173,39.173,0,0,1-5.629,16.4,26.424,26.424,0,0,0,10.888,12.03v6.036A29.69,29.69,0,0,1,892.15,2298.9Z" transform="translate(-358.699 -2273.658)"/>
        <path id="パス_36402" data-name="パス 36402" d="M892.264,2311.764V2306.5c12.642-.815,20.432-5.3,23.043-13.743H886.881v-5.1H922.2v.773C921.1,2302.179,911.882,2311.232,892.264,2311.764Zm-2.939-29.162v-5.3h30.426v5.3Z" transform="translate(-320.697 -2273.918)"/>
        <path id="パス_36403" data-name="パス 36403" d="M899.55,2313.026v-6.12c3.3-2.976,5.18-8.6,5.549-15.251h5.3C909.788,2301.236,907.012,2309.193,899.55,2313.026Zm20.8-24.511v26.345H914.8v-26.345h-14.6v-5.1h14.6v-5.546h5.549v5.546h14.721v5.1Zm4.4,3.14h5.425c.369,6.647,2.324,12.275,5.67,15.251v6.12C928.18,2309.193,925.328,2301.236,924.755,2291.654Zm2.407-9.708v-5.625h3.467v5.625Zm5.18,0v-5.625h3.55v5.625Z" transform="translate(-289.618 -2276.322)"/>
        <path id="パス_36404" data-name="パス 36404" d="M723.027,2308.563V2303.3a164.121,164.121,0,0,1,17.984,1.554v5.337A178.544,178.544,0,0,0,723.027,2308.563Zm.408-11.907v-5.221a179.471,179.471,0,0,1,17.942,1.551v5.341C736,2297.633,728.656,2296.818,723.435,2296.656Zm.611,29.283v-5.466c17.494-.611,25.9-6.609,27.611-22.96h5.912C755.894,2318.148,743.459,2325.652,724.046,2325.939Z" transform="translate(-722.657 -2239.247)"/>
        <path id="パス_36405" data-name="パス 36405" d="M736.026,2297.281v-5.669a152.381,152.381,0,0,1,17.618,2.366v5.874A124.912,124.912,0,0,0,736.026,2297.281Zm.49,28.058v-5.546c14.721-1.185,24.673-5.628,26.631-22.432h5.995C767.267,2317.061,755.519,2324.6,736.516,2325.339Z" transform="translate(-690.769 -2238.813)"/>
        <path id="パス_36406" data-name="パス 36406" d="M748.093,2327.484v-6.115c3.3-2.977,5.18-8.6,5.549-15.252h5.3C758.332,2315.7,755.555,2323.652,748.093,2327.484Zm33.565-29.607h1.958v5.1H768.895v26.347h-5.549v-26.347h-14.6v-5.1h14.6v-5.545h5.549v5.545h9.341a3.9,3.9,0,1,1,5.584-3.509A3.867,3.867,0,0,1,781.658,2297.877Zm-8.36,8.239h5.425c.369,6.648,2.324,12.275,5.67,15.252v6.115C776.723,2323.652,773.871,2315.7,773.3,2306.117Zm6.651-13.581a1.856,1.856,0,1,0,0,3.712,1.857,1.857,0,1,0,0-3.712Z" transform="translate(-661.166 -2241.653)"/>
        <path id="パス_36407" data-name="パス 36407" d="M761.886,2309.809v-5.262a164.251,164.251,0,0,1,17.984,1.554v5.338A178.381,178.381,0,0,0,761.886,2309.809Zm.408-11.906v-5.221a179.4,179.4,0,0,1,17.946,1.551v5.341C774.856,2298.879,767.515,2298.064,762.294,2297.9Zm.611,29.283v-5.467c17.5-.611,25.9-6.609,27.612-22.96h5.912C794.757,2319.395,782.318,2326.9,762.9,2327.186Zm24.062-30.1v-6.157h3.512v6.157Zm5.221,0v-6.157H795.7v6.157Z" transform="translate(-627.33 -2240.494)"/>
        <path id="パス_36408" data-name="パス 36408" d="M783.908,2327.772v-5.3c12.193-1.877,18.719-8.443,19.127-20.719H780.113v9.175H774.65v-14.272h14.027v-5.669h5.833v5.669h14.762v1.223C809.271,2315.617,801.809,2325.448,783.908,2327.772Z" transform="translate(-596.018 -2240.349)"/>
        <path id="パス_36409" data-name="パス 36409" d="M786.493,2325.688v-4.935c3.547-6.851,8.485-20.27,10.847-29.366h6.077a192.032,192.032,0,0,1-10.725,29.08h22.8c-1.792-5.5-5.259-12.235-8.115-17.618h6.2a123.376,123.376,0,0,1,9.869,22.839Z" transform="translate(-566.965 -2239.365)"/>
      </g>
    </g>
  </g>
</svg>
