<svg xmlns="http://www.w3.org/2000/svg" width="218" height="66.984" viewBox="0 0 218 66.984">
  <g id="keyvisual_date_sp" transform="translate(-1623.303 -909.122)">
    <g id="グループ_14152" data-name="グループ 14152">
      <g id="グループ_14151" data-name="グループ 14151">
        <g id="グループ_14143" data-name="グループ 14143">
          <g id="グループ_14142" data-name="グループ 14142">
            <g id="グループ_14141" data-name="グループ 14141">
              <g id="グループ_14140" data-name="グループ 14140">
                <path id="パス_38739" data-name="パス 38739" d="M1658.828,926.876v-2.082h2.082v2.082Z"/>
              </g>
              <path id="パス_38740" data-name="パス 38740" d="M1638.557,915.678v9.37q0,1.832-1.936,1.832h-2.27q-1.957,0-1.957-1.832v-9.37q0-1.832,1.957-1.832h2.27Q1638.556,913.846,1638.557,915.678Zm-1.538,9.241V915.8a.679.679,0,0,0-.125-.49.775.775,0,0,0-.5-.114h-1.838a.476.476,0,0,0-.6.6v9.12a.475.475,0,0,0,.6.6h1.838a.775.775,0,0,0,.5-.114A.677.677,0,0,0,1637.019,924.919Z"/>
              <path id="パス_38741" data-name="パス 38741" d="M1623.805,917.337h1.562V915.9a.758.758,0,0,1,.157-.566.849.849,0,0,1,.57-.141h.978a.831.831,0,0,1,.584.144.8.8,0,0,1,.144.563v.972a4.287,4.287,0,0,1-.6,2.272l-3.379,6.369v1.361h5.641v-1.354h-3.886l3.073-5.734a6.123,6.123,0,0,0,.729-2.851v-1.331c0-1.187-.619-1.764-1.892-1.764h-1.816c-1.258,0-1.87.577-1.87,1.764Z"/>
              <path id="パス_38742" data-name="パス 38742" d="M1641.623,917.337h1.562V915.9a.758.758,0,0,1,.157-.566.849.849,0,0,1,.57-.141h.978a.831.831,0,0,1,.584.144.8.8,0,0,1,.144.563v.972a4.287,4.287,0,0,1-.6,2.272l-3.379,6.369v1.361h5.641v-1.354H1643.4l3.073-5.734a6.122,6.122,0,0,0,.729-2.851v-1.331c0-1.187-.619-1.764-1.892-1.764h-1.816c-1.258,0-1.87.577-1.87,1.764Z"/>
            </g>
            <path id="パス_38743" data-name="パス 38743" d="M1687.468,926.876v-2.082h2.082v2.082Z"/>
          </g>
          <path id="パス_38744" data-name="パス 38744" d="M1669.942,926.642v-17.52h-4.408v1.614h2.49v15.906Z"/>
          <path id="パス_38745" data-name="パス 38745" d="M1697.038,926.642v-17.52h-4.408v1.614h2.491v15.906Z"/>
          <path id="パス_38746" data-name="パス 38746" d="M1706.673,926.642v-17.52h-4.408v1.614h2.491v15.906Z"/>
          <path id="パス_38747" data-name="パス 38747" d="M1679.792,909.122h-3.086c-1.722,0-2.558.781-2.558,2.388v12.743c0,1.608.836,2.389,2.558,2.389h3.086c1.7,0,2.53-.781,2.53-2.389V911.51C1682.322,909.9,1681.495,909.122,1679.792,909.122Zm.647,14.956a.993.993,0,0,1-.2.742,1.122,1.122,0,0,1-.749.183h-2.5a.743.743,0,0,1-.925-.925v-12.4a.742.742,0,0,1,.925-.925h2.5a1.124,1.124,0,0,1,.749.183.994.994,0,0,1,.2.742Z"/>
          <path id="パス_38748" data-name="パス 38748" d="M1651.462,915.8v1.5H1649.9v-1.624q0-1.832,1.936-1.832h1.916q1.956,0,1.957,1.832v3.29q0,1.1-.833,1.291a1.07,1.07,0,0,1,.833,1.207v3.582q0,1.832-1.957,1.832h-1.916q-1.937,0-1.936-1.832v-1.6h1.559v1.475a.677.677,0,0,0,.125.489.772.772,0,0,0,.5.114h1.464a.774.774,0,0,0,.5-.114.681.681,0,0,0,.125-.489v-3.286a.68.68,0,0,0-.125-.489.766.766,0,0,0-.5-.115h-1.523v-1.5h1.523a.766.766,0,0,0,.5-.115.68.68,0,0,0,.125-.489V915.8a.684.684,0,0,0-.125-.49.773.773,0,0,0-.5-.114h-1.464a.771.771,0,0,0-.5.114A.679.679,0,0,0,1651.462,915.8Z"/>
        </g>
        <g id="グループ_14144" data-name="グループ 14144">
          <path id="パス_38749" data-name="パス 38749" d="M1726.065,913.867h1.622l-2.139,13H1723.1l-1.647-10.3-1.622,10.3h-2.445l-2.14-13h1.623l1.763,12,1.857-12h1.928l1.858,12Z"/>
          <path id="パス_38750" data-name="パス 38750" d="M1731.191,925.633h4.021v1.234h-5.644v-13h5.479V915.1h-3.856v4.39h3.151v1.233h-3.151Z"/>
          <path id="パス_38751" data-name="パス 38751" d="M1736.975,913.867h4.632q1.857,0,1.858,1.65v9.7q0,1.651-1.858,1.652h-4.632Zm4.868,11.119v-9.239c0-.278-.048-.456-.142-.533a1.019,1.019,0,0,0-.588-.115H1738.6v10.534h2.516a1.011,1.011,0,0,0,.588-.115C1741.8,925.442,1741.843,925.265,1741.843,924.986Z"/>
        </g>
        <g id="グループ_14150" data-name="グループ 14150">
          <path id="パス_38752" data-name="パス 38752" d="M1795.594,921.483v-1.457h3.853v1.457Z"/>
          <path id="パス_38753" data-name="パス 38753" d="M1819.808,918.8v-2.082h2.082V918.8Zm0,6v-2.082h2.082v2.082Z"/>
          <g id="グループ_14145" data-name="グループ 14145">
            <path id="パス_38754" data-name="パス 38754" d="M1806.2,913.846V926.88h-1.562v-11.7H1802.8v-1.339Z"/>
          </g>
          <g id="グループ_14146" data-name="グループ 14146">
            <path id="パス_38755" data-name="パス 38755" d="M1765.384,922.89V924.3h-1.3v2.582h-1.538V924.3h-4.592v-1.561l3.748-8.891h1.77l-3.888,9.044h2.962v-2.631h1.538v2.631Z"/>
          </g>
          <path id="パス_38756" data-name="パス 38756" d="M1768.906,918.8v-2.082h2.082V918.8Zm0,6v-2.082h2.082v2.082Z"/>
          <g id="グループ_14147" data-name="グループ 14147">
            <path id="パス_38757" data-name="パス 38757" d="M1755.038,913.846V926.88h-1.563v-11.7h-1.831v-1.339Z"/>
          </g>
          <path id="パス_38758" data-name="パス 38758" d="M1790.4,915.678v9.37q0,1.832-1.936,1.832h-2.27q-1.957,0-1.957-1.832v-9.37q0-1.832,1.957-1.832h2.27Q1790.4,913.846,1790.4,915.678Zm-1.538,9.241V915.8a.685.685,0,0,0-.124-.49.779.779,0,0,0-.5-.114H1786.4a.476.476,0,0,0-.6.6v9.12a.476.476,0,0,0,.6.6h1.838a.779.779,0,0,0,.5-.114A.682.682,0,0,0,1788.863,924.919Z"/>
          <path id="パス_38759" data-name="パス 38759" d="M1781.445,915.678v9.37q0,1.832-1.936,1.832h-2.27q-1.958,0-1.957-1.832v-9.37q0-1.832,1.957-1.832h2.27Q1781.444,913.846,1781.445,915.678Zm-1.538,9.241V915.8a.684.684,0,0,0-.125-.49.775.775,0,0,0-.5-.114h-1.838a.476.476,0,0,0-.6.6v9.12a.475.475,0,0,0,.6.6h1.838a.775.775,0,0,0,.5-.114A.681.681,0,0,0,1779.907,924.919Z"/>
          <path id="パス_38760" data-name="パス 38760" d="M1841.3,915.678v9.37q0,1.832-1.936,1.832H1837.1q-1.958,0-1.958-1.832v-9.37q0-1.832,1.958-1.832h2.269Q1841.3,913.846,1841.3,915.678Zm-1.537,9.241V915.8a.684.684,0,0,0-.125-.49.777.777,0,0,0-.5-.114H1837.3a.476.476,0,0,0-.6.6v9.12a.476.476,0,0,0,.6.6h1.838a.777.777,0,0,0,.5-.114A.681.681,0,0,0,1839.766,924.919Z"/>
          <path id="パス_38761" data-name="パス 38761" d="M1832.347,915.678v9.37q0,1.832-1.936,1.832h-2.27q-1.957,0-1.957-1.832v-9.37q0-1.832,1.957-1.832h2.27Q1832.346,913.846,1832.347,915.678Zm-1.538,9.241V915.8a.679.679,0,0,0-.125-.49.775.775,0,0,0-.5-.114h-1.838a.476.476,0,0,0-.6.6v9.12a.475.475,0,0,0,.6.6h1.838a.775.775,0,0,0,.5-.114A.677.677,0,0,0,1830.809,924.919Z"/>
          <g id="グループ_14149" data-name="グループ 14149">
            <g id="グループ_14148" data-name="グループ 14148">
              <path id="パス_38762" data-name="パス 38762" d="M1815.547,913.846V926.88h-1.562v-11.7h-1.832v-1.339Z"/>
            </g>
            <path id="パス_38763" data-name="パス 38763" d="M1809.738,913.846v1.339h5.559v-1.339Z"/>
          </g>
        </g>
      </g>
    </g>
    <rect id="長方形_3320" data-name="長方形 3320" width="59.858" height="18.763" transform="translate(1623.303 957.343)" fill="#fff"/>
    <g id="グループ_14153" data-name="グループ 14153">
      <path id="パス_38764" data-name="パス 38764" d="M1629.8,944.885a6.369,6.369,0,0,0-1.307-.742l.305-.4h-3.436c0,.906,0,1.13-.048,1.73a3.84,3.84,0,0,0,1.213-1.495l.671.318a5.041,5.041,0,0,1-1.236,1.719l-.648-.53a9.942,9.942,0,0,1-.918,3.885l-.824-.766a8.684,8.684,0,0,0,.859-4.166v-5.274h4.367v-.742h.978v.742h4.814v.765h-3.567v.706h2.908v1.942h-8.569v.53h9.228a8.408,8.408,0,0,1-.306,2l-.836-.165a6.679,6.679,0,0,0,.224-1.2H1629.3a6.238,6.238,0,0,1,.953.553Zm4.437,4.532a16.56,16.56,0,0,1-4.532-.765,14.95,14.95,0,0,1-4.179.741l-.247-.765a16.525,16.525,0,0,0,3.39-.447,6.118,6.118,0,0,1-1.389-1.013,5.917,5.917,0,0,1-1.307.683l-.447-.683a6.9,6.9,0,0,0,2.425-1.518.548.548,0,0,1-.471-.542v-.93h.789v.6c0,.129,0,.27.2.27h1.989c.247,0,.342-.164.483-.812l.753.212c-.141.777-.318,1.248-.847,1.248h-1.837c-.164.176-.3.318-.53.53h4.191v.6a6.1,6.1,0,0,1-1.836,1.342,16.276,16.276,0,0,0,3.755.388Zm-6.874-9.488h-2v.706h2Zm0,1.307h-2v.741h2Zm.612,5.591a7.519,7.519,0,0,0,1.777,1.024,4.979,4.979,0,0,0,1.624-1.024Zm2.213-6.9h-1.978v.706h1.978Zm0,1.307h-1.978v.741h1.978Zm2.836,0h-2v.741h2Zm.248,4.885a8.869,8.869,0,0,0-1.495-1.613l.565-.506a6.753,6.753,0,0,1,1.565,1.554Z" stroke="#000" stroke-miterlimit="10" stroke-width="0.131"/>
      <path id="パス_38765" data-name="パス 38765" d="M1637.884,940.035v2.931a7.76,7.76,0,0,0,2.108-2.849l.777.342a7.9,7.9,0,0,1-.731,1.342v4.261h-.87v-3.119a4.847,4.847,0,0,1-.719.706l-.565-.671v1.365c0,3.19-.682,4.367-.988,4.9l-.789-.824c.812-1.118.848-3.778.848-4.1v-5.109h4.355v-.742h.977v.742h4.815v.824Zm.589,9.17-.8-.506a5.243,5.243,0,0,0,1.19-2l.788.259A6.547,6.547,0,0,1,1638.473,949.205Zm3.037-3.249v-3.119a4.713,4.713,0,0,1-.741.659l-.577-.6a6.3,6.3,0,0,0,2.13-2.766l.8.271a4.509,4.509,0,0,1-.4.812h1.366a6.4,6.4,0,0,0,.424-1.083l.871.2a9.109,9.109,0,0,1-.4.883h1.9v.706h-2v.718h1.872v.589h-1.872v.706h1.836v.589h-1.836v.73h2.225v.706Zm2.307,3.284h-2.825a.672.672,0,0,1-.765-.742v-1.483h.918v1.2c0,.177.118.2.224.2h2.224c.259,0,.283-.259.377-.965l.883.271C1644.712,949.016,1644.524,949.24,1643.817,949.24Zm-.741-1.483a8.4,8.4,0,0,0-1.683-.965l.517-.612a7.86,7.86,0,0,1,1.672.894Zm.965-5.839h-1.683v.718h1.683Zm0,1.307h-1.683v.706h1.683Zm0,1.3h-1.683v.73h1.683Zm2.366,4.638a9.775,9.775,0,0,0-1.707-2.131l.73-.494a10.637,10.637,0,0,1,1.73,2.036Z" stroke="#000" stroke-miterlimit="10" stroke-width="0.131"/>
      <path id="パス_38766" data-name="パス 38766" d="M1655.714,943.284a7.893,7.893,0,0,0,.166,1.554h3.7v.753h-3.509a7.615,7.615,0,0,0,.507,1.236,7.087,7.087,0,0,0,1.071-.942l.777.4a8.434,8.434,0,0,1-1.389,1.271c.353.482.765.883,1.036.883.47,0,.635-.6.871-1.437l.765.542c-.165.718-.612,1.9-1.507,1.9-.518,0-1.212-.4-1.919-1.389a10.7,10.7,0,0,1-2.836,1.142l-.436-.812a8.243,8.243,0,0,0,2.825-1.071,8.374,8.374,0,0,1-.659-1.719h-2.943v.918a16.157,16.157,0,0,0,1.907-.294l.035.742a17.427,17.427,0,0,1-1.942.341v1.342c0,.541-.424.718-.836.718h-1.471l-.236-.93,1.331.012c.176,0,.282-.024.282-.283V947.4c-1.495.176-2.083.212-2.554.235l-.094-.812c.824-.024,1.777-.118,2.648-.212v-1.024h-2.59v-.753h2.59v-.66c-.894.059-1.483.059-2.048.071l-.141-.694a25.72,25.72,0,0,0,4.485-.342l.4.659a9.9,9.9,0,0,1-1.766.248v.718H1655a11.352,11.352,0,0,1-.212-1.554Zm-.258-3.932a6.141,6.141,0,0,0,.482-1.036l1.072.153a8.176,8.176,0,0,1-.46.883h2.614v.73h-4.544v.718h4.19v.671h-4.19v.706h4.956v.73H1648.71v-.73h4.956v-.706h-4.155V940.8h4.155v-.718h-4.5v-.73h2.742a4.621,4.621,0,0,0-.553-.859l1.024-.177c.212.342.506.777.636,1.036Zm2.53,5.439a8.309,8.309,0,0,0-1.436-1.154l.612-.589a8.013,8.013,0,0,1,1.483,1.083Z" stroke="#000" stroke-miterlimit="10" stroke-width="0.131"/>
      <path id="パス_38767" data-name="パス 38767" d="M1669.448,944.449a10.876,10.876,0,0,0-.836-.765,5.852,5.852,0,0,1-1.636,2.331h.177v.565h4.049v.777h-4.049v.882h4.944v.8h-10.924v-.8h5.026v-.882h-4.108v-.777h4.108v-.565h.753l-.788-.6a4.494,4.494,0,0,0,1.742-2.26c-.495-.365-.871-.588-1.177-.776l.435-.742c.53.294.73.424,1,.6.047-.282.129-.765.224-1.6h-1.366v-.847h1.424c.024-.424.024-.742.024-1.354h.883c0,.836-.024,1.142-.036,1.354h1.884a30.016,30.016,0,0,0-.224,3.272c0,.306.024,1.789.306,1.789.2,0,.294-.812.354-1.389l.624.377c-.106.718-.295,2.225-1.037,2.225-.883,0-1.106-1.1-1.106-3.155,0-1.024.059-1.848.094-2.272h-.953a11.584,11.584,0,0,1-.342,2.143,11.151,11.151,0,0,1,1.083.953Zm-2.719.035c-.212.024-1.942.212-2.131.236v.836c0,.282,0,.671-.742.671h-1.024l-.223-.777.918.012c.223,0,.236-.071.236-.318V944.8c-.248.012-2.379.189-2.461.189l-.059-.754c.966-.023,1.766-.059,2.52-.129v-.6h.353a5.961,5.961,0,0,0,.93-.413h-3.45v-.624h4.791v.565a10.841,10.841,0,0,1-1.789.883v.118c.2-.023,1.907-.176,2.131-.2Zm-3-5.508v-.542h.919v.542H1667v.682h-5.7v-.682Zm2.66,1.165v1.836h-4.461v-1.836Zm-.859.565h-2.754v.694h2.754Z" stroke="#000" stroke-miterlimit="10" stroke-width="0.131"/>
      <path id="パス_38768" data-name="パス 38768" d="M1678.485,938.434h1.047v2.884h5.015v.977H1679.7a7.614,7.614,0,0,0,5.014,6.015l-.66.989a8.3,8.3,0,0,1-4.92-5.65,8.713,8.713,0,0,1-5.026,5.626l-.565-1.012a7.275,7.275,0,0,0,4.885-5.968h-4.779v-.977h4.838Z" stroke="#000" stroke-miterlimit="10" stroke-width="0.131"/>
      <path id="パス_38769" data-name="パス 38769" d="M1695.091,943.048a13.355,13.355,0,0,1-2.99,1.919v.247h4.9v.907h-4.9v2.319a.864.864,0,0,1-.966.906h-2.142l-.189-1.012,1.92.011c.364,0,.388-.094.388-.364v-1.86H1686.1v-.907h5.015v-.977h.506a6.725,6.725,0,0,0,1.907-1.118h-5.533v-.871h7.1Zm-1.142-2.731a16.948,16.948,0,0,0,.882-1.942l1.024.341a11.881,11.881,0,0,1-.835,1.6h1.707v2.6h-.965v-1.731h-8.417v1.731h-.965v-2.6h1.707a7.058,7.058,0,0,0-.812-1.553l.871-.342a6.487,6.487,0,0,1,.906,1.672l-.588.223Zm-2.578-.011a10.038,10.038,0,0,0-.9-1.672l.907-.365a9.35,9.35,0,0,1,.894,1.719Z" stroke="#000" stroke-miterlimit="10" stroke-width="0.131"/>
      <path id="パス_38770" data-name="パス 38770" d="M1709.483,947.592v1h-10.9v-1Zm-.553-8.346v.989h-9.794v-.989Zm-.6,3.991v.977h-8.593v-.977Z" stroke="#000" stroke-miterlimit="10" stroke-width="0.131"/>
      <path id="パス_38771" data-name="パス 38771" d="M1721.451,938.976V949.1h-9.912V938.976Zm-5.463.918H1712.5v3.578h3.484Zm0,4.473H1712.5v3.79h3.484Zm4.485-4.473h-3.542v3.578h3.542Zm0,4.473h-3.542v3.79h3.542Z" stroke="#000" stroke-miterlimit="10" stroke-width="0.131"/>
      <path id="パス_38772" data-name="パス 38772" d="M1733.018,940.529l.083,1.013-3.873.364.247,2.4,4.509-.436.07,1.013-4.473.423.377,3.556-1.095.058-.377-3.508-4.532.424-.082-1,4.508-.436-.247-2.39-3.861.366-.082-1.013,3.837-.365-.224-2.072,1.095-.094.224,2.06Z" stroke="#000" stroke-miterlimit="10" stroke-width="0.131"/>
      <path id="パス_38773" data-name="パス 38773" d="M1740.69,948.91l-1,.106-.8-5.167-2.355.353-.129-.918,2.343-.341-.318-1.99.977-.106.305,1.954,4.768-.694a5.589,5.589,0,0,1-2.437,4.473l-.729-.7a4.26,4.26,0,0,0,2.036-2.719l-3.5.53Z" stroke="#000" stroke-miterlimit="10" stroke-width="0.131"/>
      <path id="パス_38774" data-name="パス 38774" d="M1750.61,942.26a14,14,0,0,0-3.626-1.7l.53-.942a14.768,14.768,0,0,1,3.685,1.648Zm-3.378,5.108c5.956-.317,7.71-4.484,8.522-7.121l.918.683c-.565,1.671-2.448,7.168-9.229,7.616Z" stroke="#000" stroke-miterlimit="10" stroke-width="0.131"/>
      <path id="パス_38775" data-name="パス 38775" d="M1761.2,939.552a19.583,19.583,0,0,1-2.989,8.935l-1.037-.554a18.24,18.24,0,0,0,2.908-8.546Zm4.8,8.723a27.008,27.008,0,0,0-2.825-8.475l.989-.471a27.7,27.7,0,0,1,3,8.663Zm2.5-8.734a1.636,1.636,0,1,1-1.637-1.637A1.633,1.633,0,0,1,1768.5,939.541Zm-2.543,0a.906.906,0,1,0,.906-.907A.914.914,0,0,0,1765.957,939.541Z" stroke="#000" stroke-miterlimit="10" stroke-width="0.131"/>
      <path id="パス_38776" data-name="パス 38776" d="M1778.242,939.493a12.713,12.713,0,0,1-2.248,4.839,46.185,46.185,0,0,1,4,3.531l-.9.847a41.84,41.84,0,0,0-3.755-3.578,14.578,14.578,0,0,1-4.767,3.626l-.636-.872a12.354,12.354,0,0,0,4.4-3.178,12.107,12.107,0,0,0,2.507-4.214h-6.321v-1Z" stroke="#000" stroke-miterlimit="10" stroke-width="0.131"/>
      <path id="パス_38777" data-name="パス 38777" d="M1781.97,947.651c1.236-.283,2.9-.812,3.461-1.012v-4.332h-3.4v-.954h3.4v-2.931h1v10.924h-1v-1.707c-.248.1-1.9.671-3.167,1.013Zm7.11-9.229v3.791a16.657,16.657,0,0,0,3.1-2.166l.671.847a22,22,0,0,1-3.767,2.413v4.521c0,.27.082.353.423.353h1.813c.436,0,.671,0,.671-2.225l.989.353c-.106,2.013-.153,2.849-1.295,2.849h-2.6c-.259,0-1,0-1-.848v-9.888Z" stroke="#000" stroke-miterlimit="10" stroke-width="0.131"/>
      <path id="パス_38778" data-name="パス 38778" d="M1799.141,939.446h2.495v-1.024h.942v1.024h2.648v2.413h-.906v-1.565h-4.285v.883h4.073v3.3h-3.225v1.212h4.073v3.449h-4.98v-7.275h-.835v-1.683l-.495.789a7.463,7.463,0,0,1-1.566-1.742,10.407,10.407,0,0,1-2.495,2.636l-.294-.965a7.707,7.707,0,0,0,2.248-2.495h.989a6.65,6.65,0,0,0,1.613,1.718Zm-1.236,6.722a17.089,17.089,0,0,1,1.389,2.472l-.848.388a9.9,9.9,0,0,0-.435-.941c-.695.235-2.237.694-3.449.953l-.165-.918c.082-.024.506-.106.635-.13v-6.427h1.483v-1.036h.9v1.036h1.389v4.085h-2.884v2.13c.247-.058.836-.212,1.695-.459a7.071,7.071,0,0,0-.47-.788Zm0-3.849h-1.99v.941h1.99Zm0,1.612h-1.99v.954h1.99Zm5.32-1.93h-2.342v1.671h2.342Zm.813,4.5h-3.155v1.825h3.155Z" stroke="#000" stroke-miterlimit="10" stroke-width="0.131"/>
      <path id="パス_38779" data-name="パス 38779" d="M1807.506,947.38a6.924,6.924,0,0,0,1.8-4.379l1,.106a8.6,8.6,0,0,1-1.942,5.05Zm5.427,1.484h-1.083v-7.04h-4.073v-1h4.073v-1.919h1.083v1.919h4.1v1h-4.1Zm2.578-5.874a8.685,8.685,0,0,0,1.813,4.449l-.883.683a9.585,9.585,0,0,1-1.919-5.015Z" stroke="#000" stroke-miterlimit="10" stroke-width="0.131"/>
      <path id="パス_38780" data-name="パス 38780" d="M1828.385,943.319v1.119h-9.11v-1.119Z" stroke="#000" stroke-miterlimit="10" stroke-width="0.131"/>
      <path id="パス_38781" data-name="パス 38781" d="M1832.856,942.2c0,3.8-1.06,5.473-2.272,6.651l-.777-.789c1.307-1.307,2-2.649,2-5.78v-2.954h1.048Zm3.072,5.132c1.448-.447,2.955-.906,3.59-4.532l1,.424c-.518,2.354-1.484,5.05-5.65,5.415V939h1.059Z" stroke="#000" stroke-miterlimit="10" stroke-width="0.131"/>
      <path id="パス_38782" data-name="パス 38782" d="M1638.923,964.824v.847h-3.155a7.909,7.909,0,0,0,3.237,1.919l-.459.918a9.262,9.262,0,0,1-3.92-2.837h-2.319a9.9,9.9,0,0,1-4.014,2.59l-.412-.883a8.011,8.011,0,0,0,3.178-1.707H1628v-.847h3.861a4.842,4.842,0,0,0,.518-.824c-.588.012-3.143.047-3.661.047l-.083-.848c.212,0,1.755.012,1.872.012a12.6,12.6,0,0,0,1.107-1.918l1.012.176a12.3,12.3,0,0,1-1.083,1.742c2.19,0,3.084,0,4.52-.106a8.893,8.893,0,0,0-1.2-.918l.612-.624a14.934,14.934,0,0,1,2.707,2.2l-.718.671a7.176,7.176,0,0,0-.647-.671c-1.237.13-2.861.2-3.414.212a4.832,4.832,0,0,1-.459.848Zm-9.83,6.486c4.45-.212,6.44-1.436,7.9-2.625l.719.635c-1,.86-3.12,2.52-8.287,2.908Zm.26-1.636a11.986,11.986,0,0,0,5.909-2.178l.683.612a13.764,13.764,0,0,1-6.192,2.413Zm.2-1.554a10.873,10.873,0,0,0,4.155-1.836l.624.588a9.944,9.944,0,0,1-4.379,2.013Z" stroke="#000" stroke-miterlimit="10" stroke-width="0.131"/>
      <path id="パス_38783" data-name="パス 38783" d="M1643.039,961.3h.954v2.084h2.46c-.071,5.509-.082,7.027-.377,7.922a1.182,1.182,0,0,1-1.353.9h-1.2l-.165-.989,1.295.011c.271,0,.447-.035.565-.623.224-1.1.224-2.025.271-6.263h-1.495c0,4.438-.989,6.6-2.4,7.887l-.706-.8c1.154-1.166,2.154-2.708,2.154-7.087H1641.1v-.953h1.942Zm8.5.73V972h-4.155v-9.97Zm-.965.918h-2.248v8.134h2.248Z" stroke="#000" stroke-miterlimit="10" stroke-width="0.131"/>
      <path id="パス_38784" data-name="パス 38784" d="M1664.647,962.317v.847h-1.142v1.9h1.507v.848h-1.507v2.013h1.213v.835h-10.312v-.835h1.331v-2.013h-1.613v-.848h1.613v-1.4a4.973,4.973,0,0,1-1.107.789l-.648-.765a6.018,6.018,0,0,0,2.614-2.507l.906.259a5.108,5.108,0,0,1-.529.883Zm-10.523,9.3a6.491,6.491,0,0,0,1.459-2.39l.907.248a7.483,7.483,0,0,1-1.519,2.766Zm3.908-8.452h-1.413v1.9h1.413Zm0,2.743h-1.413v2.013h1.413Zm-.295,6.144a12.664,12.664,0,0,0-.023-2.66l.883-.011a14.673,14.673,0,0,1,.141,2.671Zm2.555-8.887h-1.4v1.9h1.4Zm0,2.743h-1.4v2.013h1.4Zm.342,6.144a11.614,11.614,0,0,0-.636-2.7l.883-.082a10.866,10.866,0,0,1,.753,2.7Zm1.989-8.887h-1.484v1.9h1.484Zm0,2.743h-1.484v2.013h1.484Zm1.483,6.321a13,13,0,0,0-1.648-2.731l.847-.388a13.923,13.923,0,0,1,1.707,2.566Z" stroke="#000" stroke-miterlimit="10" stroke-width="0.131"/>
      <path id="パス_38785" data-name="パス 38785" d="M1667.21,965.978v-.86h2.131v-3.8h.941v3.8h1.931v.86h-1.931a7.851,7.851,0,0,0,1.589,2.236l-.565.836a9.027,9.027,0,0,1-1.024-1.672v4.85h-.941v-4.8a10.479,10.479,0,0,1-1.849,2.825l-.4-1.012a10.52,10.52,0,0,0,2.19-3.26Zm.624-1.413a10.751,10.751,0,0,0-.577-2.4l.777-.211a12.277,12.277,0,0,1,.647,2.377Zm2.943-.247a9.712,9.712,0,0,0,.706-2.378l.859.177a9.593,9.593,0,0,1-.788,2.472Zm7.251,3.19.13.918-1.154.247v3.555h-1v-3.355l-4.108.86-.153-.883,4.261-.907v-6.627h1v6.415Zm-3.5-.259a8.005,8.005,0,0,0-2.048-1.707l.565-.706a9.12,9.12,0,0,1,2.118,1.671Zm.341-3.037a10.122,10.122,0,0,0-2.025-1.742l.565-.671a9.475,9.475,0,0,1,2.084,1.671Z" stroke="#000" stroke-miterlimit="10" stroke-width="0.131"/>
    </g>
  </g>
</svg>
