<svg xmlns="http://www.w3.org/2000/svg" width="410.085" height="28.581" viewBox="0 0 410.085 28.581">
  <g id="keyvisual_date" transform="translate(-421.467 -3210.186)">
    <g id="グループ_13660" data-name="グループ 13660" transform="translate(421.467 3210.186)">
      <g id="グループ_13654" data-name="グループ 13654" transform="translate(292.806 7.327)">
        <path id="パス_37579" data-name="パス 37579" d="M803.358,3233.188v2.136H801.38v3.919h-2.334v-3.919h-6.97v-2.369l5.689-13.494h2.687l-5.9,13.728h4.5v-3.994h2.334v3.994Z" transform="translate(-792.076 -3219.46)"/>
      </g>
      <rect id="長方形_3189" data-name="長方形 3189" width="76.217" height="22.432" transform="translate(333.369 5.648)" fill="none" stroke="#333" stroke-miterlimit="10" stroke-width="1"/>
      <g id="グループ_13658" data-name="グループ 13658">
        <g id="グループ_13655" data-name="グループ 13655" transform="translate(53.159 11.682)">
          <path id="パス_37580" data-name="パス 37580" d="M488.751,3243.652v-3.16h3.16v3.16Z" transform="translate(-488.751 -3228.23)"/>
          <path id="パス_37581" data-name="パス 37581" d="M684.405,3228.132v-3.16h3.16v3.16Zm0,9.1v-3.16h3.16v3.16Z" transform="translate(-529.825 -3224.972)"/>
          <path id="パス_37582" data-name="パス 37582" d="M732.795,3233.543v-2.211h5.849v2.211Z" transform="translate(-539.984 -3226.307)"/>
          <path id="パス_37583" data-name="パス 37583" d="M779.947,3228.132v-3.16h3.16v3.16Zm0,9.1v-3.16h3.16v3.16Z" transform="translate(-549.883 -3224.972)"/>
        </g>
        <path id="パス_37584" data-name="パス 37584" d="M447.322,3222.24v14.222q0,2.78-2.939,2.781h-3.445q-2.971,0-2.971-2.781V3222.24q0-2.78,2.971-2.78h3.445Q447.321,3219.46,447.322,3222.24Zm-2.334,14.026v-13.842a1.04,1.04,0,0,0-.19-.743,1.179,1.179,0,0,0-.759-.173h-2.79a.723.723,0,0,0-.917.917v13.842a.724.724,0,0,0,.917.917h2.79a1.167,1.167,0,0,0,.759-.175A1.031,1.031,0,0,0,444.988,3236.266Z" transform="translate(-424.931 -3212.133)"/>
        <path id="パス_37585" data-name="パス 37585" d="M421.467,3224.757h2.37v-2.178a1.156,1.156,0,0,1,.239-.859,1.3,1.3,0,0,1,.867-.213h1.484a1.26,1.26,0,0,1,.886.218,1.221,1.221,0,0,1,.218.855v1.474a6.517,6.517,0,0,1-.9,3.45l-5.128,9.666v2.065h8.562v-2.054h-5.9l4.663-8.7a9.285,9.285,0,0,0,1.107-4.327v-2.02c0-1.8-.939-2.678-2.871-2.678h-2.757c-1.91,0-2.839.876-2.839,2.678Z" transform="translate(-421.467 -3212.131)"/>
        <path id="パス_37586" data-name="パス 37586" d="M455.7,3224.757h2.37v-2.178a1.155,1.155,0,0,1,.239-.859,1.294,1.294,0,0,1,.866-.213h1.484a1.261,1.261,0,0,1,.887.218,1.22,1.22,0,0,1,.218.855v1.474a6.517,6.517,0,0,1-.9,3.45l-5.129,9.666v2.065h8.563v-2.054h-5.9l4.663-8.7a9.286,9.286,0,0,0,1.108-4.327v-2.02c0-1.8-.939-2.678-2.871-2.678h-2.757c-1.91,0-2.838.876-2.838,2.678Z" transform="translate(-428.653 -3212.131)"/>
        <path id="パス_37587" data-name="パス 37587" d="M471.745,3224.757h2.37v-2.178a1.156,1.156,0,0,1,.239-.859,1.294,1.294,0,0,1,.866-.213H476.7a1.26,1.26,0,0,1,.886.218,1.221,1.221,0,0,1,.218.855v1.474a6.517,6.517,0,0,1-.9,3.45l-5.129,9.666v2.065h8.563v-2.054h-5.9l4.663-8.7a9.285,9.285,0,0,0,1.107-4.327v-2.02c0-1.8-.939-2.678-2.871-2.678h-2.757c-1.91,0-2.839.876-2.839,2.678Z" transform="translate(-432.022 -3212.131)"/>
        <path id="パス_37588" data-name="パス 37588" d="M673.379,3222.13c0-1.8-.939-2.678-2.87-2.678h-3.4c-1.91,0-2.839.876-2.839,2.678v6.188c0,1.823.929,2.711,2.839,2.711h3.867v5.08a.865.865,0,0,1-1.073,1.073H667.81a1.253,1.253,0,0,1-.886-.219,1.213,1.213,0,0,1-.218-.854v-1.891h-2.37v2.339c0,1.8.939,2.678,2.87,2.678h3.3c1.932,0,2.87-.876,2.87-2.678Zm-2.4,6.908h-3.231a1.223,1.223,0,0,1-.871-.235,1.162,1.162,0,0,1-.235-.838v-5.386a1.153,1.153,0,0,1,.239-.859,1.291,1.291,0,0,1,.867-.214H669.9a.865.865,0,0,1,1.073,1.073Z" transform="translate(-472.44 -3212.131)"/>
        <path id="パス_37589" data-name="パス 37589" d="M698.56,3222.424v2.281h-2.367v-2.465q0-2.78,2.939-2.78h2.908q2.97,0,2.971,2.78v4.993q0,1.675-1.265,1.96a1.624,1.624,0,0,1,1.265,1.833v5.436q0,2.78-2.971,2.781h-2.908q-2.938,0-2.939-2.781v-2.433h2.367v2.238a1.031,1.031,0,0,0,.189.742,1.163,1.163,0,0,0,.758.175h2.222a1.163,1.163,0,0,0,.758-.175,1.032,1.032,0,0,0,.189-.742v-4.988a1.034,1.034,0,0,0-.189-.742,1.17,1.17,0,0,0-.758-.175h-2.312v-2.275h2.312a1.164,1.164,0,0,0,.758-.175,1.032,1.032,0,0,0,.189-.742v-4.747a1.04,1.04,0,0,0-.189-.743,1.175,1.175,0,0,0-.758-.173h-2.222a1.175,1.175,0,0,0-.758.173A1.04,1.04,0,0,0,698.56,3222.424Z" transform="translate(-479.141 -3212.133)"/>
        <path id="パス_37590" data-name="パス 37590" d="M760.6,3224.757h2.37v-2.178a1.155,1.155,0,0,1,.239-.859,1.294,1.294,0,0,1,.866-.213h1.484a1.261,1.261,0,0,1,.887.218,1.221,1.221,0,0,1,.218.855v1.474a6.517,6.517,0,0,1-.9,3.45l-5.129,9.666v2.065H769.2v-2.054h-5.9l4.664-8.7a9.294,9.294,0,0,0,1.107-4.327v-2.02c0-1.8-.939-2.678-2.871-2.678H763.44c-1.91,0-2.839.876-2.839,2.678Z" transform="translate(-492.662 -3212.131)"/>
        <g id="グループ_13656" data-name="グループ 13656" transform="translate(257.411 7.327)">
          <path id="パス_37591" data-name="パス 37591" d="M752.427,3219.46v19.783h-2.371v-17.751h-2.78v-2.032Z" transform="translate(-747.276 -3219.46)"/>
        </g>
        <g id="グループ_13657" data-name="グループ 13657" transform="translate(135.043 7.321)">
          <path id="パス_37592" data-name="パス 37592" d="M601.874,3219.452v2.307h-3.431v17.476h-2.618v-17.476h-3.431v-2.307Z" transform="translate(-592.393 -3219.452)"/>
        </g>
        <path id="パス_37593" data-name="パス 37593" d="M616.875,3219.452h2.619v19.783h-2.619v-8.691h-4.654v8.691H609.6v-19.783h2.619v8.785h4.654Z" transform="translate(-460.963 -3212.131)"/>
        <path id="パス_37594" data-name="パス 37594" d="M635.006,3219.452h2.65v17q0,2.781-2.971,2.781h-3.508q-2.971,0-2.971-2.781v-17h2.65v16.56a1.031,1.031,0,0,0,.19.742,1.166,1.166,0,0,0,.758.175h2.253a1.16,1.16,0,0,0,.774-.175,1.1,1.1,0,0,0,.174-.742Z" transform="translate(-464.868 -3212.131)"/>
        <path id="パス_37595" data-name="パス 37595" d="M547.509,3210.186h-3.8c-2.538,0-3.72,1.112-3.72,3.5v3.429h2.877v-2.81a1.759,1.759,0,0,1,.393-1.331,1.925,1.925,0,0,1,1.328-.347h2.048a1.876,1.876,0,0,1,1.364.359,1.83,1.83,0,0,1,.359,1.319v2.036a9.244,9.244,0,0,1-1.27,4.853l-7.055,13.3v2.6H551.45v-2.439h-8.273l6.592-12.3a12.625,12.625,0,0,0,1.5-5.878v-2.787C551.273,3211.3,550.077,3210.186,547.509,3210.186Z" transform="translate(-446.348 -3210.186)"/>
        <path id="パス_37596" data-name="パス 37596" d="M567.433,3237.092h4.557c2.568,0,3.764-1.112,3.764-3.5v-19.91c0-2.387-1.2-3.5-3.764-3.5H567.3c-2.538,0-3.72,1.112-3.72,3.5v8.538c0,2.417,1.182,3.543,3.72,3.543h5.534v7.208a1.379,1.379,0,0,1-1.679,1.678h-2.888a1.865,1.865,0,0,1-1.364-.36,1.816,1.816,0,0,1-.358-1.318v-2.411h-2.876v3.031C563.669,3235.98,564.866,3237.092,567.433,3237.092Zm.745-13.677a1.851,1.851,0,0,1-1.341-.382,1.78,1.78,0,0,1-.382-1.3V3214.3a1.757,1.757,0,0,1,.393-1.33,1.922,1.922,0,0,1,1.329-.348h2.977a1.378,1.378,0,0,1,1.679,1.678v9.111Z" transform="translate(-451.301 -3210.186)"/>
        <path id="パス_37597" data-name="パス 37597" d="M509.063,3237.092h4.558c2.568,0,3.764-1.112,3.764-3.5v-19.91c0-2.387-1.2-3.5-3.764-3.5h-4.691c-2.537,0-3.72,1.112-3.72,3.5v8.538c0,2.417,1.183,3.543,3.72,3.543h5.534v7.208a1.378,1.378,0,0,1-1.678,1.678H509.9a1.865,1.865,0,0,1-1.364-.36,1.816,1.816,0,0,1-.359-1.318v-2.411H505.3v3.031C505.3,3235.98,506.5,3237.092,509.063,3237.092Zm.746-13.677a1.85,1.85,0,0,1-1.341-.382,1.78,1.78,0,0,1-.382-1.3V3214.3a1.757,1.757,0,0,1,.393-1.33,1.92,1.92,0,0,1,1.329-.348h2.977a1.377,1.377,0,0,1,1.678,1.678v9.111Z" transform="translate(-439.048 -3210.186)"/>
      </g>
      <g id="グループ_13659" data-name="グループ 13659" transform="translate(341.013 9.146)">
        <path id="パス_37598" data-name="パス 37598" d="M855.438,3221.762h3.029q2.346,0,2.346,2.011v11.811q0,2.01-2.346,2.01h-3.029q-2.345,0-2.347-2.01v-11.811Q853.092,3221.764,855.438,3221.762Zm3.356,13.542v-11.251q0-.508-.178-.649a1.331,1.331,0,0,0-.744-.14h-1.841a1.32,1.32,0,0,0-.742.14q-.179.141-.179.649V3235.3q0,.508.179.648a1.314,1.314,0,0,0,.742.141h1.841a1.324,1.324,0,0,0,.744-.141Q858.795,3235.813,858.795,3235.3Z" transform="translate(-853.092 -3221.762)" stroke="#000" stroke-miterlimit="10" stroke-width="0.5"/>
        <path id="パス_37599" data-name="パス 37599" d="M875.125,3221.762H877v15.833h-2.227l-3.831-12.269v12.269h-1.871v-15.833h2.376l3.682,11.836Z" transform="translate(-856.446 -3221.762)" stroke="#000" stroke-miterlimit="10" stroke-width="0.5"/>
        <path id="パス_37600" data-name="パス 37600" d="M887.513,3236.094h4.247v1.5h-6.265v-15.833h2.019Z" transform="translate(-859.894 -3221.762)" stroke="#000" stroke-miterlimit="10" stroke-width="0.5"/>
        <path id="パス_37601" data-name="パス 37601" d="M897.935,3221.762h2.019v15.833h-2.019Z" transform="translate(-862.506 -3221.762)" stroke="#000" stroke-miterlimit="10" stroke-width="0.5"/>
        <path id="パス_37602" data-name="パス 37602" d="M912.375,3221.762h1.871v15.833h-2.227l-3.831-12.269v12.269h-1.871v-15.833h2.376l3.683,11.836Z" transform="translate(-864.266 -3221.762)" stroke="#000" stroke-miterlimit="10" stroke-width="0.5"/>
        <path id="パス_37603" data-name="パス 37603" d="M924.041,3236.094h5.078v1.5h-7.126v-15.833h6.919v1.5h-4.871v5.345h3.98v1.5h-3.98Z" transform="translate(-867.556 -3221.762)" stroke="#000" stroke-miterlimit="10" stroke-width="0.5"/>
      </g>
      <path id="パス_37604" data-name="パス 37604" d="M528.655,3243.652v-3.16h3.16v3.16Z" transform="translate(-443.969 -3216.548)"/>
    </g>
    <path id="パス_37605" data-name="パス 37605" d="M722.664,3222.24v14.222q0,2.78-2.939,2.781h-3.445q-2.971,0-2.971-2.781V3222.24q0-2.78,2.971-2.78h3.445Q722.664,3219.46,722.664,3222.24Zm-2.334,14.026v-13.842a1.036,1.036,0,0,0-.19-.743,1.18,1.18,0,0,0-.759-.173h-2.79a.723.723,0,0,0-.916.917v13.842a.724.724,0,0,0,.916.917h2.79a1.167,1.167,0,0,0,.759-.175A1.027,1.027,0,0,0,720.331,3236.266Z" transform="translate(-61.267 -1.947)"/>
    <path id="パス_37606" data-name="パス 37606" d="M820.453,3222.24v14.222q0,2.78-2.939,2.781H814.07q-2.971,0-2.971-2.781V3222.24q0-2.78,2.971-2.78h3.445Q820.453,3219.46,820.453,3222.24Zm-2.334,14.026v-13.842a1.036,1.036,0,0,0-.19-.743,1.177,1.177,0,0,0-.758-.173h-2.791a.723.723,0,0,0-.916.917v13.842a.724.724,0,0,0,.916.917h2.791a1.165,1.165,0,0,0,.758-.175A1.027,1.027,0,0,0,818.12,3236.266Z" transform="translate(-81.796 -1.947)"/>
  </g>
</svg>
