<svg xmlns="http://www.w3.org/2000/svg" xmlns:xlink="http://www.w3.org/1999/xlink" width="155" height="50" viewBox="0 0 155 50">
  <defs>
    <linearGradient id="linear-gradient" x1="0.073" y1="-0.815" x2="1.293" y2="2.344" gradientUnits="objectBoundingBox">
      <stop offset="0" stop-color="#37b4fa"/>
      <stop offset="1" stop-color="blue"/>
    </linearGradient>
  </defs>
  <g id="nav_btn_watch_archive_pc" transform="translate(-1211)">
    <rect id="長方形_2883" data-name="長方形 2883" width="155" height="50" transform="translate(1211)" fill="url(#linear-gradient)"/>
    <rect id="長方形_2883-2" data-name="長方形 2883" width="155" height="50" transform="translate(1211)" fill="url(#linear-gradient)"/>
    <path id="パス_38196" data-name="パス 38196" d="M21.546,7.954a7.207,7.207,0,0,1,.091,1.17c0,2.132-.312,3.51-1.963,4.654a5.137,5.137,0,0,1-1.365.715l1.508,1.235c3.549-1.9,3.614-4.55,3.614-7.774Zm6.149-2.717a6.477,6.477,0,0,1-1.313.117H19.375a10.306,10.306,0,0,1-1.586-.13V7.031c.611-.052,1.04-.091,1.586-.091h6.773a7.731,7.731,0,0,1-2.392,2.418L25.1,10.437a13.081,13.081,0,0,0,3.133-3.562,6.546,6.546,0,0,1,.507-.676Zm1.781,5.785c.481-.039,1.352-.065,2.093-.065H38.55c.546,0,1.209.052,1.521.065V8.981c-.338.026-.923.078-1.521.078H31.569c-.676,0-1.625-.039-2.093-.078ZM51.238,6.81a6.347,6.347,0,0,1-.988.091H47.806c.026-.377.039-.767.052-1.17.013-.312.039-.858.078-1.157H46.025a9.621,9.621,0,0,1,.091,1.2c0,.39-.013.767-.026,1.131H44.231c-.494,0-1.17-.039-1.716-.091v1.7c.559-.052,1.274-.052,1.716-.052h1.716A7.645,7.645,0,0,1,43.8,13.089a7.454,7.454,0,0,1-1.7,1.274l1.508,1.222c2.327-1.651,3.562-3.692,4.043-7.124h2.925a17.791,17.791,0,0,1-.546,4.823.692.692,0,0,1-.741.455,10.76,10.76,0,0,1-1.82-.182l.195,1.742c.637.052,1.417.1,2.158.1a1.6,1.6,0,0,0,1.677-1c.559-1.326.715-4.953.767-6.357a5.619,5.619,0,0,1,.091-.689ZM61.82,8.552a21.241,21.241,0,0,0,3.445-2.8L63.874,4.5a13.721,13.721,0,0,1-3.393,2.938,19.972,19.972,0,0,1-5.915,2.353l.936,1.586A25.417,25.417,0,0,0,59.974,9.6v4.264a14.559,14.559,0,0,1-.091,1.7h2.054a8.937,8.937,0,0,1-.117-1.7Zm15.548-2.8a17.144,17.144,0,0,0-1-1.716L75.3,4.483c.247.377.507.832.728,1.261a5.454,5.454,0,0,1-.611.026H69.4a14.475,14.475,0,0,1-1.547-.1V7.5c.338-.026.949-.052,1.547-.052h6.058a8.348,8.348,0,0,1-1.534,3.666,8.543,8.543,0,0,1-5.1,3.055l1.417,1.547a10.288,10.288,0,0,0,5.226-3.588,13.123,13.123,0,0,0,1.95-4.732,6.567,6.567,0,0,1,.286-.9l-.819-.533Zm-.26-1.6A15.41,15.41,0,0,1,78.148,5.9l1.079-.468c-.247-.455-.715-1.248-1.04-1.716Zm4.056.689a9.659,9.659,0,0,1-.117,1.261,38.156,38.156,0,0,0-.533,5.369,15.529,15.529,0,0,0,.507,4.108l1.456-.1c-.013-.182-.013-.4-.013-.533a2.541,2.541,0,0,1,.065-.6,30.711,30.711,0,0,1,.923-3.068l-.793-.637c-.195.429-.4.858-.572,1.313a5.958,5.958,0,0,1-.052-.832,34.048,34.048,0,0,1,.611-4.979A10.819,10.819,0,0,1,82.958,5Zm6.5,7.995c0,.754-.273,1.17-1.066,1.17-.676,0-1.2-.234-1.2-.754,0-.481.494-.78,1.222-.78a4.014,4.014,0,0,1,1.04.143Zm4.069.52A8.172,8.172,0,0,0,89.25,11.7c-.052-.871-.117-1.9-.143-3.146.7-.052,1.378-.13,2-.221v-1.6c-.611.13-1.287.221-1.989.3,0-.572.026-1.053.039-1.339a8.223,8.223,0,0,1,.078-.832H87.391a7.284,7.284,0,0,1,.078.845c.013.273.013.793.026,1.43-.3.013-.611.013-.91.013a21.347,21.347,0,0,1-2.249-.117V8.565c.767.052,1.5.078,2.249.078.3,0,.611,0,.923-.013.013.91.052,1.846.091,2.639a5.783,5.783,0,0,0-.845-.052c-1.755,0-2.86.9-2.86,2.21,0,1.352,1.118,2.106,2.886,2.106,1.742,0,2.444-.884,2.522-2.106a13.129,13.129,0,0,1,1.56,1.287ZM95.36,7.291c1.053.078,2.171.143,3.523.143,1.222,0,2.821-.091,3.718-.156V5.549c-.988.1-2.457.182-3.731.182a33.74,33.74,0,0,1-3.51-.156Zm-.6,3.588a8.28,8.28,0,0,0-.26,1.859c0,1.768,1.482,2.756,4.433,2.756a19.656,19.656,0,0,0,4.472-.442l-.013-1.807a18.256,18.256,0,0,1-4.524.507c-1.859,0-2.639-.6-2.639-1.417a5.341,5.341,0,0,1,.221-1.3Zm20.1-5.109a30.974,30.974,0,0,1-4.758.611l.078-.39a13.456,13.456,0,0,1,.3-1.313l-1.82-.078a7.875,7.875,0,0,1-.065,1.3c-.013.156-.052.325-.078.52a18.207,18.207,0,0,1-2.522-.247v1.6c.65.065,1.4.117,2.223.13a20.807,20.807,0,0,1-1.469,4.316l1.521.546a3.778,3.778,0,0,1,.364-.559,4.417,4.417,0,0,1,3.562-1.521c1.248,0,1.924.65,1.924,1.417,0,1.9-2.847,2.236-5.668,1.781l.455,1.664c4.16.442,6.942-.6,6.942-3.5,0-1.638-1.378-2.756-3.458-2.756a6.26,6.26,0,0,0-3.2.806,22.719,22.719,0,0,0,.585-2.223c1.729-.091,3.77-.338,5.109-.546Zm5.772.364c1,.26,3.874.858,5.174,1.027l.39-1.586a40.757,40.757,0,0,1-5.148-1Zm.494,1.027-1.742-.234a46.875,46.875,0,0,1-.637,5.369l1.5.377a2.79,2.79,0,0,1,.481-.754,4.513,4.513,0,0,1,3.549-1.508c1.131,0,1.924.611,1.924,1.443,0,1.638-2.041,2.587-5.9,2.041l.494,1.69c5.356.468,7.215-1.339,7.215-3.692,0-1.56-1.313-2.951-3.575-2.951a6.313,6.313,0,0,0-3.783,1.222C120.736,9.423,120.957,7.876,121.126,7.161Z" transform="translate(1216 15)" fill="#fff"/>
  </g>
</svg>
