<svg xmlns="http://www.w3.org/2000/svg" xmlns:xlink="http://www.w3.org/1999/xlink" width="155" height="50" viewBox="0 0 155 50">
  <defs>
    <linearGradient id="linear-gradient" x1="0.073" y1="-0.815" x2="1.293" y2="2.344" gradientUnits="objectBoundingBox">
      <stop offset="0" stop-color="#37b4fa"/>
      <stop offset="1" stop-color="blue"/>
    </linearGradient>
  </defs>
  <g id="nav_btn_watch" transform="translate(-3759 552)">
    <rect id="長方形_3191" data-name="長方形 3191" width="155" height="50" transform="translate(3759 -552)" fill="url(#linear-gradient)"/>
    <path id="パス_37635" data-name="パス 37635" d="M26.282,4.562a20.055,20.055,0,0,1-1.526,3.5l1.456.5a31.548,31.548,0,0,0,1.932-3.458ZM20.29,7.838a12.477,12.477,0,0,0-1.736-3.15l-1.512.6A13.205,13.205,0,0,1,18.68,8.51Zm3.164-3.71H21.62V8.972H17.378v1.666h8.75v1.288H17.854v1.61h8.274v1.456H17.056v1.652h9.072v.574h1.778V8.972H23.454ZM34.542,14.46V11.324h6.216V14.46Zm6.216-7.8v3.01H34.542V6.662ZM32.82,4.982V17.05h1.722v-.91h6.216v.882H42.55V4.982ZM52.154,11.9c-.266-.28-1.274-1.246-1.89-1.778A14.081,14.081,0,0,0,51.72,7.264l-.924-.6-.28.07h-.574V4.156H48.3V6.732H46.512v1.5h3.15a10.444,10.444,0,0,1-3.668,3.92,7.2,7.2,0,0,1,.756,1.582,11.361,11.361,0,0,0,1.554-1.26v4.746h1.638v-5.46a19.308,19.308,0,0,1,1.2,1.526Zm1.652-1.414h3.066v.938H53.806Zm0-2.17h3.066v.938H53.806Zm0-2.17h3.066v.924H53.806Zm3.43,9.548c-.21,0-.238-.042-.238-.434v-2.52h1.47V4.828H52.294v7.91h.91A3.343,3.343,0,0,1,50.7,15.93a4.17,4.17,0,0,1,.938,1.288c2.31-.924,2.926-2.478,3.15-4.48h.7v2.548c0,1.358.266,1.806,1.484,1.806h.98c.952,0,1.33-.476,1.47-2.366a4.1,4.1,0,0,1-1.33-.588c-.028,1.372-.084,1.554-.322,1.554Zm6.314-1.974V11.982h1.176v1.624Zm1.176-7.406v1.47H63.55V6.312ZM63.55,9.14h1.176v1.484H63.55Zm2.632-2.828h.6v-1.5h-5.25v1.5h.6v7.532l-.91.07.182,1.554c.98-.112,2.142-.224,3.318-.378v2.142h1.456V16.014l1.19.672a7.133,7.133,0,0,0,1.064-3.08L67.12,13.2a6.6,6.6,0,0,1-.938,2.674Zm2.842,4.326h-.756V9.07h.756ZM71.936,9.07h.812v1.568h-.812Zm-1.05,1.568h-.8V9.07h.8Zm3.78,5.4a9.377,9.377,0,0,0-1.5-3l-1.274.6a9.343,9.343,0,0,1,.84,1.47,3.87,3.87,0,0,1-1.218-.532c-.028,1.05-.1,1.19-.35,1.19H70.4c-.28,0-.322-.056-.322-.392V13.242a6.922,6.922,0,0,1,.966.938l1.05-.966a6.973,6.973,0,0,0-1.652-1.33h3.7V7.824H71.306V6.858h2.912v-1.4H71.306V4.282h-1.6V5.458H66.854v1.4H69.71v.966H66.938v4.06h2.8l-.728.6a9.55,9.55,0,0,1,.938.658H68.6V15.4c0,1.3.266,1.736,1.554,1.736h1.19c.91,0,1.3-.378,1.456-1.862a7.628,7.628,0,0,1,.476,1.414ZM78.222,5.066A10.4,10.4,0,0,1,78.1,6.424a41.091,41.091,0,0,0-.574,5.782,16.724,16.724,0,0,0,.546,4.424l1.568-.112c-.014-.2-.014-.434-.014-.574a2.737,2.737,0,0,1,.07-.644,33.072,33.072,0,0,1,.994-3.3l-.854-.686c-.21.462-.434.924-.616,1.414a6.417,6.417,0,0,1-.056-.9,36.667,36.667,0,0,1,.658-5.362,11.652,11.652,0,0,1,.336-1.232Zm7,8.61c0,.812-.294,1.26-1.148,1.26-.728,0-1.288-.252-1.288-.812,0-.518.532-.84,1.316-.84a4.322,4.322,0,0,1,1.12.154Zm4.382.56a8.8,8.8,0,0,0-2.674-1.792c-.056-.938-.126-2.044-.154-3.388.756-.056,1.484-.14,2.156-.238V7.1c-.658.14-1.386.238-2.142.322,0-.616.028-1.134.042-1.442a8.855,8.855,0,0,1,.084-.9H84.928a7.845,7.845,0,0,1,.084.91c.014.294.014.854.028,1.54-.322.014-.658.014-.98.014a22.989,22.989,0,0,1-2.422-.126V9.07c.826.056,1.61.084,2.422.084.322,0,.658,0,.994-.014.014.98.056,1.988.1,2.842a6.228,6.228,0,0,0-.91-.056c-1.89,0-3.08.966-3.08,2.38,0,1.456,1.2,2.268,3.108,2.268,1.876,0,2.632-.952,2.716-2.268a14.139,14.139,0,0,1,1.68,1.386ZM93.51,7.7c1.134.084,2.338.154,3.794.154,1.316,0,3.038-.1,4-.168V5.822c-1.064.112-2.646.2-4.018.2a36.336,36.336,0,0,1-3.78-.168Zm-.644,3.864a8.918,8.918,0,0,0-.28,2c0,1.9,1.6,2.968,4.774,2.968a21.168,21.168,0,0,0,4.816-.476l-.014-1.946a19.66,19.66,0,0,1-4.872.546c-2,0-2.842-.644-2.842-1.526a5.752,5.752,0,0,1,.238-1.4Zm21.644-5.5a33.356,33.356,0,0,1-5.124.658l.084-.42a14.492,14.492,0,0,1,.322-1.414l-1.96-.084a8.481,8.481,0,0,1-.07,1.4c-.014.168-.056.35-.084.56a19.607,19.607,0,0,1-2.716-.266V8.216c.7.07,1.512.126,2.394.14A22.407,22.407,0,0,1,105.774,13l1.638.588a4.068,4.068,0,0,1,.392-.6,4.757,4.757,0,0,1,3.836-1.638c1.344,0,2.072.7,2.072,1.526,0,2.044-3.066,2.408-6.1,1.918l.49,1.792c4.48.476,7.476-.644,7.476-3.766,0-1.764-1.484-2.968-3.724-2.968a6.741,6.741,0,0,0-3.444.868,24.465,24.465,0,0,0,.63-2.394c1.862-.1,4.06-.364,5.5-.588Zm6.216.392c1.078.28,4.172.924,5.572,1.106l.42-1.708a43.892,43.892,0,0,1-5.544-1.078Zm.532,1.106-1.876-.252a50.481,50.481,0,0,1-.686,5.782l1.61.406a3,3,0,0,1,.518-.812,4.86,4.86,0,0,1,3.822-1.624c1.218,0,2.072.658,2.072,1.554,0,1.764-2.2,2.786-6.356,2.2l.532,1.82c5.768.5,7.77-1.442,7.77-3.976,0-1.68-1.414-3.178-3.85-3.178a6.8,6.8,0,0,0-4.074,1.316C120.838,9.994,121.076,8.328,121.258,7.558Z" transform="translate(3764 -537)" fill="#fff"/>
  </g>
</svg>
