<svg xmlns="http://www.w3.org/2000/svg" xmlns:xlink="http://www.w3.org/1999/xlink" width="155" height="50" viewBox="0 0 155 50">
  <defs>
    <linearGradient id="linear-gradient" x1="0.073" y1="-0.815" x2="1.293" y2="2.344" gradientUnits="objectBoundingBox">
      <stop offset="0" stop-color="#37b4fa"/>
      <stop offset="1" stop-color="blue"/>
    </linearGradient>
  </defs>
  <g id="nav_btn_watch_finished_pc" transform="translate(-1081 -25)">
    <g id="グループ_13800" data-name="グループ 13800" transform="translate(-130 25)">
      <rect id="長方形_2883" data-name="長方形 2883" width="155" height="50" transform="translate(1211)" fill="url(#linear-gradient)"/>
      <path id="パス_37889" data-name="パス 37889" d="M21.546,7.954a7.207,7.207,0,0,1,.091,1.17c0,2.132-.312,3.51-1.963,4.654a5.137,5.137,0,0,1-1.365.715l1.508,1.235c3.549-1.9,3.614-4.55,3.614-7.774Zm6.149-2.717a6.477,6.477,0,0,1-1.313.117H19.375a10.306,10.306,0,0,1-1.586-.13V7.031c.611-.052,1.04-.091,1.586-.091h6.773a7.731,7.731,0,0,1-2.392,2.418L25.1,10.437a13.081,13.081,0,0,0,3.133-3.562,6.546,6.546,0,0,1,.507-.676Zm1.781,5.785c.481-.039,1.352-.065,2.093-.065H38.55c.546,0,1.209.052,1.521.065V8.981c-.338.026-.923.078-1.521.078H31.569c-.676,0-1.625-.039-2.093-.078ZM51.238,6.81a6.347,6.347,0,0,1-.988.091H47.806c.026-.377.039-.767.052-1.17.013-.312.039-.858.078-1.157H46.025a9.621,9.621,0,0,1,.091,1.2c0,.39-.013.767-.026,1.131H44.231c-.494,0-1.17-.039-1.716-.091v1.7c.559-.052,1.274-.052,1.716-.052h1.716A7.645,7.645,0,0,1,43.8,13.089a7.454,7.454,0,0,1-1.7,1.274l1.508,1.222c2.327-1.651,3.562-3.692,4.043-7.124h2.925a17.791,17.791,0,0,1-.546,4.823.692.692,0,0,1-.741.455,10.76,10.76,0,0,1-1.82-.182l.195,1.742c.637.052,1.417.1,2.158.1a1.6,1.6,0,0,0,1.677-1c.559-1.326.715-4.953.767-6.357a5.619,5.619,0,0,1,.091-.689ZM61.82,8.552a21.241,21.241,0,0,0,3.445-2.8L63.874,4.5a13.721,13.721,0,0,1-3.393,2.938,19.972,19.972,0,0,1-5.915,2.353l.936,1.586A25.417,25.417,0,0,0,59.974,9.6v4.264a14.559,14.559,0,0,1-.091,1.7h2.054a8.937,8.937,0,0,1-.117-1.7Zm15.548-2.8a17.144,17.144,0,0,0-1-1.716L75.3,4.483c.247.377.507.832.728,1.261a5.454,5.454,0,0,1-.611.026H69.4a14.475,14.475,0,0,1-1.547-.1V7.5c.338-.026.949-.052,1.547-.052h6.058a8.348,8.348,0,0,1-1.534,3.666,8.543,8.543,0,0,1-5.1,3.055l1.417,1.547a10.288,10.288,0,0,0,5.226-3.588,13.123,13.123,0,0,0,1.95-4.732,6.567,6.567,0,0,1,.286-.9l-.819-.533Zm-.26-1.6A15.41,15.41,0,0,1,78.148,5.9l1.079-.468c-.247-.455-.715-1.248-1.04-1.716Zm4.056.689a9.659,9.659,0,0,1-.117,1.261,38.156,38.156,0,0,0-.533,5.369,15.529,15.529,0,0,0,.507,4.108l1.456-.1c-.013-.182-.013-.4-.013-.533a2.541,2.541,0,0,1,.065-.6,30.711,30.711,0,0,1,.923-3.068l-.793-.637c-.195.429-.4.858-.572,1.313a5.958,5.958,0,0,1-.052-.832,34.048,34.048,0,0,1,.611-4.979A10.819,10.819,0,0,1,82.958,5Zm6.5,7.995c0,.754-.273,1.17-1.066,1.17-.676,0-1.2-.234-1.2-.754,0-.481.494-.78,1.222-.78a4.014,4.014,0,0,1,1.04.143Zm4.069.52A8.172,8.172,0,0,0,89.25,11.7c-.052-.871-.117-1.9-.143-3.146.7-.052,1.378-.13,2-.221v-1.6c-.611.13-1.287.221-1.989.3,0-.572.026-1.053.039-1.339a8.223,8.223,0,0,1,.078-.832H87.391a7.284,7.284,0,0,1,.078.845c.013.273.013.793.026,1.43-.3.013-.611.013-.91.013a21.347,21.347,0,0,1-2.249-.117V8.565c.767.052,1.5.078,2.249.078.3,0,.611,0,.923-.013.013.91.052,1.846.091,2.639a5.783,5.783,0,0,0-.845-.052c-1.755,0-2.86.9-2.86,2.21,0,1.352,1.118,2.106,2.886,2.106,1.742,0,2.444-.884,2.522-2.106a13.129,13.129,0,0,1,1.56,1.287ZM95.36,7.291c1.053.078,2.171.143,3.523.143,1.222,0,2.821-.091,3.718-.156V5.549c-.988.1-2.457.182-3.731.182a33.74,33.74,0,0,1-3.51-.156Zm-.6,3.588a8.28,8.28,0,0,0-.26,1.859c0,1.768,1.482,2.756,4.433,2.756a19.656,19.656,0,0,0,4.472-.442l-.013-1.807a18.256,18.256,0,0,1-4.524.507c-1.859,0-2.639-.6-2.639-1.417a5.341,5.341,0,0,1,.221-1.3Zm20.1-5.109a30.974,30.974,0,0,1-4.758.611l.078-.39a13.456,13.456,0,0,1,.3-1.313l-1.82-.078a7.875,7.875,0,0,1-.065,1.3c-.013.156-.052.325-.078.52a18.207,18.207,0,0,1-2.522-.247v1.6c.65.065,1.4.117,2.223.13a20.807,20.807,0,0,1-1.469,4.316l1.521.546a3.778,3.778,0,0,1,.364-.559,4.417,4.417,0,0,1,3.562-1.521c1.248,0,1.924.65,1.924,1.417,0,1.9-2.847,2.236-5.668,1.781l.455,1.664c4.16.442,6.942-.6,6.942-3.5,0-1.638-1.378-2.756-3.458-2.756a6.26,6.26,0,0,0-3.2.806,22.719,22.719,0,0,0,.585-2.223c1.729-.091,3.77-.338,5.109-.546Zm5.772.364c1,.26,3.874.858,5.174,1.027l.39-1.586a40.757,40.757,0,0,1-5.148-1Zm.494,1.027-1.742-.234a46.875,46.875,0,0,1-.637,5.369l1.5.377a2.79,2.79,0,0,1,.481-.754,4.513,4.513,0,0,1,3.549-1.508c1.131,0,1.924.611,1.924,1.443,0,1.638-2.041,2.587-5.9,2.041l.494,1.69c5.356.468,7.215-1.339,7.215-3.692,0-1.56-1.313-2.951-3.575-2.951a6.313,6.313,0,0,0-3.783,1.222C120.736,9.423,120.957,7.876,121.126,7.161Z" transform="translate(1216 7)" fill="#fff"/>
      <g id="グループ_12948" data-name="グループ 12948" transform="translate(-0.5 1)">
        <g id="グループ_12845" data-name="グループ 12845" transform="translate(-828.06 -291.543)">
          <path id="パス_37888" data-name="パス 37888" d="M-37.512-7.74a2.71,2.71,0,0,0-2.172.924,3.764,3.764,0,0,0-.792,2.532,3.955,3.955,0,0,0,.738,2.526,2.655,2.655,0,0,0,2.214.93,5.635,5.635,0,0,0,1.056-.1q.5-.1,1-.24v.936a5.236,5.236,0,0,1-.99.264A7.615,7.615,0,0,1-37.68.12a4.093,4.093,0,0,1-2.184-.54,3.325,3.325,0,0,1-1.314-1.536,5.775,5.775,0,0,1-.438-2.34,5.235,5.235,0,0,1,.474-2.286,3.567,3.567,0,0,1,1.4-1.548A4.264,4.264,0,0,1-37.5-8.688a5.225,5.225,0,0,1,2.364.5l-.432.912A6.808,6.808,0,0,0-36.45-7.6,3.726,3.726,0,0,0-37.512-7.74ZM-26.6-4.3a5.567,5.567,0,0,1-.45,2.322A3.461,3.461,0,0,1-28.386-.432,4.006,4.006,0,0,1-30.552.12a4.1,4.1,0,0,1-2.214-.552A3.348,3.348,0,0,1-34.08-1.98a5.812,5.812,0,0,1-.432-2.328,5.7,5.7,0,0,1,.432-2.3,3.353,3.353,0,0,1,1.314-1.542A4.127,4.127,0,0,1-30.54-8.7a4.009,4.009,0,0,1,2.16.546,3.437,3.437,0,0,1,1.326,1.536A5.567,5.567,0,0,1-26.6-4.3Zm-6.768,0a4.223,4.223,0,0,0,.684,2.55,2.475,2.475,0,0,0,2.136.93,2.459,2.459,0,0,0,2.13-.93,4.251,4.251,0,0,0,.678-2.55,4.223,4.223,0,0,0-.672-2.538,2.456,2.456,0,0,0-2.124-.918,2.5,2.5,0,0,0-2.148.918A4.168,4.168,0,0,0-33.372-4.3Zm12.2,4.3-2.82-7.512h-.048q.036.372.06,1t.024,1.314V0h-1V-8.568h1.6l2.64,7.02h.048l2.688-7.02h1.584V0H-17.46V-5.268q0-.624.03-1.236t.054-1h-.048L-20.28,0Zm9.276,0h-3.1V-.624l1.008-.228V-7.7l-1.008-.24v-.624h3.1v.624L-12.9-7.7V-.852l1.008.228Zm8.208,0h-1.26L-9.528-7.116h-.048q.024.42.06,1.044t.036,1.284V0h-1V-8.568h1.248l4.572,7.092h.048q-.012-.192-.03-.576t-.036-.834q-.018-.45-.018-.846V-8.568h1.008ZM2.124-4.524H5.088v4.2a8.735,8.735,0,0,1-1.4.336A10.746,10.746,0,0,1,2.076.12,4.375,4.375,0,0,1-.168-.414,3.442,3.442,0,0,1-1.554-1.938a5.384,5.384,0,0,1-.474-2.346,4.91,4.91,0,0,1,.522-2.322A3.673,3.673,0,0,1,.012-8.142a4.926,4.926,0,0,1,2.4-.546,6.754,6.754,0,0,1,1.362.132,6.034,6.034,0,0,1,1.194.372l-.408.936A7.7,7.7,0,0,0,3.534-7.59a4.625,4.625,0,0,0-1.182-.15,3.1,3.1,0,0,0-2.394.93A3.58,3.58,0,0,0-.9-4.284,4.632,4.632,0,0,0-.57-2.478,2.573,2.573,0,0,0,.468-1.254a3.5,3.5,0,0,0,1.86.438,6.536,6.536,0,0,0,.96-.06,7.149,7.149,0,0,0,.72-.144V-3.564H2.124ZM14.64-2.292a2.112,2.112,0,0,1-.828,1.776A3.574,3.574,0,0,1,11.58.12,7.677,7.677,0,0,1,10.248.012a4.082,4.082,0,0,1-1.02-.3V-1.32A6.406,6.406,0,0,0,10.3-.972a5.6,5.6,0,0,0,1.326.156,2.361,2.361,0,0,0,1.44-.372A1.2,1.2,0,0,0,13.56-2.2a1.311,1.311,0,0,0-.18-.708,1.621,1.621,0,0,0-.624-.528,10.1,10.1,0,0,0-1.212-.528,4.254,4.254,0,0,1-1.656-.972A2.178,2.178,0,0,1,9.336-6.5a1.963,1.963,0,0,1,.348-1.164,2.221,2.221,0,0,1,.96-.756,3.582,3.582,0,0,1,1.428-.264,5.862,5.862,0,0,1,1.284.132,5.893,5.893,0,0,1,1.08.348l-.336.924a6.292,6.292,0,0,0-.972-.324,4.436,4.436,0,0,0-1.08-.132,1.848,1.848,0,0,0-1.212.342,1.123,1.123,0,0,0-.408.906,1.335,1.335,0,0,0,.18.72,1.625,1.625,0,0,0,.588.522,7.228,7.228,0,0,0,1.1.486,7.246,7.246,0,0,1,1.278.594,2.3,2.3,0,0,1,.792.762A2.116,2.116,0,0,1,14.64-2.292Zm8.964-2a5.567,5.567,0,0,1-.45,2.322A3.461,3.461,0,0,1,21.822-.432,4.006,4.006,0,0,1,19.656.12a4.1,4.1,0,0,1-2.214-.552A3.348,3.348,0,0,1,16.128-1.98,5.812,5.812,0,0,1,15.7-4.308a5.7,5.7,0,0,1,.432-2.3,3.353,3.353,0,0,1,1.314-1.542A4.127,4.127,0,0,1,19.668-8.7a4.009,4.009,0,0,1,2.16.546,3.437,3.437,0,0,1,1.326,1.536A5.567,5.567,0,0,1,23.6-4.3Zm-6.768,0a4.223,4.223,0,0,0,.684,2.55,2.475,2.475,0,0,0,2.136.93,2.459,2.459,0,0,0,2.13-.93,4.251,4.251,0,0,0,.678-2.55,4.223,4.223,0,0,0-.672-2.538,2.456,2.456,0,0,0-2.124-.918,2.5,2.5,0,0,0-2.148.918A4.168,4.168,0,0,0,16.836-4.3Zm15.9,0a5.567,5.567,0,0,1-.45,2.322A3.461,3.461,0,0,1,30.954-.432,4.006,4.006,0,0,1,28.788.12a4.1,4.1,0,0,1-2.214-.552A3.348,3.348,0,0,1,25.26-1.98a5.812,5.812,0,0,1-.432-2.328,5.7,5.7,0,0,1,.432-2.3,3.353,3.353,0,0,1,1.314-1.542A4.127,4.127,0,0,1,28.8-8.7a4.009,4.009,0,0,1,2.16.546,3.437,3.437,0,0,1,1.326,1.536A5.567,5.567,0,0,1,32.736-4.3Zm-6.768,0a4.223,4.223,0,0,0,.684,2.55,2.475,2.475,0,0,0,2.136.93,2.459,2.459,0,0,0,2.13-.93A4.251,4.251,0,0,0,31.6-4.3a4.223,4.223,0,0,0-.672-2.538A2.456,2.456,0,0,0,28.8-7.752a2.5,2.5,0,0,0-2.148.918A4.168,4.168,0,0,0,25.968-4.3ZM41.184,0h-1.26L35.34-7.116h-.048q.024.42.06,1.044t.036,1.284V0h-1V-8.568H35.64l4.572,7.092h.048q-.012-.192-.03-.576t-.036-.834q-.018-.45-.018-.846V-8.568h1.008Z" transform="translate(2118.06 328.543)" fill="#fff"/>
        </g>
        <line id="線_41" data-name="線 41" x2="7" transform="translate(1238.5 32.5)" fill="none" stroke="#fff" stroke-width="1"/>
        <line id="線_42" data-name="線 42" x2="7" transform="translate(1333.5 32.5)" fill="none" stroke="#fff" stroke-width="1"/>
      </g>
    </g>
  </g>
</svg>
