<svg xmlns="http://www.w3.org/2000/svg" xmlns:xlink="http://www.w3.org/1999/xlink" width="375" height="80" viewBox="0 0 375 80">
  <defs>
    <linearGradient id="linear-gradient" x1="0.5" y1="-1.21" x2="1" y2="2.458" gradientUnits="objectBoundingBox">
      <stop offset="0" stop-color="#37b4fa"/>
      <stop offset="1" stop-color="blue"/>
    </linearGradient>
  </defs>
  <g id="nav_btn_watch_sp" transform="translate(0 -802)">
    <rect id="長方形_2923" data-name="長方形 2923" width="375" height="80" transform="translate(0 802)" fill="url(#linear-gradient)"/>
    <g id="グループ_13054" data-name="グループ 13054">
      <g id="グループ_12323" data-name="グループ 12323" transform="translate(-577.378 -17.054)">
        <g id="グループ_12322" data-name="グループ 12322" transform="translate(925.502 855.054)">
          <path id="パス_35629" data-name="パス 35629" d="M925.5,855.054l6.876,4.057-6.876,4.074Z" transform="translate(-925.502 -855.054)" fill="#fff"/>
        </g>
      </g>
      <g id="グループ_13053" data-name="グループ 13053" transform="translate(0 -1)">
        <g id="グループ_13052" data-name="グループ 13052">
          <path id="パス_36200" data-name="パス 36200" d="M45.488,5.928a22.92,22.92,0,0,1-1.744,4l1.664.576a36.056,36.056,0,0,0,2.208-3.952ZM38.64,9.672a14.259,14.259,0,0,0-1.984-3.6l-1.728.688A15.091,15.091,0,0,1,36.8,10.44Zm3.616-4.24h-2.1v5.536H35.312v1.9h10v1.472H35.856v1.84h9.456v1.664H34.944v1.888H45.312v.656h2.032V10.968H42.256ZM54.448,17.24V13.656h7.1V17.24Zm7.1-8.912v3.44h-7.1V8.328ZM52.48,6.408V20.2h1.968V19.16h7.1v1.008H63.6V6.408Zm21.616,7.9c-.3-.32-1.456-1.424-2.16-2.032A16.092,16.092,0,0,0,73.6,9.016l-1.056-.688-.32.08h-.656V5.464H69.7V8.408H67.648V10.12h3.6a11.936,11.936,0,0,1-4.192,4.48,8.227,8.227,0,0,1,.864,1.808,12.985,12.985,0,0,0,1.776-1.44v5.424h1.872v-6.24A22.066,22.066,0,0,1,72.944,15.9ZM75.984,12.7h3.5v1.072h-3.5Zm0-2.48h3.5v1.072h-3.5Zm0-2.48h3.5V8.792h-3.5ZM79.9,18.648c-.24,0-.272-.048-.272-.5v-2.88h1.68V6.232H74.256v9.04H75.3a3.82,3.82,0,0,1-2.864,3.648A4.765,4.765,0,0,1,73.5,20.392c2.64-1.056,3.344-2.832,3.6-5.12h.8v2.912c0,1.552.3,2.064,1.7,2.064h1.12c1.088,0,1.52-.544,1.68-2.7a4.682,4.682,0,0,1-1.52-.672c-.032,1.568-.1,1.776-.368,1.776Zm6.736-2.256V14.408h1.344v1.856Zm1.344-8.464v1.68H86.64V7.928ZM86.64,11.16h1.344v1.7H86.64Zm3.008-3.232h.688V6.216h-6V7.928h.688v8.608l-1.04.08.208,1.776c1.12-.128,2.448-.256,3.792-.432v2.448h1.664V19.016l1.36.768a8.152,8.152,0,0,0,1.216-3.52l-1.5-.464a7.542,7.542,0,0,1-1.072,3.056ZM92.9,12.872h-.864V11.08H92.9Zm3.328-1.792h.928v1.792h-.928Zm-1.2,1.792h-.912V11.08h.912Zm4.32,6.176a10.717,10.717,0,0,0-1.712-3.424l-1.456.688a10.678,10.678,0,0,1,.96,1.68,4.422,4.422,0,0,1-1.392-.608c-.032,1.2-.112,1.36-.4,1.36h-.88c-.32,0-.368-.064-.368-.448V15.848a7.911,7.911,0,0,1,1.1,1.072l1.2-1.1a7.969,7.969,0,0,0-1.888-1.52h4.224V9.656H95.5v-1.1h3.328v-1.6H95.5V5.608H93.68V6.952H90.416v1.6H93.68v1.1H90.512V14.3h3.2l-.832.688a10.913,10.913,0,0,1,1.072.752H92.416v2.576c0,1.488.3,1.984,1.776,1.984h1.36c1.04,0,1.488-.432,1.664-2.128a8.717,8.717,0,0,1,.544,1.616ZM102.768,6.5a11.888,11.888,0,0,1-.144,1.552,46.961,46.961,0,0,0-.656,6.608,19.113,19.113,0,0,0,.624,5.056l1.792-.128c-.016-.224-.016-.5-.016-.656a3.128,3.128,0,0,1,.08-.736,37.8,37.8,0,0,1,1.136-3.776l-.976-.784c-.24.528-.5,1.056-.7,1.616a7.334,7.334,0,0,1-.064-1.024,41.905,41.905,0,0,1,.752-6.128,13.314,13.314,0,0,1,.384-1.408Zm8,9.84c0,.928-.336,1.44-1.312,1.44-.832,0-1.472-.288-1.472-.928,0-.592.608-.96,1.5-.96a4.94,4.94,0,0,1,1.28.176Zm5.008.64a10.057,10.057,0,0,0-3.056-2.048c-.064-1.072-.144-2.336-.176-3.872.864-.064,1.7-.16,2.464-.272V8.824c-.752.16-1.584.272-2.448.368,0-.7.032-1.3.048-1.648a10.119,10.119,0,0,1,.1-1.024h-2.272a8.964,8.964,0,0,1,.1,1.04c.016.336.016.976.032,1.76-.368.016-.752.016-1.12.016a26.273,26.273,0,0,1-2.768-.144V11.08c.944.064,1.84.1,2.768.1.368,0,.752,0,1.136-.016.016,1.12.064,2.272.112,3.248a7.118,7.118,0,0,0-1.04-.064c-2.16,0-3.52,1.1-3.52,2.72,0,1.664,1.376,2.592,3.552,2.592,2.144,0,3.008-1.088,3.1-2.592a16.159,16.159,0,0,1,1.92,1.584Zm4.944-7.472c1.3.1,2.672.176,4.336.176,1.5,0,3.472-.112,4.576-.192V7.368c-1.216.128-3.024.224-4.592.224a41.527,41.527,0,0,1-4.32-.192Zm-.736,4.416a10.192,10.192,0,0,0-.32,2.288c0,2.176,1.824,3.392,5.456,3.392a24.192,24.192,0,0,0,5.5-.544l-.016-2.224a22.469,22.469,0,0,1-5.568.624c-2.288,0-3.248-.736-3.248-1.744a6.574,6.574,0,0,1,.272-1.6ZM146.64,7.64a38.122,38.122,0,0,1-5.856.752l.1-.48a16.563,16.563,0,0,1,.368-1.616l-2.24-.1a9.691,9.691,0,0,1-.08,1.6c-.016.192-.064.4-.1.64a22.408,22.408,0,0,1-3.1-.3V10.1c.8.08,1.728.144,2.736.16a25.609,25.609,0,0,1-1.808,5.312l1.872.672a4.651,4.651,0,0,1,.448-.688,5.436,5.436,0,0,1,4.384-1.872c1.536,0,2.368.8,2.368,1.744,0,2.336-3.5,2.752-6.976,2.192l.56,2.048c5.12.544,8.544-.736,8.544-4.3,0-2.016-1.7-3.392-4.256-3.392a7.7,7.7,0,0,0-3.936.992,27.963,27.963,0,0,0,.72-2.736c2.128-.112,4.64-.416,6.288-.672Zm9.024.448c1.232.32,4.768,1.056,6.368,1.264l.48-1.952a50.162,50.162,0,0,1-6.336-1.232Zm.608,1.264-2.144-.288a57.694,57.694,0,0,1-.784,6.608l1.84.464a3.434,3.434,0,0,1,.592-.928,5.555,5.555,0,0,1,4.368-1.856c1.392,0,2.368.752,2.368,1.776,0,2.016-2.512,3.184-7.264,2.512l.608,2.08c6.592.576,8.88-1.648,8.88-4.544,0-1.92-1.616-3.632-4.4-3.632a7.769,7.769,0,0,0-4.656,1.5C155.792,12.136,156.064,10.232,156.272,9.352Z" transform="translate(96 819.551)" fill="#fff"/>
          <g id="グループ_12948" data-name="グループ 12948" transform="translate(-1093.5 823.696)">
            <g id="グループ_12845" data-name="グループ 12845" transform="translate(-828.06 -291.543)">
              <path id="パス_36199" data-name="パス 36199" d="M-37.512-7.74a2.71,2.71,0,0,0-2.172.924,3.764,3.764,0,0,0-.792,2.532,3.955,3.955,0,0,0,.738,2.526,2.655,2.655,0,0,0,2.214.93,5.635,5.635,0,0,0,1.056-.1q.5-.1,1-.24v.936a5.236,5.236,0,0,1-.99.264A7.615,7.615,0,0,1-37.68.12a4.093,4.093,0,0,1-2.184-.54,3.325,3.325,0,0,1-1.314-1.536,5.775,5.775,0,0,1-.438-2.34,5.235,5.235,0,0,1,.474-2.286,3.567,3.567,0,0,1,1.4-1.548A4.264,4.264,0,0,1-37.5-8.688a5.225,5.225,0,0,1,2.364.5l-.432.912A6.808,6.808,0,0,0-36.45-7.6,3.726,3.726,0,0,0-37.512-7.74ZM-26.6-4.3a5.567,5.567,0,0,1-.45,2.322A3.461,3.461,0,0,1-28.386-.432,4.006,4.006,0,0,1-30.552.12a4.1,4.1,0,0,1-2.214-.552A3.348,3.348,0,0,1-34.08-1.98a5.812,5.812,0,0,1-.432-2.328,5.7,5.7,0,0,1,.432-2.3,3.353,3.353,0,0,1,1.314-1.542A4.127,4.127,0,0,1-30.54-8.7a4.009,4.009,0,0,1,2.16.546,3.437,3.437,0,0,1,1.326,1.536A5.567,5.567,0,0,1-26.6-4.3Zm-6.768,0a4.223,4.223,0,0,0,.684,2.55,2.475,2.475,0,0,0,2.136.93,2.459,2.459,0,0,0,2.13-.93,4.251,4.251,0,0,0,.678-2.55,4.223,4.223,0,0,0-.672-2.538,2.456,2.456,0,0,0-2.124-.918,2.5,2.5,0,0,0-2.148.918A4.168,4.168,0,0,0-33.372-4.3Zm12.2,4.3-2.82-7.512h-.048q.036.372.06,1t.024,1.314V0h-1V-8.568h1.6l2.64,7.02h.048l2.688-7.02h1.584V0H-17.46V-5.268q0-.624.03-1.236t.054-1h-.048L-20.28,0Zm9.276,0h-3.1V-.624l1.008-.228V-7.7l-1.008-.24v-.624h3.1v.624L-12.9-7.7V-.852l1.008.228Zm8.208,0h-1.26L-9.528-7.116h-.048q.024.42.06,1.044t.036,1.284V0h-1V-8.568h1.248l4.572,7.092h.048q-.012-.192-.03-.576t-.036-.834q-.018-.45-.018-.846V-8.568h1.008ZM2.124-4.524H5.088v4.2a8.735,8.735,0,0,1-1.4.336A10.746,10.746,0,0,1,2.076.12,4.375,4.375,0,0,1-.168-.414,3.442,3.442,0,0,1-1.554-1.938a5.384,5.384,0,0,1-.474-2.346,4.91,4.91,0,0,1,.522-2.322A3.673,3.673,0,0,1,.012-8.142a4.926,4.926,0,0,1,2.4-.546,6.754,6.754,0,0,1,1.362.132,6.034,6.034,0,0,1,1.194.372l-.408.936A7.7,7.7,0,0,0,3.534-7.59a4.625,4.625,0,0,0-1.182-.15,3.1,3.1,0,0,0-2.394.93A3.58,3.58,0,0,0-.9-4.284,4.632,4.632,0,0,0-.57-2.478,2.573,2.573,0,0,0,.468-1.254a3.5,3.5,0,0,0,1.86.438,6.536,6.536,0,0,0,.96-.06,7.149,7.149,0,0,0,.72-.144V-3.564H2.124ZM14.64-2.292a2.112,2.112,0,0,1-.828,1.776A3.574,3.574,0,0,1,11.58.12,7.677,7.677,0,0,1,10.248.012a4.082,4.082,0,0,1-1.02-.3V-1.32A6.406,6.406,0,0,0,10.3-.972a5.6,5.6,0,0,0,1.326.156,2.361,2.361,0,0,0,1.44-.372A1.2,1.2,0,0,0,13.56-2.2a1.311,1.311,0,0,0-.18-.708,1.621,1.621,0,0,0-.624-.528,10.1,10.1,0,0,0-1.212-.528,4.254,4.254,0,0,1-1.656-.972A2.178,2.178,0,0,1,9.336-6.5a1.963,1.963,0,0,1,.348-1.164,2.221,2.221,0,0,1,.96-.756,3.582,3.582,0,0,1,1.428-.264,5.862,5.862,0,0,1,1.284.132,5.893,5.893,0,0,1,1.08.348l-.336.924a6.292,6.292,0,0,0-.972-.324,4.436,4.436,0,0,0-1.08-.132,1.848,1.848,0,0,0-1.212.342,1.123,1.123,0,0,0-.408.906,1.335,1.335,0,0,0,.18.72,1.625,1.625,0,0,0,.588.522,7.228,7.228,0,0,0,1.1.486,7.246,7.246,0,0,1,1.278.594,2.3,2.3,0,0,1,.792.762A2.116,2.116,0,0,1,14.64-2.292Zm8.964-2a5.567,5.567,0,0,1-.45,2.322A3.461,3.461,0,0,1,21.822-.432,4.006,4.006,0,0,1,19.656.12a4.1,4.1,0,0,1-2.214-.552A3.348,3.348,0,0,1,16.128-1.98,5.812,5.812,0,0,1,15.7-4.308a5.7,5.7,0,0,1,.432-2.3,3.353,3.353,0,0,1,1.314-1.542A4.127,4.127,0,0,1,19.668-8.7a4.009,4.009,0,0,1,2.16.546,3.437,3.437,0,0,1,1.326,1.536A5.567,5.567,0,0,1,23.6-4.3Zm-6.768,0a4.223,4.223,0,0,0,.684,2.55,2.475,2.475,0,0,0,2.136.93,2.459,2.459,0,0,0,2.13-.93,4.251,4.251,0,0,0,.678-2.55,4.223,4.223,0,0,0-.672-2.538,2.456,2.456,0,0,0-2.124-.918,2.5,2.5,0,0,0-2.148.918A4.168,4.168,0,0,0,16.836-4.3Zm15.9,0a5.567,5.567,0,0,1-.45,2.322A3.461,3.461,0,0,1,30.954-.432,4.006,4.006,0,0,1,28.788.12a4.1,4.1,0,0,1-2.214-.552A3.348,3.348,0,0,1,25.26-1.98a5.812,5.812,0,0,1-.432-2.328,5.7,5.7,0,0,1,.432-2.3,3.353,3.353,0,0,1,1.314-1.542A4.127,4.127,0,0,1,28.8-8.7a4.009,4.009,0,0,1,2.16.546,3.437,3.437,0,0,1,1.326,1.536A5.567,5.567,0,0,1,32.736-4.3Zm-6.768,0a4.223,4.223,0,0,0,.684,2.55,2.475,2.475,0,0,0,2.136.93,2.459,2.459,0,0,0,2.13-.93A4.251,4.251,0,0,0,31.6-4.3a4.223,4.223,0,0,0-.672-2.538A2.456,2.456,0,0,0,28.8-7.752a2.5,2.5,0,0,0-2.148.918A4.168,4.168,0,0,0,25.968-4.3ZM41.184,0h-1.26L35.34-7.116h-.048q.024.42.06,1.044t.036,1.284V0h-1V-8.568H35.64l4.572,7.092h.048q-.012-.192-.03-.576t-.036-.834q-.018-.45-.018-.846V-8.568h1.008Z" transform="translate(2118.06 328.543)" fill="#fff"/>
            </g>
            <line id="線_41" data-name="線 41" x2="7" transform="translate(1238.5 32.5)" fill="none" stroke="#fff" stroke-width="1"/>
            <line id="線_42" data-name="線 42" x2="7" transform="translate(1333.5 32.5)" fill="none" stroke="#fff" stroke-width="1"/>
          </g>
        </g>
      </g>
    </g>
  </g>
</svg>
