<?xml version="1.0" encoding="utf-8"?>
<!-- Generator: Adobe Illustrator 24.1.1, SVG Export Plug-In . SVG Version: 6.00 Build 0)  -->
<svg version="1.1" id="レイヤー_1" xmlns="http://www.w3.org/2000/svg" xmlns:xlink="http://www.w3.org/1999/xlink" x="0px"
	 y="0px" viewBox="0 0 155 50" style="enable-background:new 0 0 155 50;" xml:space="preserve">
<style type="text/css">
	.st0{fill:#FFFFFF;}
	.st1{fill:none;stroke:#FFFFFF;}
</style>
<g id="nav_btn_watch_finished_pc" transform="translate(-1081 -25)">
	<g id="グループ_13800" transform="translate(-130 25)">
		<path id="パス_37889" class="st0" d="M1237.5,15c0.1,0.4,0.1,0.8,0.1,1.2c0,2.1-0.3,3.5-2,4.7c-0.4,0.3-0.9,0.5-1.4,0.7l1.5,1.2
			c3.5-1.9,3.6-4.6,3.6-7.8L1237.5,15z M1243.7,12.2c-0.4,0.1-0.9,0.1-1.3,0.1h-7c-0.5,0-1.1,0-1.6-0.1V14c0.6-0.1,1-0.1,1.6-0.1
			h6.8c-0.6,1-1.4,1.8-2.4,2.4l1.3,1.1c1.3-1,2.3-2.2,3.1-3.6c0.2-0.2,0.3-0.5,0.5-0.7L1243.7,12.2z M1245.5,18
			c0.5,0,1.4-0.1,2.1-0.1h7c0.5,0,1.2,0.1,1.5,0.1v-2c-0.3,0-0.9,0.1-1.5,0.1h-7c-0.7,0-1.6,0-2.1-0.1V18z M1267.2,13.8
			c-0.3,0.1-0.7,0.1-1,0.1h-2.4c0-0.4,0-0.8,0.1-1.2c0-0.3,0-0.9,0.1-1.2h-1.9c0.1,0.4,0.1,0.8,0.1,1.2c0,0.4,0,0.8,0,1.1h-1.9
			c-0.5,0-1.2,0-1.7-0.1v1.7c0.6-0.1,1.3-0.1,1.7-0.1h1.7c-0.2,1.7-0.9,3.4-2.1,4.6c-0.5,0.5-1.1,0.9-1.7,1.3l1.5,1.2
			c2.3-1.7,3.6-3.7,4-7.1h2.9c0,1.6-0.1,3.2-0.5,4.8c-0.1,0.3-0.4,0.5-0.7,0.5c-0.6,0-1.2-0.1-1.8-0.2l0.2,1.7
			c0.6,0.1,1.4,0.1,2.2,0.1c0.7,0.1,1.4-0.3,1.7-1c0.6-1.3,0.7-5,0.8-6.4c0-0.2,0-0.5,0.1-0.7L1267.2,13.8z M1277.8,15.6
			c1.2-0.8,2.4-1.7,3.4-2.8l-1.4-1.3c-1,1.2-2.1,2.2-3.4,2.9c-1.8,1.1-3.8,1.9-5.9,2.4l0.9,1.6c1.5-0.4,3-1,4.5-1.8v4.3
			c0,0.6,0,1.1-0.1,1.7h2.1c-0.1-0.6-0.1-1.1-0.1-1.7V15.6z M1293.4,12.8c-0.3-0.6-0.6-1.2-1-1.7l-1.1,0.4c0.2,0.4,0.5,0.8,0.7,1.3
			c-0.2,0-0.4,0-0.6,0h-6c-0.5,0-1,0-1.5-0.1v1.8c0.3,0,0.9-0.1,1.5-0.1h6.1c-0.2,1.3-0.7,2.6-1.5,3.7c-1.3,1.6-3.1,2.7-5.1,3.1
			l1.4,1.5c2.1-0.6,3.9-1.9,5.2-3.6c1-1.4,1.6-3,1.9-4.7c0.1-0.3,0.2-0.6,0.3-0.9l-0.8-0.5L1293.4,12.8z M1293.1,11.2
			c0.4,0.6,0.7,1.1,1,1.7l1.1-0.5c-0.2-0.5-0.7-1.2-1-1.7L1293.1,11.2z M1297.2,11.8c0,0.4-0.1,0.8-0.1,1.3
			c-0.3,1.8-0.5,3.6-0.5,5.4c0,1.4,0.2,2.8,0.5,4.1l1.5-0.1c0-0.2,0-0.4,0-0.5c0-0.2,0-0.4,0.1-0.6c0.3-1,0.6-2.1,0.9-3.1l-0.8-0.6
			c-0.2,0.4-0.4,0.9-0.6,1.3c0-0.3-0.1-0.6-0.1-0.8c0.1-1.7,0.3-3.3,0.6-5c0.1-0.4,0.2-0.8,0.3-1.1L1297.2,11.8z M1303.7,19.8
			c0,0.8-0.3,1.2-1.1,1.2c-0.7,0-1.2-0.2-1.2-0.8c0-0.5,0.5-0.8,1.2-0.8c0.4,0,0.7,0.1,1,0.1L1303.7,19.8z M1307.7,20.4
			c-0.7-0.7-1.6-1.3-2.5-1.7c-0.1-0.9-0.1-1.9-0.1-3.1c0.7-0.1,1.4-0.1,2-0.2v-1.6c-0.6,0.1-1.3,0.2-2,0.3c0-0.6,0-1.1,0-1.3
			c0-0.3,0-0.6,0.1-0.8h-1.8c0,0.3,0.1,0.6,0.1,0.8c0,0.3,0,0.8,0,1.4c-0.3,0-0.6,0-0.9,0c-0.8,0-1.5,0-2.2-0.1v1.5
			c0.8,0.1,1.5,0.1,2.2,0.1c0.3,0,0.6,0,0.9,0c0,0.9,0.1,1.8,0.1,2.6c-0.3,0-0.6-0.1-0.8-0.1c-1.8,0-2.9,0.9-2.9,2.2
			c0,1.4,1.1,2.1,2.9,2.1c1.7,0,2.4-0.9,2.5-2.1c0.6,0.4,1.1,0.8,1.6,1.3L1307.7,20.4z M1311.4,14.3c1.1,0.1,2.2,0.1,3.5,0.1
			c1.2,0,2.8-0.1,3.7-0.2v-1.7c-1,0.1-2.5,0.2-3.7,0.2c-1.2,0-2.3,0-3.5-0.2V14.3z M1310.8,17.9c-0.2,0.6-0.2,1.2-0.3,1.9
			c0,1.8,1.5,2.8,4.4,2.8c1.5,0,3-0.1,4.5-0.4l0-1.8c-1.5,0.4-3,0.5-4.5,0.5c-1.9,0-2.6-0.6-2.6-1.4c0-0.4,0.1-0.9,0.2-1.3
			L1310.8,17.9z M1330.9,12.8c-1.6,0.3-3.2,0.5-4.8,0.6l0.1-0.4c0.1-0.4,0.2-0.9,0.3-1.3l-1.8-0.1c0,0.4,0,0.9-0.1,1.3
			c0,0.2-0.1,0.3-0.1,0.5c-0.8,0-1.7-0.1-2.5-0.2v1.6c0.7,0.1,1.4,0.1,2.2,0.1c-0.3,1.5-0.8,2.9-1.5,4.3l1.5,0.5
			c0.1-0.2,0.2-0.4,0.4-0.6c0.9-1,2.2-1.6,3.6-1.5c1.2,0,1.9,0.6,1.9,1.4c0,1.9-2.8,2.2-5.7,1.8l0.5,1.7c4.2,0.4,6.9-0.6,6.9-3.5
			c0-1.6-1.4-2.8-3.5-2.8c-1.1,0-2.2,0.3-3.2,0.8c0.2-0.7,0.4-1.5,0.6-2.2c1.7-0.1,3.8-0.3,5.1-0.5L1330.9,12.8z M1336.6,13.1
			c1,0.3,3.9,0.9,5.2,1l0.4-1.6c-1.7-0.2-3.5-0.6-5.1-1L1336.6,13.1z M1337.1,14.2l-1.7-0.2c-0.1,1.8-0.3,3.6-0.6,5.4l1.5,0.4
			c0.1-0.3,0.3-0.5,0.5-0.8c0.9-1,2.2-1.6,3.5-1.5c1.1,0,1.9,0.6,1.9,1.4c0,1.6-2,2.6-5.9,2l0.5,1.7c5.4,0.5,7.2-1.3,7.2-3.7
			c0-1.6-1.3-3-3.6-3c-1.4,0-2.7,0.4-3.8,1.2C1336.7,16.4,1337,14.9,1337.1,14.2z"/>
		<g id="グループ_12948" transform="translate(-0.5 1)">
			<g id="グループ_12845" transform="translate(-828.06 -291.543)">
				<path id="パス_37888" class="st0" d="M2080.5,320.8c-0.8,0-1.6,0.3-2.2,0.9c-0.6,0.7-0.8,1.6-0.8,2.5c0,0.9,0.2,1.8,0.7,2.5
					c0.5,0.6,1.4,1,2.2,0.9c0.4,0,0.7,0,1.1-0.1c0.3-0.1,0.7-0.1,1-0.2v0.9c-0.3,0.1-0.7,0.2-1,0.3c-0.4,0.1-0.8,0.1-1.2,0.1
					c-0.8,0-1.5-0.2-2.2-0.5c-0.6-0.4-1-0.9-1.3-1.5c-0.3-0.7-0.5-1.5-0.4-2.3c0-0.8,0.1-1.6,0.5-2.3c0.3-0.6,0.8-1.2,1.4-1.5
					c0.7-0.4,1.5-0.6,2.2-0.6c0.8,0,1.6,0.2,2.4,0.5l-0.4,0.9c-0.3-0.1-0.6-0.2-0.9-0.3C2081.3,320.8,2080.9,320.8,2080.5,320.8z
					 M2091.5,324.2c0,0.8-0.1,1.6-0.4,2.3c-0.3,0.6-0.7,1.2-1.3,1.5c-0.7,0.4-1.4,0.6-2.2,0.6c-0.8,0-1.5-0.2-2.2-0.6
					c-0.6-0.4-1-0.9-1.3-1.5c-0.3-0.7-0.4-1.5-0.4-2.3c0-0.8,0.1-1.6,0.4-2.3c0.3-0.6,0.7-1.2,1.3-1.5c0.7-0.4,1.4-0.6,2.2-0.6
					c0.8,0,1.5,0.2,2.2,0.5c0.6,0.4,1,0.9,1.3,1.5C2091.3,322.7,2091.5,323.4,2091.5,324.2z M2084.7,324.2c-0.1,0.9,0.2,1.8,0.7,2.5
					c0.5,0.6,1.3,1,2.1,0.9c0.8,0.1,1.6-0.3,2.1-0.9c0.5-0.8,0.7-1.6,0.7-2.5c0.1-0.9-0.2-1.8-0.7-2.5c-0.5-0.6-1.3-1-2.1-0.9
					c-0.8-0.1-1.6,0.3-2.1,0.9C2084.9,322.5,2084.6,323.3,2084.7,324.2L2084.7,324.2z M2096.9,328.5l-2.8-7.5h0c0,0.2,0,0.6,0.1,1
					c0,0.4,0,0.9,0,1.3v5.2h-1V320h1.6l2.6,7h0l2.7-7h1.6v8.6h-1.1v-5.3c0-0.4,0-0.8,0-1.2s0-0.7,0.1-1h0l-2.9,7.5H2096.9z
					 M2106.2,328.5h-3.1v-0.6l1-0.2v-6.8l-1-0.2V320h3.1v0.6l-1,0.2v6.8l1,0.2V328.5z M2114.4,328.5h-1.3l-4.6-7.1h0
					c0,0.3,0,0.6,0.1,1c0,0.4,0,0.8,0,1.3v4.8h-1V320h1.2l4.6,7.1h0c0-0.1,0-0.3,0-0.6c0-0.3,0-0.5,0-0.8c0-0.3,0-0.6,0-0.8V320h1
					L2114.4,328.5z M2120.2,324h3v4.2c-0.5,0.2-0.9,0.3-1.4,0.3c-0.5,0.1-1.1,0.1-1.6,0.1c-0.8,0-1.6-0.2-2.2-0.5
					c-0.6-0.4-1.1-0.9-1.4-1.5c-0.3-0.7-0.5-1.5-0.5-2.3c0-0.8,0.2-1.6,0.5-2.3c0.3-0.7,0.9-1.2,1.5-1.5c0.7-0.4,1.6-0.6,2.4-0.5
					c0.5,0,0.9,0,1.4,0.1c0.4,0.1,0.8,0.2,1.2,0.4l-0.4,0.9c-0.3-0.1-0.7-0.3-1-0.3c-0.4-0.1-0.8-0.2-1.2-0.1
					c-0.9-0.1-1.8,0.3-2.4,0.9c-0.6,0.7-0.9,1.6-0.9,2.5c0,0.6,0.1,1.2,0.3,1.8c0.2,0.5,0.6,0.9,1,1.2c0.6,0.3,1.2,0.5,1.9,0.4
					c0.3,0,0.6,0,1-0.1c0.2,0,0.5-0.1,0.7-0.1V325h-1.9V324z M2132.7,326.3c0,0.7-0.3,1.4-0.8,1.8c-0.7,0.5-1.4,0.7-2.2,0.6
					c-0.4,0-0.9,0-1.3-0.1c-0.4-0.1-0.7-0.2-1-0.3v-1c0.3,0.1,0.7,0.3,1.1,0.3c0.4,0.1,0.9,0.2,1.3,0.2c0.5,0,1-0.1,1.4-0.4
					c0.3-0.2,0.5-0.6,0.5-1c0-0.2-0.1-0.5-0.2-0.7c-0.2-0.2-0.4-0.4-0.6-0.5c-0.4-0.2-0.8-0.4-1.2-0.5c-0.6-0.2-1.2-0.5-1.7-1
					c-0.4-0.4-0.6-1-0.6-1.6c0-0.4,0.1-0.8,0.3-1.2c0.2-0.3,0.6-0.6,1-0.8c0.5-0.2,0.9-0.3,1.4-0.3c0.4,0,0.9,0,1.3,0.1
					c0.4,0.1,0.7,0.2,1.1,0.3l-0.3,0.9c-0.3-0.1-0.6-0.2-1-0.3c-0.4-0.1-0.7-0.1-1.1-0.1c-0.4,0-0.9,0.1-1.2,0.3
					c-0.3,0.2-0.4,0.6-0.4,0.9c0,0.3,0.1,0.5,0.2,0.7c0.2,0.2,0.4,0.4,0.6,0.5c0.4,0.2,0.7,0.4,1.1,0.5c0.4,0.2,0.9,0.4,1.3,0.6
					c0.3,0.2,0.6,0.4,0.8,0.8C2132.6,325.5,2132.7,325.9,2132.7,326.3z M2141.7,324.3c0,0.8-0.1,1.6-0.4,2.3
					c-0.3,0.6-0.7,1.2-1.3,1.5c-0.7,0.4-1.4,0.6-2.2,0.6c-0.8,0-1.5-0.2-2.2-0.6c-0.6-0.4-1-0.9-1.3-1.5c-0.3-0.7-0.4-1.5-0.4-2.3
					c0-0.8,0.1-1.6,0.4-2.3c0.3-0.6,0.7-1.2,1.3-1.5c0.7-0.4,1.4-0.6,2.2-0.6c0.8,0,1.5,0.2,2.2,0.5c0.6,0.4,1,0.9,1.3,1.5
					C2141.5,322.7,2141.7,323.4,2141.7,324.3L2141.7,324.3z M2134.9,324.3c-0.1,0.9,0.2,1.8,0.7,2.5c0.5,0.6,1.3,1,2.1,0.9
					c0.8,0.1,1.6-0.3,2.1-0.9c0.5-0.8,0.7-1.6,0.7-2.5c0.1-0.9-0.2-1.8-0.7-2.5c-0.5-0.6-1.3-1-2.1-0.9c-0.8-0.1-1.6,0.3-2.1,0.9
					C2135.1,322.5,2134.8,323.3,2134.9,324.3L2134.9,324.3z M2150.8,324.3c0,0.8-0.1,1.6-0.5,2.3c-0.3,0.6-0.7,1.2-1.3,1.5
					c-0.7,0.4-1.4,0.6-2.2,0.6c-0.8,0-1.5-0.2-2.2-0.6c-0.6-0.4-1-0.9-1.3-1.5c-0.3-0.7-0.4-1.5-0.4-2.3c0-0.8,0.1-1.6,0.4-2.3
					c0.3-0.6,0.7-1.2,1.3-1.5c0.7-0.4,1.4-0.6,2.2-0.6c0.8,0,1.5,0.2,2.2,0.5c0.6,0.4,1,0.9,1.3,1.5
					C2150.7,322.7,2150.8,323.4,2150.8,324.3L2150.8,324.3z M2144,324.3c-0.1,0.9,0.2,1.8,0.7,2.5c0.5,0.6,1.3,1,2.1,0.9
					c0.8,0.1,1.6-0.3,2.1-0.9c0.5-0.8,0.7-1.7,0.7-2.6c0.1-0.9-0.2-1.8-0.7-2.5c-0.5-0.6-1.3-1-2.1-0.9c-0.8-0.1-1.6,0.3-2.1,0.9
					C2144.2,322.5,2144,323.3,2144,324.3L2144,324.3z M2159.2,328.5h-1.3l-4.6-7.1h0c0,0.3,0,0.6,0.1,1c0,0.4,0,0.8,0,1.3v4.8h-1
					V320h1.3l4.6,7.1h0c0-0.1,0-0.3,0-0.6s0-0.5,0-0.8c0-0.3,0-0.6,0-0.8V320h1V328.5z"/>
			</g>
			<line id="線_41" class="st1" x1="1238.5" y1="32.5" x2="1245.5" y2="32.5"/>
			<line id="線_42" class="st1" x1="1333.5" y1="32.5" x2="1340.5" y2="32.5"/>
		</g>
	</g>
</g>
</svg>
