<?xml version="1.0" encoding="utf-8"?>
<!-- Generator: Adobe Illustrator 24.1.1, SVG Export Plug-In . SVG Version: 6.00 Build 0)  -->
<svg version="1.1" id="レイヤー_1" xmlns="http://www.w3.org/2000/svg" xmlns:xlink="http://www.w3.org/1999/xlink" x="0px"
	 y="0px" viewBox="0 0 375 80" style="enable-background:new 0 0 375 80;" xml:space="preserve">
<style type="text/css">
	.st0{fill:#FFFFFF;}
	.st1{fill:none;stroke:#FFFFFF;}
</style>
<g id="nav_btn_watch_finished_sp" transform="translate(0 -802)">
	<g id="グループ_13054">
		<g id="グループ_12323" transform="translate(-577.378 -17.054)">
			<g id="グループ_12322" transform="translate(925.502 855.054)">
				<path id="パス_35629" class="st0" d="M0,0l6.9,4.1L0,8.1V0z"/>
			</g>
		</g>
		<g id="グループ_13053" transform="translate(0 -1)">
			<g id="グループ_13052">
				<path id="パス_37891" class="st0" d="M129,829.9c0.1,0.5,0.1,1,0.1,1.4c0,2.6-0.4,4.3-2.4,5.7c-0.5,0.4-1.1,0.7-1.7,0.9
					l1.9,1.5c4.4-2.3,4.4-5.6,4.4-9.6H129z M136.6,826.5c-0.5,0.1-1.1,0.2-1.6,0.1h-8.6c-0.7,0-1.3-0.1-2-0.2v2.2
					c0.8-0.1,1.3-0.1,2-0.1h8.3c-0.7,1.2-1.8,2.2-2.9,3l1.6,1.3c1.5-1.2,2.8-2.7,3.9-4.4c0.2-0.3,0.4-0.6,0.6-0.8L136.6,826.5z
					 M139.4,833.7c0.6,0,1.7-0.1,2.6-0.1h8.6c0.7,0,1.5,0.1,1.9,0.1v-2.5c-0.4,0-1.1,0.1-1.9,0.1H142c-0.8,0-2,0-2.6-0.1V833.7z
					 M166.8,828.5c-0.4,0.1-0.8,0.1-1.2,0.1h-3c0-0.5,0-0.9,0.1-1.4c0-0.4,0-1.1,0.1-1.4h-2.4c0.1,0.5,0.1,1,0.1,1.5
					c0,0.5,0,0.9,0,1.4h-2.3c-0.6,0-1.4,0-2.1-0.1v2.1c0.7-0.1,1.6-0.1,2.1-0.1h2.1c-0.2,2.1-1.1,4.2-2.6,5.7
					c-0.6,0.6-1.3,1.1-2.1,1.6l1.9,1.5c2.9-2,4.4-4.5,5-8.8h3.6c0,1.7-0.2,4.9-0.7,5.9c-0.1,0.4-0.5,0.6-0.9,0.6
					c-0.8,0-1.5-0.1-2.2-0.2l0.2,2.1c0.8,0.1,1.7,0.1,2.7,0.1c0.9,0.1,1.7-0.4,2.1-1.2c0.7-1.6,0.9-6.1,0.9-7.8
					c0-0.3,0.1-0.6,0.1-0.8L166.8,828.5z M180.5,830.6c1.5-1,3-2.1,4.2-3.4l-1.7-1.6c-1.2,1.4-2.6,2.6-4.2,3.6
					c-2.3,1.3-4.7,2.3-7.3,2.9l1.1,1.9c1.9-0.5,3.7-1.3,5.5-2.2v5.2c0,0.7,0,1.4-0.1,2.1h2.5c-0.1-0.7-0.2-1.4-0.1-2.1L180.5,830.6z
					 M200.3,827.2c-0.4-0.7-0.8-1.4-1.2-2.1l-1.3,0.5c0.3,0.5,0.6,1,0.9,1.6c-0.2,0-0.5,0-0.8,0h-7.4c-0.6,0-1.3-0.1-1.9-0.1v2.3
					c0.4,0,1.2-0.1,1.9-0.1h7.5c-0.3,1.6-0.9,3.2-1.9,4.5c-1.6,2-3.8,3.3-6.3,3.8l1.7,1.9c2.6-0.8,4.8-2.3,6.4-4.4
					c1.2-1.8,2-3.7,2.4-5.8c0.1-0.4,0.2-0.7,0.4-1.1l-1-0.7L200.3,827.2z M199.9,825.2c0.5,0.7,0.9,1.4,1.3,2.1l1.3-0.6
					c-0.3-0.6-0.9-1.5-1.3-2.1L199.9,825.2z M205.4,826.1c0,0.5-0.1,1-0.1,1.6c-0.4,2.2-0.6,4.4-0.7,6.6c0,1.7,0.2,3.4,0.6,5.1
					l1.8-0.1c0-0.2,0-0.5,0-0.7c0-0.2,0-0.5,0.1-0.7c0.3-1.3,0.7-2.5,1.1-3.8l-1-0.8c-0.2,0.5-0.5,1.1-0.7,1.6c0-0.3-0.1-0.7-0.1-1
					c0.1-2.1,0.4-4.1,0.8-6.1c0.1-0.5,0.2-0.9,0.4-1.4L205.4,826.1z M213.4,835.9c0,0.9-0.3,1.4-1.3,1.4c-0.8,0-1.5-0.3-1.5-0.9
					c0-0.6,0.6-1,1.5-1c0.4,0,0.9,0.1,1.3,0.2L213.4,835.9z M218.4,836.5c-0.9-0.9-1.9-1.6-3.1-2c-0.1-1.1-0.1-2.3-0.2-3.9
					c0.9-0.1,1.7-0.2,2.5-0.3v-2c-0.8,0.2-1.6,0.3-2.4,0.4c0-0.7,0-1.3,0-1.6c0-0.3,0-0.7,0.1-1h-2.3c0.1,0.3,0.1,0.7,0.1,1
					c0,0.3,0,1,0,1.8c-0.4,0-0.8,0-1.1,0c-0.9,0-1.8,0-2.8-0.1v1.9c0.9,0.1,1.8,0.1,2.8,0.1c0.4,0,0.8,0,1.1,0
					c0,1.1,0.1,2.3,0.1,3.2c-0.3,0-0.7-0.1-1-0.1c-2.2,0-3.5,1.1-3.5,2.7c0,1.7,1.4,2.6,3.6,2.6c2.1,0,3-1.1,3.1-2.6
					c0.7,0.5,1.3,1,1.9,1.6L218.4,836.5z M223.4,829.1c1.3,0.1,2.7,0.2,4.3,0.2c1.5,0,3.5-0.1,4.6-0.2v-2.1c-1.2,0.1-3,0.2-4.6,0.2
					c-1.4,0-2.9-0.1-4.3-0.2V829.1z M222.6,833.5c-0.2,0.7-0.3,1.5-0.3,2.3c0,2.2,1.8,3.4,5.5,3.4c1.8,0,3.7-0.2,5.5-0.5l0-2.2
					c-1.8,0.4-3.7,0.6-5.6,0.6c-2.3,0-3.2-0.7-3.2-1.7c0-0.5,0.1-1.1,0.3-1.6L222.6,833.5z M249.3,827.2c-1.9,0.4-3.9,0.7-5.9,0.8
					l0.1-0.5c0.1-0.5,0.2-1.1,0.4-1.6l-2.2-0.1c0,0.5,0,1.1-0.1,1.6c0,0.2-0.1,0.4-0.1,0.6c-1,0-2.1-0.1-3.1-0.3v2
					c0.8,0.1,1.7,0.1,2.7,0.2c-0.4,1.8-1,3.6-1.8,5.3l1.9,0.7c0.1-0.2,0.3-0.5,0.4-0.7c1.1-1.3,2.7-2,4.4-1.9c1.5,0,2.4,0.8,2.4,1.7
					c0,2.3-3.5,2.8-7,2.2l0.6,2c5.1,0.5,8.5-0.7,8.5-4.3c0-2-1.7-3.4-4.3-3.4c-1.4,0-2.7,0.3-3.9,1c0.3-0.9,0.5-1.8,0.7-2.7
					c2.1-0.1,4.6-0.4,6.3-0.7L249.3,827.2z M258.3,827.6c1.2,0.3,4.8,1.1,6.4,1.3l0.5-2c-2.1-0.3-4.3-0.7-6.3-1.2L258.3,827.6z
					 M258.9,828.9l-2.1-0.3c-0.1,2.2-0.4,4.4-0.8,6.6l1.8,0.5c0.1-0.3,0.3-0.7,0.6-0.9c1.1-1.2,2.7-1.9,4.4-1.9
					c1.4,0,2.4,0.8,2.4,1.8c0,2-2.5,3.2-7.3,2.5l0.6,2.1c6.6,0.6,8.9-1.6,8.9-4.5c0-1.9-1.6-3.6-4.4-3.6c-1.7,0-3.3,0.5-4.7,1.5
					C258.4,831.7,258.7,829.8,258.9,828.9z"/>
				<g id="グループ_12948" transform="translate(-1093.5 823.696)">
					<g id="グループ_12845" transform="translate(-828.06 -291.543)">
						<path id="パス_37892" class="st0" d="M2080.5,320.8c-0.8,0-1.6,0.3-2.2,0.9c-0.6,0.7-0.8,1.6-0.8,2.5c0,0.9,0.2,1.8,0.7,2.5
							c0.5,0.6,1.4,1,2.2,0.9c0.4,0,0.7,0,1.1-0.1c0.3-0.1,0.7-0.1,1-0.2v0.9c-0.3,0.1-0.7,0.2-1,0.3c-0.4,0.1-0.8,0.1-1.2,0.1
							c-0.8,0-1.5-0.2-2.2-0.5c-0.6-0.4-1-0.9-1.3-1.5c-0.3-0.7-0.5-1.5-0.4-2.3c0-0.8,0.1-1.6,0.5-2.3c0.3-0.6,0.8-1.2,1.4-1.5
							c0.7-0.4,1.5-0.6,2.2-0.6c0.8,0,1.6,0.2,2.4,0.5l-0.4,0.9c-0.3-0.1-0.6-0.2-0.9-0.3C2081.3,320.8,2080.9,320.8,2080.5,320.8z
							 M2091.5,324.2c0,0.8-0.1,1.6-0.4,2.3c-0.3,0.6-0.7,1.2-1.3,1.5c-0.7,0.4-1.4,0.6-2.2,0.6c-0.8,0-1.5-0.2-2.2-0.6
							c-0.6-0.4-1-0.9-1.3-1.5c-0.3-0.7-0.4-1.5-0.4-2.3c0-0.8,0.1-1.6,0.4-2.3c0.3-0.6,0.7-1.2,1.3-1.5c0.7-0.4,1.4-0.6,2.2-0.6
							c0.8,0,1.5,0.2,2.2,0.5c0.6,0.4,1,0.9,1.3,1.5C2091.3,322.7,2091.5,323.4,2091.5,324.2z M2084.7,324.2
							c-0.1,0.9,0.2,1.8,0.7,2.5c0.5,0.6,1.3,1,2.1,0.9c0.8,0.1,1.6-0.3,2.1-0.9c0.5-0.8,0.7-1.6,0.7-2.5c0.1-0.9-0.2-1.8-0.7-2.5
							c-0.5-0.6-1.3-1-2.1-0.9c-0.8-0.1-1.6,0.3-2.1,0.9C2084.9,322.5,2084.6,323.3,2084.7,324.2L2084.7,324.2z M2096.9,328.5
							l-2.8-7.5h0c0,0.2,0,0.6,0.1,1c0,0.4,0,0.9,0,1.3v5.2h-1V320h1.6l2.6,7h0l2.7-7h1.6v8.6h-1.1v-5.3c0-0.4,0-0.8,0-1.2
							s0-0.7,0.1-1h0l-2.9,7.5H2096.9z M2106.2,328.5h-3.1v-0.6l1-0.2v-6.8l-1-0.2V320h3.1v0.6l-1,0.2v6.8l1,0.2V328.5z
							 M2114.4,328.5h-1.3l-4.6-7.1h0c0,0.3,0,0.6,0.1,1c0,0.4,0,0.8,0,1.3v4.8h-1V320h1.2l4.6,7.1h0c0-0.1,0-0.3,0-0.6
							c0-0.3,0-0.5,0-0.8c0-0.3,0-0.6,0-0.8V320h1L2114.4,328.5z M2120.2,324h3v4.2c-0.5,0.2-0.9,0.3-1.4,0.3
							c-0.5,0.1-1.1,0.1-1.6,0.1c-0.8,0-1.6-0.2-2.2-0.5c-0.6-0.4-1.1-0.9-1.4-1.5c-0.3-0.7-0.5-1.5-0.5-2.3c0-0.8,0.2-1.6,0.5-2.3
							c0.3-0.7,0.9-1.2,1.5-1.5c0.7-0.4,1.6-0.6,2.4-0.5c0.5,0,0.9,0,1.4,0.1c0.4,0.1,0.8,0.2,1.2,0.4l-0.4,0.9
							c-0.3-0.1-0.7-0.3-1-0.3c-0.4-0.1-0.8-0.2-1.2-0.1c-0.9-0.1-1.8,0.3-2.4,0.9c-0.6,0.7-0.9,1.6-0.9,2.5c0,0.6,0.1,1.2,0.3,1.8
							c0.2,0.5,0.6,0.9,1,1.2c0.6,0.3,1.2,0.5,1.9,0.4c0.3,0,0.6,0,1-0.1c0.2,0,0.5-0.1,0.7-0.1V325h-1.9V324z M2132.7,326.3
							c0,0.7-0.3,1.4-0.8,1.8c-0.7,0.5-1.4,0.7-2.2,0.6c-0.4,0-0.9,0-1.3-0.1c-0.4-0.1-0.7-0.2-1-0.3v-1c0.3,0.1,0.7,0.3,1.1,0.3
							c0.4,0.1,0.9,0.2,1.3,0.2c0.5,0,1-0.1,1.4-0.4c0.3-0.2,0.5-0.6,0.5-1c0-0.2-0.1-0.5-0.2-0.7c-0.2-0.2-0.4-0.4-0.6-0.5
							c-0.4-0.2-0.8-0.4-1.2-0.5c-0.6-0.2-1.2-0.5-1.7-1c-0.4-0.4-0.6-1-0.6-1.6c0-0.4,0.1-0.8,0.3-1.2c0.2-0.3,0.6-0.6,1-0.8
							c0.5-0.2,0.9-0.3,1.4-0.3c0.4,0,0.9,0,1.3,0.1c0.4,0.1,0.7,0.2,1.1,0.3l-0.3,0.9c-0.3-0.1-0.6-0.2-1-0.3
							c-0.4-0.1-0.7-0.1-1.1-0.1c-0.4,0-0.9,0.1-1.2,0.3c-0.3,0.2-0.4,0.6-0.4,0.9c0,0.3,0.1,0.5,0.2,0.7c0.2,0.2,0.4,0.4,0.6,0.5
							c0.4,0.2,0.7,0.4,1.1,0.5c0.4,0.2,0.9,0.4,1.3,0.6c0.3,0.2,0.6,0.4,0.8,0.8C2132.6,325.5,2132.7,325.9,2132.7,326.3z
							 M2141.7,324.3c0,0.8-0.1,1.6-0.4,2.3c-0.3,0.6-0.7,1.2-1.3,1.5c-0.7,0.4-1.4,0.6-2.2,0.6c-0.8,0-1.5-0.2-2.2-0.6
							c-0.6-0.4-1-0.9-1.3-1.5c-0.3-0.7-0.4-1.5-0.4-2.3c0-0.8,0.1-1.6,0.4-2.3c0.3-0.6,0.7-1.2,1.3-1.5c0.7-0.4,1.4-0.6,2.2-0.6
							c0.8,0,1.5,0.2,2.2,0.5c0.6,0.4,1,0.9,1.3,1.5C2141.5,322.7,2141.7,323.4,2141.7,324.3L2141.7,324.3z M2134.9,324.3
							c-0.1,0.9,0.2,1.8,0.7,2.5c0.5,0.6,1.3,1,2.1,0.9c0.8,0.1,1.6-0.3,2.1-0.9c0.5-0.8,0.7-1.6,0.7-2.5c0.1-0.9-0.2-1.8-0.7-2.5
							c-0.5-0.6-1.3-1-2.1-0.9c-0.8-0.1-1.6,0.3-2.1,0.9C2135.1,322.5,2134.8,323.3,2134.9,324.3L2134.9,324.3z M2150.8,324.3
							c0,0.8-0.1,1.6-0.5,2.3c-0.3,0.6-0.7,1.2-1.3,1.5c-0.7,0.4-1.4,0.6-2.2,0.6c-0.8,0-1.5-0.2-2.2-0.6c-0.6-0.4-1-0.9-1.3-1.5
							c-0.3-0.7-0.4-1.5-0.4-2.3c0-0.8,0.1-1.6,0.4-2.3c0.3-0.6,0.7-1.2,1.3-1.5c0.7-0.4,1.4-0.6,2.2-0.6c0.8,0,1.5,0.2,2.2,0.5
							c0.6,0.4,1,0.9,1.3,1.5C2150.7,322.7,2150.8,323.4,2150.8,324.3L2150.8,324.3z M2144,324.3c-0.1,0.9,0.2,1.8,0.7,2.5
							c0.5,0.6,1.3,1,2.1,0.9c0.8,0.1,1.6-0.3,2.1-0.9c0.5-0.8,0.7-1.7,0.7-2.6c0.1-0.9-0.2-1.8-0.7-2.5c-0.5-0.6-1.3-1-2.1-0.9
							c-0.8-0.1-1.6,0.3-2.1,0.9C2144.2,322.5,2144,323.3,2144,324.3L2144,324.3z M2159.2,328.5h-1.3l-4.6-7.1h0c0,0.3,0,0.6,0.1,1
							c0,0.4,0,0.8,0,1.3v4.8h-1V320h1.3l4.6,7.1h0c0-0.1,0-0.3,0-0.6s0-0.5,0-0.8c0-0.3,0-0.6,0-0.8V320h1V328.5z"/>
					</g>
					<line id="線_41" class="st1" x1="1238.5" y1="32.5" x2="1245.5" y2="32.5"/>
					<line id="線_42" class="st1" x1="1333.5" y1="32.5" x2="1340.5" y2="32.5"/>
				</g>
			</g>
		</g>
	</g>
</g>
</svg>
