<?xml version="1.0" standalone="no"?>
<!DOCTYPE svg PUBLIC "-//W3C//DTD SVG 20010904//EN"
 "http://www.w3.org/TR/2001/REC-SVG-20010904/DTD/svg10.dtd">
<svg version="1.0" xmlns="http://www.w3.org/2000/svg"
 width="300.000000pt" height="300.000000pt" viewBox="0 0 300.000000 300.000000"
 preserveAspectRatio="xMidYMid meet">
<metadata>
Created by potrace 1.14, written by Peter Selinger 2001-2017
</metadata>
<g transform="translate(0.000000,300.000000) scale(0.100000,-0.100000)"
fill="#000000" stroke="none">
<path d="M385 2990 c3 -5 15 -10 26 -10 10 0 19 5 19 10 0 6 -12 10 -26 10
-14 0 -23 -4 -19 -10z"/>
<path d="M2112 2767 c-54 -64 26 -148 88 -92 41 37 12 105 -44 105 -19 0 -38
-6 -44 -13z"/>
<path d="M237 2722 c-42 -46 5 -122 61 -101 32 12 42 26 42 60 0 52 -69 79
-103 41z"/>
<path d="M2224 2208 c-12 -14 -13 -18 -3 -10 9 6 19 9 23 5 4 -4 11 -1 15 6 9
15 71 6 71 -10 0 -5 6 -9 13 -9 6 1 1 10 -12 20 -32 27 -83 26 -107 -2z"/>
<path d="M2202 2150 c0 -19 2 -27 5 -17 2 9 2 25 0 35 -3 9 -5 1 -5 -18z"/>
<path d="M2351 2134 c0 -11 3 -14 6 -6 3 7 2 16 -1 19 -3 4 -6 -2 -5 -13z"/>
<path d="M2210 2106 c0 -2 8 -10 18 -17 15 -13 16 -12 3 4 -13 16 -21 21 -21
13z"/>
<path d="M2333 2099 c-7 -7 -29 -15 -50 -19 -37 -7 -37 -8 -7 -9 18 -1 42 7
55 19 13 10 22 19 19 20 -4 0 -11 -5 -17 -11z"/>
<path d="M553 1703 c9 -2 23 -2 30 0 6 3 -1 5 -18 5 -16 0 -22 -2 -12 -5z"/>
<path d="M638 1703 c7 -3 16 -2 19 1 4 3 -2 6 -13 5 -11 0 -14 -3 -6 -6z"/>
<path d="M737 1669 c7 -7 15 -10 18 -7 3 3 -2 9 -12 12 -14 6 -15 5 -6 -5z"/>
</g>
</svg>
